<svg width="40" height="16" viewBox="0 0 40 16" fill="none" xmlns="http://www.w3.org/2000/svg">
<path fill-rule="evenodd" clip-rule="evenodd" d="M26.537 3.03333C26.4453 3.14583 26.3412 3.2375 26.2287 3.30417C26.1162 3.37084 25.9703 3.43333 25.787 3.49583C25.7537 3.50833 25.612 3.55833 25.3578 3.64583C25.1703 3.7125 25.0287 3.77084 24.9287 3.825C25.0037 3.7 25.0995 3.59583 25.2203 3.52083C25.3412 3.44583 25.487 3.375 25.662 3.31667C25.9537 3.225 26.2495 3.12917 26.5412 3.0375L26.537 3.03333ZM26.3287 4.5625C26.262 4.72083 26.1078 4.85 25.8703 4.94167C25.5703 5.0625 25.3787 5.15417 25.2995 5.22083C25.2662 5.17917 25.2703 5.13334 25.3078 5.07917C25.3745 4.99167 25.4078 4.94584 25.4078 4.9375C25.3287 4.90417 25.2745 4.875 25.2412 4.84584C25.2078 4.81667 25.187 4.78333 25.1662 4.7375C25.1662 4.6125 25.2245 4.49167 25.3453 4.37917C25.4328 4.29167 25.5537 4.2125 25.7037 4.1375C25.7495 4.1375 25.8162 4.17917 25.9037 4.26667C25.912 4.32084 25.8953 4.37084 25.862 4.41667C25.8287 4.4625 25.7953 4.50834 25.762 4.54584C25.737 4.5125 25.7162 4.4875 25.7037 4.46667C25.6703 4.425 25.6412 4.40417 25.612 4.39584C25.5662 4.39584 25.5245 4.40834 25.4912 4.42917C25.4578 4.45417 25.4203 4.47917 25.3828 4.5125C25.4578 4.6375 25.5828 4.70417 25.762 4.70417C25.837 4.70417 25.937 4.67917 26.062 4.62917C26.187 4.57917 26.2745 4.55417 26.3203 4.55417L26.3287 4.5625ZM27.937 5.04167L27.5078 4.67084L27.4078 4.9C27.5662 5.9 27.7328 6.9 27.8995 7.9C27.9078 8.02084 27.9162 8.13333 27.9245 8.24167C27.9328 8.35 27.9412 8.47083 27.9412 8.6125C27.9412 9.025 27.8953 9.4125 27.7995 9.77083C27.7078 10.1292 27.5495 10.4667 27.3287 10.7792C27.1078 11.0917 26.7912 11.3042 26.3787 11.4208C26.1037 11.4958 25.7203 11.5292 25.2203 11.5292H24.762C25.262 11.3833 25.712 11.2 26.112 10.9792C26.5537 10.7375 26.962 10.4458 27.3412 10.1C27.462 9.94167 27.5578 9.76667 27.6245 9.58333C27.6953 9.4 27.7287 9.2125 27.7287 9.01667C27.7287 8.90833 27.7203 8.80834 27.6995 8.70834C27.3912 7.0875 27.087 5.46667 26.7787 3.8375C26.7995 3.725 26.8328 3.60833 26.8828 3.4875C26.9328 3.36667 26.9995 3.24167 27.0787 3.10834C27.212 3.35417 27.362 3.67084 27.5287 4.05834C27.6412 4.325 27.7787 4.65 27.937 5.0375V5.04167ZM27.1787 8.89167C27.212 9.1125 27.2287 9.31667 27.2287 9.5C27.2287 9.64167 27.2287 9.74583 27.2203 9.81667C27.212 9.8875 27.1912 9.98334 27.1495 10.1C27.1495 9.825 27.0787 9.55834 26.9412 9.3C26.8828 9.17917 26.8162 9.06667 26.7453 8.95833C26.6745 8.85 26.5828 8.72917 26.4662 8.5875C26.3495 8.44583 26.2578 8.34167 26.1912 8.26667C26.0495 8.12083 25.9495 8.0125 25.8828 7.94584L25.3037 7.29583C24.9037 6.81667 24.6037 6.44584 24.4037 6.1875C24.1037 5.8 23.8245 5.41667 23.5703 5.0375C23.312 4.65833 23.0745 4.2625 22.8537 3.85833C22.8537 3.7375 22.8787 3.6 22.9287 3.4375C22.9787 3.27917 23.0078 3.1875 23.012 3.16667C23.2578 3.36667 23.5203 3.6125 23.8037 3.90834C23.8578 3.9625 24.012 4.125 24.262 4.4C24.237 4.425 24.2037 4.44167 24.1703 4.44167C24.137 4.44167 24.0787 4.42084 23.9995 4.38334C23.9203 4.34167 23.8578 4.32917 23.8078 4.34167C24.0412 4.7875 24.3953 5.29584 24.8662 5.8625C25.287 6.35 25.7078 6.8375 26.1245 7.32084C26.5995 7.9 26.9495 8.425 27.1745 8.89167H27.1787ZM22.1078 3.2625C22.0828 3.40834 21.9995 3.50417 21.8578 3.55417C21.3703 3.72083 21.0078 3.84583 20.7662 3.925C20.3578 4.07083 20.0078 4.23334 19.7078 4.40417C19.7078 4.2125 19.8162 4.07084 20.037 3.9875C20.2578 3.90417 20.4703 3.825 20.6787 3.75417C21.1537 3.59583 21.6287 3.42917 22.1078 3.2625ZM22.537 4.88334C22.537 4.9625 22.5203 5.04167 22.487 5.11667C22.4537 5.19167 22.4037 5.28333 22.337 5.38333C22.2912 5.4375 22.2245 5.475 22.1412 5.50417C22.0578 5.52917 21.9787 5.54583 21.9078 5.54583C21.8537 5.5375 21.8162 5.5375 21.787 5.5375C21.712 5.47084 21.6787 5.37084 21.6787 5.2375C21.6787 5.15 21.6995 5.0625 21.737 4.97084C21.7787 4.87917 21.812 4.79584 21.8412 4.72084C21.8703 4.64584 21.9245 4.59167 21.9953 4.56667C21.962 4.64584 21.9287 4.72917 21.8995 4.8125C21.8703 4.89584 21.8537 4.975 21.8537 5.04583C21.8537 5.14583 21.8828 5.225 21.9453 5.2875C22.0203 5.2875 22.0912 5.27917 22.162 5.26667C22.2328 5.25417 22.2953 5.20834 22.3578 5.1375C22.3578 5.07084 22.2745 4.98334 22.1078 4.87917C22.0203 4.825 21.9787 4.77917 21.9787 4.7375C21.9787 4.69167 22.0287 4.63334 22.1287 4.56667C22.2412 4.60834 22.3037 4.62917 22.3078 4.6375C22.4162 4.69584 22.4912 4.77917 22.537 4.8875V4.88334ZM20.0787 6.83334C20.0328 6.94584 19.987 7.04167 19.9495 7.1125C19.8912 7.225 19.8287 7.32084 19.7703 7.39167C19.8287 7.28334 19.887 7.15417 19.937 7C19.987 6.84584 20.012 6.70417 20.012 6.57084C20.012 6.45 19.9953 6.34583 19.962 6.25C19.962 6.18333 19.9037 6.05417 19.7912 5.85833C19.7328 5.75 19.6995 5.67083 19.6995 5.61667C19.6995 5.54167 19.737 5.47083 19.8078 5.39583C19.9078 5.55 19.9912 5.7125 20.0537 5.89167C20.1162 6.06667 20.1495 6.24167 20.1495 6.41667C20.1495 6.57084 20.1245 6.70834 20.0787 6.825V6.83334ZM17.1078 3.98333C17.1287 4.01667 17.137 4.05 17.137 4.08334C17.137 4.12917 17.1203 4.19584 17.087 4.27917C17.0537 4.3625 17.037 4.4125 17.037 4.425C17.012 4.49167 16.962 4.525 16.887 4.525C16.8537 4.525 16.8203 4.51667 16.787 4.49584C16.687 4.375 16.637 4.23333 16.637 4.06667C16.637 3.925 16.6662 3.79167 16.7203 3.6625C16.7787 3.53334 16.8495 3.40833 16.937 3.2875C16.8912 3.42083 16.862 3.52083 16.8453 3.5875C16.812 3.7125 16.7953 3.82501 16.7953 3.91667C16.7953 4.03751 16.8328 4.14167 16.9037 4.2375C16.9495 4.22917 16.987 4.19167 17.0203 4.11667C17.0495 4.04167 17.0787 4 17.1037 3.9875L17.1078 3.98333ZM18.8495 7.3125C18.8745 7.63334 18.8912 7.84583 18.8953 7.95417C18.8953 8.0625 18.8995 8.175 18.8995 8.29584C18.8995 8.69584 18.8745 9.05 18.8245 9.35417C18.7745 9.6625 18.6787 9.97917 18.5412 10.3125C18.5662 10.1458 18.587 9.95 18.5995 9.72084C18.612 9.49584 18.6203 9.27917 18.6203 9.07917C18.6203 8.5375 18.5787 7.97084 18.4995 7.37917C18.4578 7.0875 18.3662 6.5375 18.2245 5.73333C18.0828 4.92917 17.9912 4.36667 17.9495 4.0375C17.8578 3.94584 17.8078 3.84584 17.8078 3.7375C17.8078 3.65834 17.8328 3.5625 17.887 3.45834C17.9745 3.30417 18.062 3.15 18.1578 3C18.3328 3.275 18.4828 3.56667 18.612 3.88334C18.7412 4.2 18.8078 4.475 18.8078 4.70834C18.7828 4.64167 18.7245 4.5625 18.637 4.46667C18.5495 4.375 18.487 4.30834 18.4453 4.26667C18.4453 4.63334 18.4995 5.12917 18.6037 5.75834C18.7453 6.57917 18.8245 7.09584 18.8453 7.30834L18.8495 7.3125ZM24.1912 11.6417C23.9787 11.8292 23.7412 11.975 23.4828 12.075C23.2245 12.1792 22.9537 12.2292 22.6745 12.2292C22.5287 12.2292 22.3995 12.2167 22.2953 12.1875C22.1953 12.1333 22.1453 12.0458 22.1453 11.9167C22.1453 11.8583 22.1578 11.8083 22.187 11.775L22.5953 11.3333C22.5203 11.275 22.4537 11.2167 22.387 11.1625C22.4078 11.0542 22.462 10.9583 22.5453 10.8708C22.6037 10.8125 22.6953 10.7458 22.8162 10.6792C22.9953 10.6667 23.087 10.7125 23.087 10.8208C23.0537 10.8625 23.0203 10.9 22.9828 10.9417C22.9453 10.9833 22.912 11 22.8787 11C22.837 11 22.8037 10.9708 22.7703 10.9083C22.712 10.9083 22.6662 10.9208 22.6412 10.95C22.6745 11.0292 22.7245 11.0833 22.7953 11.1042C22.8662 11.1292 22.9453 11.1375 23.0412 11.1375C23.1537 11.0833 23.2662 11.0333 23.3828 10.9875C23.337 11.1 23.1662 11.225 22.8662 11.3583C22.5703 11.4917 22.412 11.6542 22.3912 11.85C22.5495 11.9292 22.7328 11.9708 22.9328 11.9708C23.1537 11.9708 23.4245 11.9125 23.7412 11.8C23.8953 11.7417 24.0495 11.6833 24.1995 11.6292L24.1912 11.6417ZM25.1412 8.5C25.0412 8.70834 24.9453 8.9125 24.8495 9.12083C24.7162 9.3625 24.5328 9.50833 24.2995 9.5625C23.8662 9.78333 23.3412 9.9875 22.7203 10.1708C22.462 10.25 21.9078 10.4 21.062 10.6208C20.4537 10.7958 19.9203 10.9792 19.4537 11.1792C18.9078 11.4125 18.4078 11.6875 17.9537 12.0083C17.8412 12.0875 17.6578 12.2375 17.4037 12.4583C16.9953 12.8167 16.662 13 16.3953 13C16.2953 13 16.2078 12.9875 16.1287 12.9667C16.0537 12.9417 15.9662 12.9 15.8745 12.8417C15.8412 12.7875 15.8162 12.725 15.7953 12.6458C15.7745 12.5708 15.7662 12.4958 15.7662 12.4292C15.7662 12.275 15.8037 12.1167 15.8745 11.95C15.9495 11.7833 16.037 11.625 16.1453 11.4792C16.0787 11.7333 16.0162 11.9875 15.9537 12.2375C15.9537 12.3292 15.9703 12.4125 16.0037 12.4792C16.0453 12.5333 16.0912 12.5708 16.1495 12.5875C16.2078 12.6083 16.2662 12.6167 16.3328 12.6167C16.387 12.6167 16.4578 12.6083 16.5537 12.5958C16.812 12.4417 17.1287 12.2208 17.5037 11.925C17.812 11.6792 18.1287 11.4292 18.4537 11.1792C18.7787 10.9292 19.0953 10.7208 19.4037 10.5542C19.7703 10.3542 20.1245 10.2125 20.462 10.1333C20.5828 10.1125 20.6953 10.0875 20.7953 10.0542C20.8995 10.0208 21.0078 9.975 21.1203 9.9125C20.8745 9.6875 20.6912 9.42083 20.5703 9.12083C20.4495 8.82083 20.3912 8.49583 20.3912 8.15C20.637 7.7625 20.8912 7.45834 21.1495 7.24167C21.4912 6.95 21.8412 6.8 22.1995 6.8C22.5787 6.8 22.9162 6.84584 23.2162 6.94167C23.512 7.03334 23.762 7.2 23.962 7.44167C23.6745 7.35417 23.3703 7.3125 23.0412 7.3125C22.6828 7.3125 22.3203 7.3625 21.962 7.46667C21.6037 7.57083 21.2537 7.70833 20.912 7.88333C20.9037 7.925 20.9037 7.975 20.9037 8.04167C20.9037 8.2625 20.9662 8.47917 21.0953 8.69167C21.187 8.85 21.337 9.03334 21.5453 9.23334C21.6912 9.32084 21.8495 9.38333 22.0162 9.425C22.1828 9.46667 22.3412 9.48333 22.4953 9.48333C22.8828 9.48333 23.337 9.3625 23.8662 9.125C24.2912 8.91667 24.7203 8.70833 25.1453 8.49583L25.1412 8.5ZM16.1203 5.49167C15.9953 5.68334 15.8662 5.875 15.7412 6.0625L15.1328 5.60417C15.2995 5.31667 15.3995 5.15834 15.4328 5.125C15.5203 5.03334 15.6078 4.99167 15.6912 5.00417C15.7828 5.07917 15.887 5.15417 15.9953 5.22917C16.1037 5.30417 16.1453 5.39584 16.1203 5.49584V5.49167ZM14.3412 3.62084C14.3203 3.69584 14.3037 3.75 14.287 3.79167C14.2703 3.83334 14.237 3.85 14.1912 3.85C14.1662 3.85 14.1287 3.83333 14.0828 3.8C13.862 3.83333 13.7328 4.03334 13.6995 4.39584C13.662 4.75834 13.6203 4.97917 13.5745 5.05C13.5078 4.99167 13.4495 4.89583 13.3953 4.77083C13.2495 4.39583 13.1703 4.20834 13.1662 4.2L13.0953 4.29167C13.0953 4.29167 13.037 4.25417 12.9412 4.19584C12.8453 4.1375 12.7912 4.07917 12.7745 4.02084C12.787 3.90834 12.8037 3.8125 12.8245 3.7375C12.8453 3.6625 12.8995 3.6125 12.9828 3.59167C13.0912 3.66667 13.1828 3.78334 13.262 3.94167C13.362 4.1875 13.4662 4.43334 13.5703 4.67084C13.6037 4.44584 13.637 4.21667 13.6703 3.99167C13.737 3.7375 13.8662 3.56667 14.062 3.48333C14.1745 3.48333 14.2703 3.52917 14.3412 3.625V3.62084ZM13.3203 7.44167C13.3328 7.52083 13.3287 7.59167 13.312 7.65834C13.2912 7.72084 13.2537 7.8125 13.2037 7.93334C13.1495 7.96667 13.0995 7.98334 13.0537 7.98334C12.9995 7.98334 12.962 7.95834 12.9328 7.9125C12.8662 7.80417 12.8328 7.6875 12.8328 7.5625C12.8328 7.45001 12.862 7.31667 12.9245 7.1625C12.9662 7.07084 13.0287 6.9375 13.1162 6.77083C13.062 6.925 13.0245 7.05 12.9953 7.15C12.9703 7.25 12.9537 7.325 12.9537 7.37917C12.9537 7.50417 12.9953 7.60833 13.0745 7.6875C13.1495 7.72083 13.1995 7.70417 13.2287 7.6375C13.2578 7.57084 13.2912 7.50417 13.3245 7.4375L13.3203 7.44167ZM17.4787 9.42083C17.537 9.2625 17.5703 9.07917 17.5703 8.87917C17.5703 8.49167 17.4703 8.1625 17.2703 7.8875C17.1037 7.66667 16.9537 7.50417 16.8203 7.39583C16.6328 7.25 16.4412 7.175 16.2412 7.175C16.1537 7.175 16.0703 7.1875 15.9912 7.21667C15.7037 7.39584 15.4828 7.62917 15.3203 7.91667C15.162 8.20417 15.0787 8.50834 15.0787 8.825C15.1578 9.01667 15.2662 9.15 15.3995 9.21667C15.5328 9.28333 15.6912 9.31667 15.8703 9.31667C15.9495 9.31667 16.062 9.30833 16.212 9.29583C16.3578 9.28333 16.4703 9.275 16.5412 9.275C16.6537 9.275 16.7662 9.29167 16.8828 9.32083C16.9953 9.35 17.0912 9.39584 17.162 9.45417C17.0745 9.60834 16.8745 9.75417 16.562 9.89583C16.3745 9.975 16.2412 10.0417 16.162 10.0958C15.462 10.3375 15.0037 10.4875 14.7828 10.5542C14.237 10.7125 13.737 10.825 13.2828 10.8833C13.0245 10.9083 12.8537 10.925 12.7745 10.9292C12.6953 10.9292 12.6078 10.9333 12.5162 10.9333C12.1162 10.9333 11.762 10.8792 11.4578 10.775C11.0995 10.65 10.7828 10.4458 10.5078 10.1667C10.4203 10.0792 10.362 9.9875 10.3287 9.89167C10.2953 9.79584 10.2787 9.69583 10.2787 9.59583C10.2787 9.4375 10.3328 9.22917 10.437 8.975C10.5245 8.7875 10.612 8.6 10.6953 8.40417C10.962 8.40417 11.137 8.20417 11.2245 7.80417C11.2828 7.52917 11.3287 7.36667 11.3537 7.3125C11.2662 7.4375 11.212 7.51667 11.1828 7.54167C11.1037 7.62084 11.012 7.65 10.912 7.63334C10.7995 7.5125 10.7162 7.39583 10.6662 7.28333C10.6162 7.17083 10.5912 7.05417 10.5912 6.93333C10.5912 6.725 10.687 6.46667 10.8828 6.15417C11.3703 5.375 11.6245 4.94583 11.6412 4.875C11.3203 5.12917 11.0453 5.4625 10.812 5.875C10.6578 6.14167 10.4828 6.53334 10.2828 7.04584C10.262 7.19167 10.2495 7.2875 10.2495 7.32917C10.2495 7.37083 10.2453 7.43333 10.2453 7.5125C10.2453 7.69167 10.2703 7.85417 10.3203 8.00417C10.3703 8.15 10.4578 8.275 10.587 8.375C10.3662 8.79584 10.2287 9.06667 10.1787 9.19584C10.0578 9.4875 9.99951 9.77083 9.99951 10.0375C9.99951 10.1458 10.012 10.2667 10.0412 10.4042C10.0662 10.5417 10.1078 10.6667 10.162 10.7792C10.3953 11.1042 10.7078 11.3458 11.1037 11.5C11.4495 11.6333 11.8537 11.7 12.312 11.7C12.5453 11.7 12.8078 11.6792 13.0953 11.6333C13.387 11.5917 13.6495 11.5375 13.8912 11.4792C14.3245 11.3333 15.0162 11.1167 15.962 10.8292C16.7287 10.5083 17.237 10.0375 17.4912 9.42083H17.4787ZM13.7578 8.57084C13.7787 8.60417 13.787 8.63334 13.787 8.6625C13.787 8.69584 13.762 8.75417 13.7162 8.83333C13.4745 8.83333 13.3287 9.00417 13.2745 9.34167C13.2203 9.68333 13.1662 9.88334 13.1037 9.95C13.0162 9.90417 12.9162 9.75833 12.7995 9.51667C12.6828 9.275 12.5328 9.15 12.3537 9.15C12.312 9.11667 12.2953 9.075 12.2953 9.02917C12.2953 9.00417 12.3162 8.94167 12.3537 8.85C12.3745 8.80417 12.3828 8.7625 12.3828 8.72917C12.3953 8.69583 12.4162 8.68334 12.4495 8.6875C12.4787 8.69584 12.512 8.70001 12.5453 8.70834C12.6328 8.78334 12.712 8.88333 12.787 9.01667C12.8953 9.21667 12.9995 9.4125 13.1078 9.60833C13.1828 9.30833 13.237 9.08333 13.2787 8.9375C13.3578 8.6625 13.5203 8.54167 13.7578 8.56667V8.57084ZM16.7495 8.47917C16.5953 8.3125 16.4662 8.1875 16.3578 8.10834C16.1828 7.9875 16.012 7.92917 15.837 7.92917C15.7245 7.95 15.637 8.00417 15.5787 8.0875C15.5578 8.12084 15.5495 8.15417 15.5495 8.1875C15.5495 8.25417 15.5828 8.30417 15.6495 8.3375C15.8078 8.49167 16.0328 8.56667 16.3203 8.56667C16.487 8.56667 16.6287 8.5375 16.7495 8.475V8.47917Z" fill="currentColor"/>
<path d="M30.0557 5.30927C30.0592 5.31048 30.0626 5.31156 30.0661 5.31252L30.0578 5.31668C30.0571 5.31421 30.0564 5.31174 30.0557 5.30927C29.9838 5.28425 29.9077 5.2058 29.8203 5.06669C29.7286 4.92502 29.6578 4.85002 29.6036 4.85002C29.5578 4.85002 29.5078 4.87502 29.4536 4.92919C29.4536 5.25419 29.5078 5.77085 29.6119 6.47085C29.7203 7.17085 29.7953 7.70419 29.7703 8.07085L29.7119 10.1042C29.6703 10.4584 29.5911 10.8084 29.4703 11.1542C29.5369 10.8959 29.5703 10.5834 29.5703 10.225C29.5703 9.97919 29.5578 9.70835 29.5286 9.40835C29.5036 9.11252 29.4828 8.88752 29.4703 8.73336L28.9703 3.93335L29.0453 3.37085C29.1494 3.22085 29.2119 3.12086 29.2286 3.07502C29.3828 3.36252 29.5369 3.72502 29.6994 4.16669C29.8195 4.51049 29.9397 4.89135 30.0557 5.30927Z" fill="currentColor"/>
</svg>
