<svg width="40" height="16" viewBox="0 0 40 16" fill="none" xmlns="http://www.w3.org/2000/svg">
<path fill-rule="evenodd" clip-rule="evenodd" d="M26.0613 4.26049L26.0177 4.30412C25.9828 4.28231 25.9479 4.25612 25.9173 4.22558C25.8868 4.19504 25.8562 4.16014 25.8301 4.12523C25.5726 4.55719 25.1276 4.9586 24.4993 5.32947C24.1939 5.51273 23.8841 5.69162 23.5786 5.87487C24.2898 5.28148 25.0054 4.68372 25.7253 4.08596C25.6992 4.05106 25.625 4.00306 25.5115 3.93762C25.3981 3.87653 25.3239 3.80236 25.2977 3.71946C25.3239 3.59292 25.385 3.47511 25.481 3.3704C25.577 3.26132 25.6817 3.1915 25.7995 3.1566C25.8431 3.1566 25.8824 3.17405 25.926 3.21332C25.9697 3.25259 26.0002 3.29622 26.022 3.34422C26.0133 3.37913 26.0133 3.43148 26.0133 3.5013C26.0133 3.56238 26.0308 3.68891 26.0657 3.87653C26.0788 3.95507 26.0875 4.02488 26.0875 4.09469C26.0875 4.12087 26.0788 4.17759 26.0657 4.26049H26.0613ZM24.1459 4.18632C24.1459 4.18632 24.111 4.22995 24.0891 4.26922C24.063 4.31285 24.0368 4.3303 24.0106 4.3303C23.9408 4.26922 23.9059 4.18195 23.9059 4.06851C23.9059 3.9987 23.919 3.90707 23.9408 3.78926C23.967 3.67582 23.9757 3.61473 23.9757 3.60601C23.9146 3.75436 23.8666 3.88089 23.8361 3.99433C23.8055 4.10778 23.7881 4.22994 23.7881 4.36084C23.8012 4.41756 23.823 4.47429 23.8579 4.53537C23.8884 4.59646 23.9495 4.61391 24.0411 4.5921C24.0848 4.51356 24.111 4.44374 24.1284 4.38266C24.1459 4.32157 24.1502 4.25177 24.1459 4.18195V4.18632ZM22.8369 3.24386C22.8107 3.34858 22.7933 3.44894 22.7933 3.54929V3.67582C22.7933 3.74563 22.7889 3.80672 22.7758 3.85907C22.7671 3.91143 22.7409 3.97252 22.706 4.04233C22.658 4.00742 22.6187 3.98997 22.5926 3.98997C22.5446 3.98997 22.4791 4.04669 22.4006 4.1645C22.322 4.27794 22.2479 4.34775 22.1868 4.36957C21.9643 4.53537 21.7417 4.70118 21.5279 4.86261C21.2574 5.05023 21.0698 5.12441 20.9738 5.08077C21.5759 4.65318 21.8901 4.42629 21.925 4.40011C22.1344 4.23431 22.3046 4.05978 22.4398 3.88525C22.3613 3.82853 22.3089 3.78927 22.274 3.75872C22.2042 3.702 22.1606 3.64091 22.1475 3.5711C22.1824 3.42275 22.2348 3.30059 22.3002 3.20023C22.3657 3.09988 22.4617 3.03443 22.5882 3.00825C22.658 2.98643 22.7147 3.00825 22.754 3.06934C22.7758 3.09551 22.802 3.1566 22.8369 3.24823V3.24386ZM24.5124 6.55117C24.5124 6.67771 24.5036 6.77806 24.4818 6.8566C24.46 6.93513 24.412 6.99622 24.3335 7.04422C24.2069 7.04422 24.1284 6.99186 24.0935 6.88714C24.0848 6.86096 24.0848 6.81297 24.0848 6.75188C24.0848 6.54245 24.1415 6.34611 24.2506 6.16722C24.2593 6.21521 24.2506 6.28939 24.22 6.38538C24.1939 6.48137 24.1764 6.54681 24.1764 6.57299C24.1764 6.66462 24.22 6.7257 24.3029 6.76061L24.5124 6.55117ZM20.9956 4.26922C20.9476 4.18632 20.8647 4.10778 20.7426 4.03797C20.6815 4.00306 20.5855 3.94634 20.4589 3.87216L20.1535 4.29976C20.0968 4.36084 20.0706 4.42193 20.0706 4.47865C20.0706 4.55719 20.1579 4.63136 20.3324 4.7099C20.5069 4.78844 20.6117 4.85389 20.6466 4.91061C20.76 4.70118 20.8735 4.48738 20.9913 4.27358L20.9956 4.26922ZM27.4139 11.2634C27.3703 11.3333 27.3179 11.438 27.2481 11.5732C27.1783 11.7085 27.1172 11.8176 27.0605 11.8917C26.8423 11.787 26.6285 11.6867 26.4104 11.5863C26.4104 11.4598 26.4671 11.3202 26.5762 11.1674C26.6329 11.0889 26.6896 11.0104 26.7551 10.9275C26.9907 10.9711 27.2132 11.0802 27.4139 11.2634ZM26.3231 11.5034L25.9348 12.1535C25.8562 12.1099 25.7602 12.075 25.6468 12.0401C25.5334 12.0052 25.4374 11.9921 25.3676 11.9965C25.3326 11.883 25.3588 11.7608 25.4417 11.6212C25.4854 11.5427 25.5683 11.4336 25.6948 11.2853C25.8082 11.3114 25.913 11.3463 26.0133 11.3856C26.1137 11.4249 26.2184 11.4641 26.3231 11.5078V11.5034ZM26.6678 8.42299C26.6809 8.34009 26.6896 8.27901 26.6896 8.2441C26.6896 8.10448 26.5936 7.8165 26.3973 7.38455C26.3144 7.19693 26.2707 7.03113 26.2707 6.8915C26.2707 6.83042 26.2707 6.78242 26.2795 6.75624C26.3755 6.82606 26.454 6.83915 26.5107 6.79988C26.454 6.63844 26.3755 6.48136 26.2707 6.32865C26.166 6.17594 26.0613 6.02323 25.9566 5.86615C25.878 5.92724 25.8039 6.06686 25.7253 6.2763C25.6773 6.40719 25.6424 6.49882 25.6206 6.54681C25.6904 6.86969 25.7864 7.1882 25.913 7.51108C26.0089 7.76414 26.1486 8.06521 26.3231 8.42299C26.31 8.57571 26.1922 8.7066 25.9784 8.81132C25.7908 8.88986 25.6032 8.95967 25.4112 9.02948C25.3676 8.86368 25.2716 8.69787 25.1189 8.53643C25.0054 8.41863 24.8614 8.29209 24.6782 8.1612C24.5385 8.06521 24.3597 8.01285 24.1459 8.01285C23.9801 8.01285 23.8361 8.05212 23.7183 8.12629C23.5917 8.30082 23.4957 8.48407 23.4259 8.67169C23.3561 8.85931 23.3212 9.04693 23.3212 9.22582C23.3212 9.44398 23.3692 9.63596 23.4696 9.81049C23.6572 9.94139 23.8972 10.0112 24.1939 10.0112C24.5167 9.97629 24.8352 9.93702 25.1581 9.89775V9.98065C24.6564 10.5391 24.172 10.9886 23.7008 11.3333C23.151 11.739 22.5838 12.0314 22.0035 12.2146C21.8988 12.2364 21.7941 12.2452 21.6894 12.2452C21.5148 12.2452 21.349 12.2146 21.1963 12.1492C21.0436 12.0881 20.9084 11.9877 20.7993 11.8568C20.6815 11.691 20.6204 11.499 20.6204 11.2809C20.6204 11.1151 20.6727 10.8838 20.7775 10.5915C20.9084 10.2294 20.9825 10.0112 20.9956 9.94139C20.7775 10.369 20.6378 10.6613 20.5768 10.8228C20.4459 11.1631 20.376 11.4816 20.376 11.7739C20.376 12.0663 20.4546 12.363 20.616 12.6204C20.7207 12.7338 20.8342 12.8167 20.9564 12.8735C21.0785 12.9302 21.2181 12.9695 21.3709 13C21.733 13 22.1126 12.9171 22.5009 12.7469C22.8282 12.6073 23.1641 12.4066 23.5045 12.1492C23.8099 11.9266 24.1153 11.6649 24.4164 11.3638C24.6171 11.1631 24.892 10.862 25.2323 10.465L25.5246 9.75377C25.5944 9.68395 25.6904 9.61851 25.8082 9.55306C25.8693 9.52688 25.9828 9.47453 26.1486 9.40471C26.3144 9.3349 26.4365 9.19528 26.5194 8.98584C26.5456 8.91603 26.598 8.72841 26.6678 8.41863V8.42299ZM17.4309 4.16014C17.4396 4.23867 17.4309 4.32594 17.4003 4.43065C17.3742 4.53537 17.3305 4.62264 17.2782 4.69681C17.2258 4.77098 17.1516 4.80589 17.0513 4.80589C17.0295 4.80589 16.9989 4.79716 16.9553 4.78407C16.8986 4.66627 16.8724 4.53101 16.8724 4.38703C16.8724 4.24304 16.9029 4.07724 16.9684 3.89398C17.0033 3.80235 17.0687 3.65401 17.1691 3.44457C17.108 3.702 17.0426 3.95943 16.9815 4.20813C16.9815 4.33467 17.0207 4.44811 17.0949 4.55282C17.1996 4.53973 17.2782 4.47865 17.3262 4.37394C17.3393 4.31721 17.3523 4.26922 17.3611 4.23431C17.3698 4.19504 17.396 4.16887 17.4309 4.15578V4.16014ZM18.9406 6.0145C18.9536 6.0974 18.9624 6.1454 18.9624 6.16285C18.9624 6.24139 18.9275 6.2763 18.8576 6.2763C18.7529 6.25448 18.6744 6.24575 18.6264 6.24575C18.5348 6.24575 18.4781 6.30247 18.4606 6.41155C18.4344 6.48137 18.4082 6.63844 18.3821 6.88714C18.3559 7.13584 18.3035 7.30165 18.2206 7.38455C18.1639 7.30601 18.1072 7.21002 18.0548 7.09221C17.9065 6.76497 17.8236 6.58608 17.8018 6.5599C17.7887 6.60353 17.7581 6.62971 17.7145 6.6428C17.6709 6.65589 17.6229 6.65153 17.5749 6.63407C17.4963 6.59044 17.4614 6.52936 17.4614 6.44646C17.4614 6.39846 17.4745 6.34174 17.5051 6.27193C17.5312 6.20648 17.5487 6.15849 17.5574 6.13231C17.5836 6.10613 17.6185 6.08867 17.6621 6.08867C17.6883 6.08867 17.7232 6.0974 17.7581 6.11922C17.841 6.19776 17.9152 6.29811 17.9763 6.42464C18.0679 6.62535 18.1595 6.82606 18.2468 7.0224C18.2817 6.94386 18.3166 6.7737 18.3559 6.50318C18.3951 6.23266 18.4955 6.04941 18.6526 5.95342C18.7922 5.95342 18.8882 5.97523 18.9449 6.0145H18.9406ZM22.5009 10.7355C22.4791 10.8838 22.4617 10.9798 22.4486 11.0278C22.4137 11.1456 22.3482 11.2285 22.2479 11.2809C22.1999 11.294 22.1519 11.2765 22.1082 11.2242C22.0646 11.1718 22.0297 11.1194 22.0079 11.0627C21.9948 10.91 22.021 10.7529 22.0864 10.5959C22.1519 10.4388 22.2217 10.2861 22.2915 10.1421C22.2915 10.1857 22.2653 10.273 22.2086 10.4126C22.1519 10.5522 22.1257 10.6657 22.1257 10.7486C22.1257 10.8751 22.1911 10.958 22.3264 11.0016C22.3526 10.9798 22.3831 10.9406 22.4137 10.8795C22.4442 10.8184 22.4747 10.7748 22.5009 10.7399V10.7355ZM15.2755 3.62346C15.2536 3.6671 15.2056 3.68455 15.1271 3.68455C15.0006 3.68455 14.922 3.69327 14.8915 3.71509C14.861 3.7369 14.8391 3.7849 14.8217 3.86344C14.8217 4.04669 14.8042 4.22995 14.7693 4.41756C14.7606 4.44374 14.7213 4.627 14.6428 4.96297C14.573 4.89315 14.4639 4.71863 14.3199 4.43938C14.2501 4.30849 14.1759 4.1994 14.1018 4.1165C14.0887 4.16013 14.0668 4.17759 14.0407 4.17759C13.9447 4.12087 13.8705 4.09469 13.8225 4.09469C13.7789 4.03797 13.7614 3.97252 13.7614 3.89398C13.7614 3.82417 13.7701 3.77181 13.7832 3.73254C13.7963 3.69328 13.8225 3.64091 13.8574 3.5711L13.888 3.54056C14.0407 3.6191 14.1934 3.78927 14.3505 4.05979C14.5032 4.3303 14.621 4.47865 14.6951 4.51356C14.6951 4.22122 14.7126 3.98561 14.7519 3.81108C14.7911 3.63655 14.8784 3.4882 15.018 3.36167C15.0878 3.36167 15.1576 3.37476 15.2231 3.39658C15.2885 3.42275 15.3235 3.46202 15.3235 3.51875C15.3235 3.55365 15.3104 3.58856 15.2798 3.62346H15.2755ZM15.162 5.39493C15.1882 5.4211 15.1926 5.47346 15.1664 5.54327C15.1402 5.61308 15.1315 5.65672 15.1315 5.67853C14.8959 5.70035 14.6951 5.72216 14.5381 5.75271C14.381 5.77888 14.2501 5.85742 14.1454 5.98395C14.1803 6.15848 14.2414 6.38538 14.3243 6.66462C14.4421 7.05731 14.5119 7.28419 14.5293 7.34964C14.5468 7.41509 14.573 7.51981 14.6035 7.65943C14.6341 7.79905 14.6515 7.9474 14.6515 8.10011C14.6515 8.31827 14.6079 8.54079 14.525 8.77204C14.5686 8.62369 14.5861 8.48844 14.5861 8.36191C14.5861 8.17865 14.5555 7.99103 14.4901 7.79469C14.477 7.74669 14.4028 7.5678 14.2719 7.26238C14.189 7.07476 14.1236 6.90459 14.0843 6.76061C14.0407 6.61226 14.0232 6.45954 14.0232 6.29811C14.0232 6.18466 14.0319 6.08867 14.0494 6.00577C14.0668 5.92287 14.1018 5.82688 14.1497 5.72217C14.2326 5.63054 14.3243 5.56945 14.4203 5.53454C14.5163 5.49964 14.6559 5.4691 14.8304 5.43855C14.7519 5.34693 14.6602 5.3033 14.5468 5.3033C14.4901 5.3033 14.4246 5.32947 14.3461 5.37747C14.2981 5.42546 14.2676 5.44728 14.2632 5.43855C14.2763 5.32075 14.3068 5.22476 14.3505 5.15059C14.3941 5.07641 14.4683 5.03714 14.5643 5.02842C14.6821 5.02842 14.7911 5.06332 14.8871 5.12877C14.9831 5.19422 15.0747 5.28585 15.1576 5.39493H15.162ZM22.4398 8.74587C22.4398 8.94221 22.3831 9.1211 22.274 9.29127C22.1606 9.45707 22.0035 9.58797 21.8028 9.67523C21.6021 9.7625 21.3621 9.80613 21.0916 9.80613C20.7556 9.80613 20.4677 9.73631 20.2233 9.59669C20.1972 9.56178 20.1492 9.50943 20.0881 9.43962C20.027 9.36981 19.9877 9.31309 19.9746 9.27382C19.9179 9.40471 19.8568 9.53997 19.7914 9.67523C19.7259 9.81049 19.6256 9.90648 19.499 9.9632C19.3681 10.0199 19.2285 10.0461 19.0758 10.0461C18.9231 10.0461 18.766 10.0025 18.6264 9.91957C18.5566 9.89339 18.5042 9.8323 18.4737 9.74068C18.4431 9.64905 18.417 9.56179 18.3951 9.47889C18.1639 9.76686 17.8759 9.90648 17.5269 9.90648C17.4571 9.90648 17.4047 9.90648 17.3698 9.89775C17.2651 10.2119 17.1604 10.5217 17.0556 10.8315C16.9029 11.1805 16.6717 11.4249 16.3663 11.5645C15.7467 11.9354 15.2231 12.2103 14.7955 12.3935C14.1585 12.664 13.5869 12.8036 13.0764 12.8036C12.7884 12.8036 12.5223 12.7687 12.2736 12.6946C12.0249 12.6204 11.7762 12.4982 11.5231 12.3237C11.3486 12.171 11.2177 11.9921 11.1304 11.7958C11.0431 11.595 10.9995 11.3769 10.9995 11.1413V11.006C11.0126 10.9362 11.0213 10.8882 11.0213 10.8577C11.1042 10.1857 11.3224 9.56615 11.6714 8.99457C11.5885 9.24764 11.5056 9.49198 11.4184 9.73632C11.3224 10.0636 11.27 10.3428 11.27 10.5741C11.27 10.9013 11.3617 11.1805 11.5493 11.4074C11.7325 11.6343 11.9594 11.7957 12.2212 11.8961C12.483 11.9921 12.7753 12.0444 13.0939 12.0444C13.3731 12.0444 13.648 12.0139 13.9229 11.9572C14.1934 11.8961 14.4595 11.8176 14.717 11.7216C15.3016 11.4641 15.6987 11.2809 15.8994 11.1762C16.3183 10.9537 16.6804 10.6962 16.9902 10.3995C16.9902 10.2512 16.9378 10.0374 16.8331 9.7494C16.7284 9.46143 16.6673 9.26073 16.6542 9.14292L16.9378 8.48408C16.964 8.64552 17.012 8.78513 17.0775 8.90294C17.1429 9.02075 17.2433 9.10365 17.3742 9.14292C17.4178 9.15601 17.4614 9.1691 17.5094 9.17346C17.5574 9.18219 17.6054 9.18219 17.6447 9.18219C17.8672 9.18219 18.0985 9.09056 18.3341 8.91167C18.4039 8.86367 18.5304 8.75459 18.7093 8.58879C18.6831 8.71969 18.6569 8.85058 18.6351 8.97712C18.6351 9.06874 18.6526 9.12983 18.6875 9.16474C18.7224 9.19964 18.7791 9.22582 18.8533 9.24764C18.9318 9.29563 19.0278 9.32181 19.1456 9.32181C19.2154 9.32181 19.2852 9.31308 19.3551 9.29127C19.4249 9.26945 19.5034 9.23891 19.5907 9.19528C19.6779 9.15164 19.7565 9.06874 19.8263 8.94221C19.9921 8.62806 20.0968 8.4579 20.1404 8.42735C20.1186 8.47099 20.1099 8.51025 20.1099 8.55388C20.1099 8.62369 20.1404 8.69351 20.2059 8.76332C20.2495 8.80695 20.3106 8.85495 20.3935 8.91167C20.5898 9.00766 20.8167 9.06002 21.0742 9.06002C21.5367 9.06002 21.9163 8.91603 22.2173 8.63242C21.9163 8.06084 21.7243 7.68125 21.6414 7.48927C21.445 7.0704 21.3054 6.66462 21.2225 6.2763C21.1614 6.19776 21.1265 6.11922 21.1265 6.03632C21.1265 5.95342 21.1527 5.85742 21.2051 5.74834C21.2574 5.63926 21.3098 5.53455 21.3578 5.42983C21.4756 5.50837 21.5934 5.63926 21.7155 5.82688C21.7985 5.97959 21.8857 6.13231 21.9773 6.2763C21.9424 6.31993 21.8857 6.3461 21.8028 6.35919C21.7243 6.37228 21.6806 6.39846 21.6806 6.43336C21.6806 6.45518 21.6981 6.49882 21.733 6.56863C21.733 6.57736 21.9206 6.94386 22.3002 7.67688C22.4311 7.93431 22.5009 8.16992 22.5009 8.37936C22.5009 8.4928 22.4791 8.61497 22.4398 8.75459V8.74587ZM19.7608 11.0496C19.7608 11.0496 19.6997 11.1195 19.6387 11.2373C19.5776 11.3551 19.499 11.39 19.4031 11.342V11.102C19.3681 11.1282 19.3376 11.1805 19.3071 11.2503C19.2503 11.3987 19.2023 11.486 19.1587 11.5121C19.1151 11.5383 19.0758 11.5558 19.0322 11.5558C18.9056 11.5558 18.8053 11.5034 18.7268 11.3987C18.5173 11.4205 18.2992 11.4947 18.0766 11.6169C17.9152 11.7128 17.7232 11.8525 17.5007 12.027C17.2084 12.2626 17.0164 12.4153 16.9247 12.4764C16.7022 12.6378 16.4972 12.7469 16.3052 12.8124C16.5059 12.8124 16.7153 12.7557 16.9247 12.6466C17.0644 12.568 17.2476 12.4502 17.4701 12.2888C17.7756 12.0663 17.9632 11.9354 18.0243 11.9005C18.225 11.7739 18.4213 11.691 18.6089 11.6474C18.67 11.7652 18.7573 11.8263 18.862 11.8263C18.9187 11.8263 19.0104 11.7914 19.1456 11.7259C19.2765 11.6605 19.3725 11.6256 19.4292 11.6256C19.547 11.5907 19.6299 11.5078 19.6823 11.3725C19.6823 11.3638 19.7085 11.2591 19.7565 11.0496H19.7608ZM15.4674 9.4178C15.4413 9.47889 15.4151 9.53561 15.3976 9.5836C15.3802 9.6316 15.354 9.66214 15.3191 9.67959C15.2144 9.60978 15.162 9.51379 15.162 9.39599C15.162 9.33926 15.1795 9.24764 15.21 9.12547C15.2405 9.0033 15.2536 8.91167 15.2449 8.86367C15.1882 9.0033 15.1446 9.12983 15.114 9.23891C15.0835 9.34799 15.066 9.46579 15.066 9.5836C15.066 9.65341 15.0704 9.7145 15.0835 9.76686C15.0922 9.81922 15.1271 9.86721 15.1882 9.91521C15.2493 9.95884 15.306 9.9632 15.3627 9.91957C15.4107 9.80176 15.4456 9.70141 15.4674 9.62724C15.4893 9.5487 15.4893 9.47889 15.4674 9.4178ZM12.4917 7.86886C12.4437 7.88195 12.3914 7.92994 12.339 8.00848C12.2867 8.08702 12.243 8.13938 12.2038 8.1612C12.1645 8.18301 12.1339 8.19174 12.1034 8.19174C12.0205 8.19174 11.9376 8.14374 11.8503 8.04339C11.7674 7.81214 11.7238 7.58525 11.7238 7.36273C11.7238 7.05731 11.7893 6.71697 11.9245 6.3461C12.0554 5.97523 12.1863 5.62181 12.3128 5.29021C12.0249 5.82688 11.8285 6.24575 11.7151 6.54681C11.5275 7.04422 11.4315 7.49362 11.4315 7.8994C11.4315 8.15247 11.4664 8.39681 11.5362 8.63242C11.5624 8.72405 11.6147 8.7895 11.6889 8.83313C11.7631 8.87676 11.8503 8.9073 11.9551 8.92912C12.1558 8.8724 12.291 8.72841 12.3521 8.48844C12.387 8.35754 12.4306 8.14811 12.4874 7.86886H12.4917ZM13.4342 9.44834C13.408 9.48325 13.3775 9.53561 13.3513 9.60979C13.3251 9.68396 13.2946 9.73632 13.2684 9.77122C13.1898 9.7145 13.1549 9.64469 13.1549 9.56179C13.1549 9.52688 13.1724 9.44834 13.2117 9.32617C13.2509 9.204 13.2684 9.11238 13.2684 9.04693C13.1768 9.25636 13.1331 9.36544 13.1331 9.36981C13.0851 9.5007 13.0589 9.61851 13.0589 9.7145C13.0589 9.8323 13.0851 9.93266 13.1418 10.0199C13.2117 10.0461 13.2815 10.0199 13.3513 9.93703C13.3862 9.85413 13.4124 9.78431 13.4298 9.73196C13.4473 9.6796 13.456 9.62723 13.456 9.57051C13.456 9.51379 13.4473 9.47452 13.4342 9.44398V9.44834ZM25.8431 3.74999V3.62346C25.8431 3.51002 25.7908 3.45766 25.6861 3.45766C25.6032 3.45766 25.5464 3.49257 25.5203 3.56238C25.5464 3.59729 25.6032 3.63219 25.6817 3.66273C25.7602 3.69327 25.817 3.72382 25.8431 3.74999ZM22.6493 3.5711V3.42275C22.6493 3.33985 22.6013 3.29622 22.5009 3.29622C22.4224 3.29622 22.3875 3.33113 22.3875 3.40094C22.466 3.52747 22.5533 3.58419 22.6493 3.56674V3.5711ZM24.7654 9.18219C24.6956 9.19528 24.6171 9.20837 24.5342 9.22582C24.4513 9.23891 24.3727 9.24764 24.3029 9.24764C24.1764 9.24764 24.063 9.23455 23.9626 9.204C23.8622 9.17782 23.7706 9.12547 23.6964 9.04693C23.6485 8.98584 23.6441 8.92476 23.6877 8.86804C23.7314 8.79822 23.8055 8.76332 23.919 8.76332C23.9801 8.76332 24.0717 8.77205 24.1895 8.78514C24.3902 8.88113 24.5822 9.01638 24.7654 9.18219Z" fill="currentColor"/>
</svg>
