<svg width="40" height="16" viewBox="0 0 40 16" fill="none" xmlns="http://www.w3.org/2000/svg">
<path fill-rule="evenodd" clip-rule="evenodd" d="M23.7549 4.12313C23.7092 4.09817 23.6592 4.08153 23.6052 4.08153C23.5178 4.08153 23.4305 4.13977 23.3473 4.2604C23.106 4.59318 22.9729 4.76788 22.9396 4.78868C22.7399 4.95507 22.532 5.12146 22.3115 5.28369C22.091 5.44592 21.8872 5.57488 21.6917 5.66639C21.9995 5.41265 22.3073 5.1589 22.6193 4.89684C22.977 4.57654 23.2474 4.27704 23.4263 3.99833C23.4013 3.97337 23.3223 3.9193 23.1934 3.84443C23.0644 3.76955 22.9854 3.68636 22.9604 3.599C22.9854 3.45341 23.0353 3.32445 23.1102 3.2163C23.185 3.10815 23.2849 3.03328 23.4097 3C23.4845 3 23.5428 3.02496 23.5844 3.07904C23.626 3.13311 23.6634 3.20383 23.6884 3.28702C23.6759 3.32862 23.6676 3.37853 23.6676 3.43677C23.6676 3.5158 23.6967 3.60317 23.7591 3.69468C23.8173 3.78619 23.8506 3.85691 23.8506 3.90267C23.8506 3.9609 23.8215 4.03162 23.7591 4.11065L23.7549 4.12313ZM21.2674 3.88186C21.2882 3.92346 21.2965 3.9609 21.2965 4.0025C21.2965 4.06073 21.2757 4.12729 21.2383 4.19384C21.1967 4.2604 21.1592 4.32279 21.1176 4.38519C21.0636 4.39766 21.0095 4.41015 20.9596 4.42679C20.9388 4.42679 20.9138 4.41846 20.8805 4.39766C20.789 4.28535 20.7391 4.15641 20.7391 4.01914C20.7391 3.88187 20.7807 3.71963 20.8681 3.51997C21.0095 3.20799 21.076 3.04576 21.076 3.0416C21.0844 3.0624 21.0844 3.09567 21.0844 3.14143C21.0844 3.22046 21.0677 3.30782 21.0345 3.39933C20.9471 3.64475 20.9055 3.79034 20.9055 3.84026C20.9055 3.94841 20.9513 4.04409 21.0469 4.13145L21.2674 3.89019V3.88186ZM19.8988 3.41181C19.878 3.51996 19.8656 3.57821 19.8572 3.59069C19.8323 3.66556 19.7865 3.68635 19.7283 3.6614C19.7033 3.62812 19.6659 3.60316 19.6201 3.58652C19.5744 3.56988 19.512 3.55324 19.4288 3.54076C19.3498 3.64059 19.2998 3.78618 19.279 3.98169C19.2333 4.38102 19.1667 4.62229 19.0794 4.70133L18.5303 3.78203C18.5178 3.85691 18.4804 3.89019 18.4221 3.89019C18.4097 3.89019 18.3805 3.88186 18.3431 3.86938C18.3015 3.8569 18.2682 3.84442 18.235 3.82778C18.2017 3.76123 18.185 3.69468 18.185 3.62812C18.185 3.49501 18.2266 3.37021 18.3057 3.2579C18.4929 3.30366 18.6509 3.43677 18.784 3.65723C18.8922 3.84858 18.9962 4.03994 19.1043 4.22713C19.1376 4.05242 19.1751 3.8777 19.2125 3.69883C19.2666 3.50748 19.3456 3.35774 19.4538 3.24959C19.4787 3.24127 19.5161 3.24126 19.5619 3.24126C19.6742 3.24126 19.7865 3.2995 19.903 3.41181H19.8988ZM16.9454 4.0025C16.9579 4.04825 16.9454 4.12313 16.9038 4.22296C16.8622 4.3228 16.8414 4.38103 16.8331 4.39351C16.8082 4.41431 16.7749 4.43927 16.7374 4.46838C16.7 4.4975 16.6626 4.51415 16.621 4.51415C16.5877 4.51415 16.5627 4.50582 16.5419 4.49334C16.4421 4.39351 16.3922 4.25623 16.3922 4.08568C16.3922 4.04409 16.4005 3.98585 16.413 3.90682L16.6335 3.45757C16.6335 3.51165 16.6251 3.56573 16.6127 3.61564C16.5669 3.80283 16.5419 3.91098 16.5419 3.94425C16.5419 4.05241 16.5835 4.13977 16.6626 4.21465C16.7291 4.22713 16.7832 4.21049 16.8206 4.16057C16.8622 4.11065 16.8997 4.06074 16.9413 4.00666L16.9454 4.0025ZM19.3123 6.83944C19.3123 6.96423 19.2998 7.07653 19.2707 7.16805C19.2458 7.25956 19.1958 7.34276 19.1293 7.40932C19.0295 7.4426 18.9463 7.43011 18.8839 7.37603C18.8215 7.3178 18.7757 7.24709 18.7508 7.15973C18.7258 7.07238 18.7092 6.98918 18.7092 6.91015C18.7092 6.77703 18.7341 6.6356 18.7882 6.48169C18.7965 6.46921 18.8506 6.34026 18.9587 6.09068C18.913 6.21547 18.8839 6.31947 18.8672 6.39434C18.8548 6.46922 18.8464 6.55241 18.8464 6.63977C18.8464 6.7396 18.8589 6.82695 18.8797 6.89767C18.9047 6.97254 18.9463 7.0391 19.0045 7.10565C19.0835 7.13893 19.1459 7.12229 19.1834 7.05158C19.225 6.98086 19.2624 6.91015 19.304 6.83527L19.3123 6.83944ZM26.5794 7.92929C26.4879 7.52163 26.1925 7.13061 25.7017 6.75207C24.9945 6.19883 24.6077 5.88269 24.5328 5.80366C24.6077 5.76206 24.6825 5.72046 24.7616 5.6747C24.6742 5.57487 24.5536 5.4792 24.3955 5.38353C24.2374 5.29202 24.0253 5.19218 23.7508 5.08403L23.5428 5.69135C23.522 5.72463 23.5137 5.75374 23.5137 5.78286C23.5137 5.82862 23.5511 5.88686 23.6218 5.95341C23.7757 6.08652 23.8547 6.17803 23.8631 6.23211C23.4554 6.42345 23.1393 6.71464 22.9063 7.10565C22.6734 7.49667 22.5569 7.90848 22.5569 8.34941C22.532 8.52412 22.3822 8.6406 22.116 8.69884C21.9704 8.73212 21.7499 8.7737 21.4587 8.81946C21.3797 8.52828 21.2092 8.27454 20.9554 8.06655C20.6975 7.85856 20.4188 7.72546 20.111 7.67138C19.799 7.72962 19.5577 7.92928 19.3914 8.26206C19.2832 8.47005 19.2 8.7737 19.1335 9.18136C19.2333 9.40182 19.3914 9.55158 19.6035 9.63061C19.7574 9.68885 19.9779 9.72213 20.2732 9.72213C20.2815 9.72213 20.3897 9.71797 20.606 9.70549C20.8223 9.69717 20.9929 9.68884 21.1218 9.68884C21.0677 9.83443 20.9471 9.99251 20.7641 10.1589C20.5311 10.3669 20.3897 10.5 20.3439 10.5582C19.6909 11.0699 19.1751 11.4318 18.7965 11.6356C18.1892 11.9601 17.6068 12.1265 17.0494 12.1265C16.9704 12.1265 16.9038 12.1264 16.8498 12.1223C16.7957 12.1223 16.7416 12.114 16.6792 12.1057C16.4671 12.0266 16.3048 11.881 16.1884 11.6772C16.076 11.4692 16.0178 11.2487 16.0178 11.0075C16.0178 10.9742 16.0178 10.9285 16.0095 10.8661C16.0095 10.5083 16.205 10.1963 16.6002 9.93843C17.4571 9.38103 17.9022 8.93593 17.9271 8.61147C17.9479 8.49084 17.9562 8.3827 17.9562 8.28287C17.9562 7.77538 17.6151 7.34276 16.9371 6.9767C16.0511 6.49833 15.5311 6.15723 15.3689 5.95756C15.3689 5.87853 15.3814 5.82445 15.4022 5.80366C15.4271 5.7787 15.4937 5.77038 15.606 5.77038C15.7308 5.77038 15.8098 5.72878 15.8348 5.64975C15.5602 5.54991 15.4022 5.49168 15.3564 5.47088C15.1817 5.39601 15.0278 5.31281 14.8864 5.2213C14.7865 5.24209 14.7158 5.30033 14.6784 5.40016C14.6368 5.57903 14.6035 5.75791 14.5702 5.92846C14.7824 6.28203 15.0902 6.61896 15.4895 6.94758C15.7433 7.15557 16.1218 7.41763 16.6335 7.74209C17.1409 8.06655 17.5028 8.31613 17.715 8.495C17.3614 8.80282 16.9413 9.08984 16.4463 9.36439C16.0719 9.57237 15.606 9.80116 15.0486 10.0549C14.2832 10.4002 13.8173 10.6165 13.6509 10.7038C13.5178 10.7496 13.3764 10.7953 13.2225 10.8452C13.0686 10.891 12.9313 10.916 12.8148 10.916C12.7233 10.916 12.6318 10.8993 12.5486 10.8619C12.4654 10.8245 12.3947 10.7662 12.3323 10.6872C12.3115 10.5874 12.3032 10.4958 12.3032 10.4085C12.3032 10.1547 12.378 9.85108 12.532 9.50166C12.7524 8.99002 12.8731 8.703 12.8897 8.64476C12.5569 9.18552 12.3614 9.5183 12.299 9.64309C12.0993 10.0507 11.9995 10.4293 11.9995 10.7829C11.9995 10.9035 12.0078 11.0241 12.0286 11.1406C12.0827 11.282 12.1534 11.3985 12.2366 11.4983C12.324 11.5982 12.428 11.6647 12.5569 11.698C13.0478 11.6522 13.6468 11.4567 14.3456 11.1073C15.2982 10.6331 15.8514 10.3669 16.0137 10.3087C15.9263 10.5291 15.8556 10.7537 15.8057 10.9867C15.7516 11.2196 15.7266 11.4401 15.7266 11.6439C15.7266 11.8311 15.7516 12.01 15.7973 12.1847C15.8431 12.3594 15.918 12.5091 16.0178 12.6423C16.1509 12.767 16.2965 12.8586 16.4587 12.9168C16.6168 12.975 16.7915 13 16.9787 13C17.1659 13 17.3489 12.9709 17.5278 12.9085C18.4013 12.5757 19.175 12.1473 19.8531 11.619C20.6434 10.9992 21.2092 10.3128 21.5419 9.55158C21.8082 9.4975 22.0869 9.41847 22.3822 9.30616C22.6734 9.198 22.9604 9.08985 23.2391 8.9817C23.4929 8.9817 23.8506 9.06905 24.3165 9.2396C24.7824 9.41431 25.1276 9.4975 25.3564 9.4975C25.4479 9.4975 25.5561 9.48502 25.6809 9.4559C25.8057 9.43094 25.9138 9.38935 26.0053 9.33528C26.23 9.22296 26.3797 9.01081 26.4463 8.70715C26.4795 8.54076 26.5253 8.28286 26.5877 7.92929H26.5794ZM13.9088 3.49501L13.8381 3.8153C13.7716 3.69051 13.68 3.65723 13.5594 3.72379C13.4721 3.81114 13.3847 4.04825 13.3015 4.43095C13.2599 4.6223 13.1975 4.75957 13.1102 4.83861C13.0644 4.77205 13.002 4.64725 12.9313 4.46422C12.8564 4.28119 12.7815 4.14809 12.7025 4.06905C12.6942 4.12729 12.6775 4.16057 12.6443 4.16057C12.6193 4.16057 12.5694 4.13145 12.4945 4.06905C12.4529 4.03578 12.4238 4.01914 12.403 4.01914C12.3448 3.97754 12.3115 3.92346 12.3115 3.84859C12.3115 3.80283 12.3281 3.73628 12.3572 3.65308C12.3864 3.56989 12.403 3.51581 12.403 3.48669C12.4155 3.46174 12.4446 3.44925 12.482 3.45757C12.5236 3.46589 12.5569 3.47422 12.5902 3.48669C12.69 3.57821 12.7774 3.69051 12.8481 3.8153C12.9479 4.02329 13.0478 4.22713 13.1476 4.43511C13.2266 4.17721 13.289 3.97754 13.3265 3.83611C13.4138 3.56157 13.5345 3.42845 13.6842 3.42845C13.7591 3.42845 13.8298 3.44926 13.9047 3.48669L13.9088 3.49501ZM13.5802 5.32113C13.5802 5.57903 13.3972 5.7995 13.0311 5.97837C12.7067 6.13644 12.5361 6.21964 12.5236 6.22796C12.5777 6.13644 12.6692 6.04909 12.8023 5.97005C13.1684 5.73711 13.3597 5.61231 13.3722 5.59983C13.2516 5.56655 13.1351 5.54992 13.0228 5.54992C12.8356 5.54992 12.6942 5.59567 12.5944 5.69135C12.6152 5.53744 12.6775 5.42928 12.7899 5.36272C12.898 5.29617 13.0394 5.2629 13.2058 5.2629C13.2599 5.2629 13.3265 5.27121 13.4055 5.28369C13.4845 5.29617 13.5469 5.30865 13.5844 5.32529L13.5802 5.32113ZM14.7574 8.5574C14.7241 8.80282 14.6992 8.94841 14.6867 8.99001C14.6742 9.03161 14.6326 9.09401 14.5661 9.17304C14.4787 9.18552 14.408 9.16472 14.3456 9.10648C14.2874 9.04825 14.2374 8.97754 14.2042 8.89018C14.1959 8.84859 14.1959 8.78619 14.1959 8.69884C14.1959 8.42014 14.2707 8.14975 14.4246 7.89185C14.3997 7.9792 14.3747 8.07487 14.3498 8.17471C14.3248 8.2787 14.3165 8.37022 14.3165 8.44925C14.3165 8.61564 14.3664 8.74875 14.4662 8.84858C14.5536 8.86938 14.6118 8.82779 14.6409 8.7238C14.6701 8.6198 14.7075 8.56156 14.7574 8.54908V8.5574ZM23.4929 3.60732C23.4471 3.47421 23.4138 3.39934 23.393 3.37854C23.3514 3.33278 23.3015 3.3203 23.2349 3.33694C23.2017 3.33694 23.185 3.35774 23.185 3.39518C23.185 3.44094 23.2017 3.47006 23.2349 3.48669C23.2932 3.53245 23.3473 3.56989 23.3889 3.59069C23.4305 3.61565 23.4679 3.6198 23.4929 3.60732ZM26.23 8.44092C26.1301 8.5158 26.022 8.56989 25.9013 8.60732C25.7807 8.64476 25.6601 8.66139 25.5311 8.66139C25.3731 8.66139 25.19 8.63644 24.9904 8.58237C24.7907 8.52829 24.5993 8.47004 24.4122 8.40349C24.4538 8.27038 24.5203 8.05407 24.6118 7.75457C24.6867 7.48003 24.72 7.24293 24.72 7.03495C24.9321 7.19302 25.1443 7.35107 25.3606 7.50498C25.8015 7.84608 26.0885 8.15807 26.23 8.44509V8.44092ZM24.383 7.78369C24.2166 7.87521 24.0669 7.95424 23.9296 8.01247C23.7924 8.07071 23.6468 8.12895 23.497 8.18302C23.3556 8.14143 23.2308 8.09151 23.1226 8.02495C23.0145 7.9584 22.923 7.87521 22.8564 7.77538C22.9438 7.60899 23.0644 7.45507 23.2225 7.30948C23.3805 7.16805 23.5344 7.07654 23.6884 7.03495C23.7882 7.01415 23.8755 7.02246 23.9463 7.05574C24.0211 7.08902 24.1002 7.14725 24.1875 7.22629C24.2541 7.31364 24.2998 7.401 24.329 7.49667C24.3373 7.50915 24.3539 7.60483 24.3872 7.78786L24.383 7.78369ZM20.6809 8.90266H20.4604C20.2358 8.90266 20.0611 8.88602 19.9404 8.85275C19.7533 8.79867 19.6243 8.70299 19.5494 8.56156C19.6409 8.495 19.7408 8.46173 19.8489 8.46173C19.9404 8.46173 20.0403 8.48669 20.1484 8.54077C20.3231 8.6614 20.4978 8.78202 20.6767 8.8985L20.6809 8.90266Z" fill="currentColor"/>
</svg>
