<svg width="40" height="16" viewBox="0 0 40 16" fill="none" xmlns="http://www.w3.org/2000/svg">
<path fill-rule="evenodd" clip-rule="evenodd" d="M26.598 9.54311C26.598 9.83465 26.5689 10.1262 26.5064 10.4136C26.4481 10.701 26.3606 10.98 26.2482 11.2549C26.2898 10.9633 26.3065 10.676 26.3065 10.3969C26.3065 10.2095 26.2981 10.0054 26.2773 9.78051C26.2565 9.5556 26.2315 9.33486 26.1982 9.11412L25.5693 4.51603C25.5818 4.4494 25.5901 4.39942 25.5901 4.3661C25.5901 4.28696 25.5818 4.20783 25.5609 4.12453C25.5026 3.8913 25.4693 3.76218 25.4693 3.73303C25.4693 3.63307 25.4985 3.54144 25.5609 3.46231C25.5943 3.37484 25.6359 3.29155 25.6817 3.21241C25.7275 3.13328 25.7817 3.0708 25.84 3.03332C25.8816 3.17909 26.0024 3.49146 26.2107 3.97459C26.3856 4.37443 26.4689 4.67847 26.4689 4.88255C26.4689 4.97418 26.4606 5.04498 26.4481 5.0908C26.4148 5.04915 26.3731 4.98251 26.3273 4.89088C26.2815 4.79925 26.2357 4.72428 26.1982 4.67014L26.0274 4.92003L26.598 9.53894V9.54311ZM23.1578 3.1666C23.1703 3.23324 23.1494 3.30404 23.0911 3.37484C23.0328 3.44981 22.9704 3.49979 22.8954 3.53311C22.5205 3.67472 22.154 3.81216 21.7875 3.95377C21.3752 4.12037 21.0212 4.29529 20.7296 4.47439C20.7963 4.22033 21.0003 4.02874 21.3377 3.89546C21.6251 3.78717 21.9125 3.67888 22.2082 3.56643C22.4747 3.4748 22.6746 3.39983 22.8079 3.34569C22.9412 3.29155 23.0578 3.23324 23.1578 3.1666ZM23.1494 6.55685C23.1619 6.58184 23.1703 6.62765 23.1703 6.68596C23.1703 6.74427 23.1578 6.80258 23.137 6.86089C23.112 6.9192 23.0786 6.98167 23.0328 7.05664C22.9537 7.10246 22.8912 7.12745 22.8537 7.12745C22.8204 7.12745 22.7871 7.11079 22.7538 7.07747C22.7205 7.01916 22.6955 6.95252 22.683 6.87755C22.6705 6.80258 22.6622 6.73178 22.6622 6.65681C22.6622 6.53186 22.6871 6.38192 22.733 6.21533C22.7455 6.15702 22.7913 6.01541 22.8746 5.79467C22.8829 5.81549 22.8829 5.85298 22.8829 5.90296C22.8829 5.9696 22.8704 6.06955 22.8412 6.20283C22.8163 6.33611 22.7996 6.43607 22.7996 6.50271C22.7996 6.65681 22.8579 6.76093 22.9787 6.82341C22.9995 6.79842 23.0245 6.74844 23.0537 6.6818C23.0828 6.61516 23.1161 6.57351 23.1494 6.55269V6.55685ZM20.2215 3C20.234 3.04165 20.2215 3.08746 20.1799 3.14161C20.1382 3.19575 20.1007 3.24573 20.0591 3.29154C19.0137 3.74552 17.9683 4.19533 16.9312 4.64098C16.9229 4.58267 16.9437 4.51603 16.9854 4.4494C17.027 4.38276 17.0728 4.31612 17.1186 4.24948C17.431 4.07455 17.8142 3.90795 18.2682 3.74136C19.476 3.28738 20.1257 3.04165 20.2173 3H20.2215ZM22.0707 6.02791C22.0832 6.09454 22.0916 6.13203 22.0916 6.13619C22.0916 6.20283 22.0249 6.24865 21.8916 6.26947C21.7584 6.29446 21.6834 6.3486 21.6626 6.43607C21.6417 6.48188 21.6293 6.53603 21.6209 6.59434C21.6126 6.65265 21.6126 6.72345 21.6126 6.80258V7.0733C21.6126 7.17326 21.6084 7.24823 21.5959 7.29821C21.5876 7.34819 21.5626 7.40233 21.521 7.46481C21.3544 7.21075 21.1878 6.95668 21.0212 6.69429C21.0128 6.7526 20.9879 6.78592 20.942 6.78592C20.8421 6.74427 20.7754 6.71928 20.7421 6.70679C20.7213 6.66514 20.713 6.61516 20.713 6.55685C20.713 6.43607 20.7546 6.31945 20.8421 6.207C20.9837 6.25281 21.1086 6.35693 21.2211 6.5152C21.2752 6.59017 21.3585 6.74011 21.471 6.96501C21.5251 6.70679 21.5668 6.50687 21.6001 6.37359C21.6584 6.12786 21.7709 6.00292 21.9291 6.00292C21.9874 6.00292 22.0374 6.01124 22.0707 6.02374V6.02791ZM20.1007 4.84923L19.4926 4.4494L19.0845 4.97001C19.0095 4.95752 18.9012 4.90754 18.7554 4.82424C18.6097 4.74094 18.4931 4.69096 18.4056 4.67847C18.3265 4.79092 18.2473 4.90754 18.164 5.02416C18.0849 5.14077 18.0349 5.24906 18.0141 5.34902C18.114 5.40733 18.2182 5.4698 18.3306 5.53228C18.4389 5.59475 18.5472 5.64057 18.6555 5.66556C18.6971 5.61974 18.7554 5.53228 18.8346 5.399C18.9137 5.26989 18.9845 5.17409 19.0428 5.11578L19.7009 5.53644C19.8883 5.3157 20.0216 5.08663 20.1007 4.84506V4.84923ZM21.3585 8.94752C21.3335 9.12661 21.3169 9.22657 21.3085 9.2474C21.2752 9.34736 21.2086 9.41816 21.1086 9.45564C21.0295 9.45564 20.9587 9.42649 20.9046 9.37234C20.8462 9.31404 20.8213 9.25156 20.8213 9.17659C20.8088 9.05164 20.8129 8.95169 20.8296 8.88088C20.8504 8.81008 20.9212 8.63099 21.0503 8.33528C21.0587 8.38942 21.0503 8.45606 21.0295 8.53519C20.9629 8.7601 20.9295 8.88505 20.9295 8.90587C20.9295 9.01416 20.9754 9.09746 21.0711 9.15577C21.1461 9.18076 21.2044 9.15577 21.2502 9.07663C21.2961 8.9975 21.3335 8.95169 21.3585 8.94752ZM16.8896 5.50729C16.9021 5.56143 16.9104 5.60308 16.9104 5.6364C16.9104 5.72803 16.8812 5.82799 16.8188 5.93628C16.7979 5.9696 16.7604 5.98626 16.698 5.98626H16.5772C16.5022 5.8738 16.4689 5.74885 16.4689 5.61558C16.4689 5.50312 16.4939 5.37401 16.5397 5.23657C16.5647 5.15743 16.6147 5.04082 16.6896 4.88671C16.7021 4.94502 16.6896 5.04498 16.648 5.17826C16.6063 5.31154 16.5897 5.40733 16.5897 5.4698C16.5897 5.56976 16.623 5.6489 16.6896 5.71137C16.7438 5.72386 16.7813 5.71137 16.8104 5.66139C16.8354 5.61558 16.8646 5.5656 16.8896 5.51145V5.50729ZM24.528 7.83549C24.3614 6.92753 24.1948 6.02374 24.0282 5.11578C24.0158 5.04915 24.0074 5.00333 24.0074 4.97418C24.0074 4.85339 24.0491 4.76593 24.1282 4.70346C24.1365 4.71595 24.1907 4.79508 24.299 4.94502C24.3656 5.04498 24.4281 5.10746 24.4906 5.13661C24.4489 4.81591 24.3573 4.46189 24.2115 4.07872C24.1324 3.87047 23.9908 3.53728 23.7908 3.07913C23.7117 3.14577 23.6409 3.25406 23.5826 3.39983C23.5576 3.47897 23.5076 3.60392 23.441 3.77051C23.4993 4.29529 23.6159 4.995 23.7908 5.86131C24.0241 7.02749 24.1574 7.7147 24.1907 7.91878C24.3115 8.66431 24.3698 9.35985 24.3698 9.99708C24.124 10.1762 23.8408 10.2678 23.5201 10.2678C23.3119 10.2678 23.1328 10.2303 22.9787 10.1595C22.8662 10.1137 22.7746 10.0554 22.708 9.98875C22.6413 9.92212 22.608 9.84298 22.608 9.74719C22.608 9.72636 22.608 9.69721 22.6163 9.65556C22.6247 9.61391 22.6372 9.58059 22.658 9.54727C22.4164 9.70554 22.179 9.86797 21.9375 10.0262C21.4293 10.3594 20.9795 10.526 20.588 10.526C20.5672 10.526 20.5339 10.526 20.4881 10.5344H20.3381C20.0632 10.5344 19.8092 10.4844 19.5718 10.3886C19.3344 10.2928 19.1345 10.147 18.9679 9.95544C19.2427 9.83465 19.4427 9.60975 19.5759 9.27655C19.6634 8.97668 19.7509 8.6768 19.8467 8.37693C19.8467 8.25614 19.83 8.14369 19.7925 8.04373C19.755 7.93961 19.6634 7.76052 19.5176 7.49813C19.3844 7.37318 19.2136 7.30654 19.0095 7.30654C18.8429 7.394 18.7096 7.51062 18.6055 7.65639C18.5014 7.80217 18.4139 7.98126 18.3473 8.1895C18.2765 8.39775 18.2307 8.61016 18.2057 8.82257C18.1807 9.03499 18.1724 9.26406 18.1724 9.51395L17.4518 9.77218C17.077 9.90546 16.7396 10.0721 16.4314 10.272C16.1732 10.4469 15.8941 10.6676 15.6026 10.9425C15.0612 11.4631 14.528 11.9838 13.9949 12.5127C13.92 12.5335 13.8533 12.5419 13.795 12.5419C13.5951 12.5419 13.4243 12.4627 13.2869 12.3003C13.2078 12.142 13.1661 11.9754 13.1661 11.8005C13.1661 11.6256 13.1869 11.4756 13.2327 11.3299C13.2744 11.1841 13.3785 10.9217 13.5368 10.551C13.5618 10.5594 13.6076 10.5718 13.6659 10.5927H13.845C14.1365 10.5927 14.4322 10.4885 14.7238 10.2845C14.957 10.1179 15.1861 9.88463 15.4152 9.58476C15.4152 9.53894 15.4235 9.4723 15.436 9.38484C15.4485 9.29738 15.4568 9.17659 15.4568 9.01416C15.4568 8.73511 15.4152 8.48938 15.3277 8.2853C15.2402 8.07705 15.0861 7.90629 14.8571 7.76468C14.9903 7.58559 15.1278 7.4065 15.2652 7.22324C15.5318 6.86506 15.6651 6.53603 15.6651 6.24448C15.6651 6.21949 15.6651 6.17368 15.6567 6.11537C15.2986 6.56935 14.8946 7.01916 14.4489 7.46481C14.4364 7.44398 14.2906 7.3232 14.0074 7.09413C13.8408 6.95252 13.7742 6.81091 13.8075 6.66514C13.8408 6.65681 13.8783 6.66514 13.9158 6.69429C13.9699 6.55269 13.8575 6.41108 13.5743 6.26531C13.3993 6.17784 13.2869 6.10704 13.2327 6.05706C13.1578 6.14452 13.112 6.2778 13.087 6.45689C13.062 6.63598 13.0453 6.75677 13.0328 6.81508C13.1536 7.0025 13.3036 7.19825 13.4826 7.4065C13.6617 7.61474 13.845 7.8105 14.0324 7.99792L13.9116 8.12703C13.7242 8.36027 13.5701 8.63515 13.441 8.95585C13.316 9.27655 13.2494 9.57226 13.2494 9.84715C13.2494 10.147 13.3285 10.3594 13.491 10.4885C13.3827 10.7468 13.2744 11.0133 13.1661 11.2882C13.0578 11.5631 12.9995 11.8255 12.9995 12.0796C12.9995 12.1795 13.012 12.2878 13.0328 12.4044C13.0578 12.521 13.1161 12.6293 13.2161 12.7293C13.2952 12.8042 13.4077 12.8751 13.5576 12.95C13.6118 12.9833 13.6742 13 13.7492 13C13.8283 13 13.92 12.9792 14.0199 12.9334C14.1199 12.8917 14.2157 12.8501 14.3115 12.8084C14.6197 12.4627 14.9154 12.1587 15.2028 11.9005C15.5276 11.6006 15.8483 11.3424 16.1607 11.1299C16.5147 10.8842 16.8687 10.6843 17.2269 10.5302C17.5851 10.3761 17.9599 10.2636 18.3514 10.1887C18.4431 10.4136 18.6055 10.6218 18.8304 10.8134C19.0553 11.005 19.2886 11.1383 19.5301 11.2174C19.7384 11.2632 19.9508 11.2882 20.1715 11.2882C20.5963 11.2882 21.0045 11.2007 21.3877 11.0217C21.7709 10.8467 22.1207 10.5927 22.4414 10.2678C22.4539 10.2928 22.4622 10.3428 22.4622 10.4177C22.4622 10.4844 22.4706 10.5302 22.4831 10.5593C22.5955 10.7343 22.7371 10.8551 22.9079 10.9259C23.0786 10.9967 23.2786 11.03 23.5118 11.03C23.72 11.03 23.9116 10.9967 24.0866 10.9259C24.2615 10.8551 24.3989 10.7426 24.4906 10.5802C24.5489 10.3386 24.5905 10.1179 24.6113 9.90962C24.6322 9.70138 24.6405 9.46814 24.6405 9.20991C24.6405 8.77676 24.603 8.31862 24.5322 7.83965L24.528 7.83549ZM18.5097 6.207C18.5222 6.26114 18.5097 6.31112 18.4806 6.3611C18.4472 6.41108 18.4223 6.45273 18.4014 6.48605C17.8933 6.68596 17.5185 6.83174 17.2727 6.92753C16.8479 7.09413 16.4772 7.26073 16.1649 7.42732C16.1315 7.394 16.1315 7.34819 16.169 7.28572C16.2065 7.22741 16.2232 7.18576 16.2232 7.16493C16.9812 6.81091 17.7475 6.49021 18.5139 6.207H18.5097ZM22.937 11.9963C22.8621 12.1212 22.7954 12.2295 22.7371 12.317C22.6497 12.4419 22.5622 12.546 22.4789 12.6252L21.7875 12.1962C21.8292 12.0837 21.8875 11.9713 21.9624 11.8546C22.0374 11.7422 22.1249 11.6339 22.2165 11.5339C22.3165 11.5589 22.4123 11.6047 22.508 11.6631C22.533 11.6839 22.6788 11.7922 22.937 11.9921V11.9963ZM15.4527 4.08288L15.1236 4.76177C14.9237 4.67014 14.7654 4.59933 14.653 4.55352C14.5405 4.5077 14.4489 4.47022 14.3823 4.44523C14.3906 4.43274 14.3823 4.42024 14.3739 4.41191C14.3614 4.40358 14.3448 4.39109 14.324 4.37859C14.249 4.53686 14.199 4.65764 14.1657 4.73678C14.0991 4.88255 14.0033 4.94086 13.8741 4.90754L13.2827 4.67847C13.2827 4.55352 13.3369 4.40775 13.441 4.24948C13.5285 4.13703 13.5868 4.05373 13.6201 3.99958C13.8533 4.05789 13.9824 4.09121 14.0116 4.09954C14.1365 4.14119 14.2698 4.19534 14.4031 4.2703L14.7321 3.77051C14.8987 3.82882 15.0237 3.87464 15.1028 3.89963C15.2486 3.95377 15.3652 4.01624 15.4527 4.09121V4.08288ZM17.3727 8.58101C17.3727 8.58101 17.3935 8.63515 17.3935 8.68097C17.3935 8.73511 17.381 8.78925 17.3519 8.85173C17.3061 8.9267 17.2769 8.97668 17.2602 9.01C17.2186 9.08913 17.1561 9.13078 17.0686 9.13078C17.0228 9.13078 16.977 9.11412 16.927 9.0808C16.8729 8.98084 16.8479 8.87672 16.8479 8.7726C16.8479 8.65181 16.8896 8.50604 16.9687 8.33111C17.0811 8.08538 17.1436 7.93961 17.1603 7.90212C17.1603 7.98959 17.1353 8.11037 17.0811 8.26031C17.027 8.41441 17.002 8.52686 17.002 8.60183C17.002 8.68097 17.027 8.7601 17.0728 8.8309C17.1478 8.85173 17.2103 8.8309 17.2644 8.7601C17.2977 8.70179 17.3352 8.63932 17.3727 8.58101ZM18.1224 11.9504C18.0974 12.0962 18.0766 12.192 18.0641 12.2295C18.0224 12.3378 17.9599 12.4044 17.8725 12.4377C17.6809 12.4127 17.5726 12.3003 17.5518 12.1087C17.5518 11.9504 17.5768 11.788 17.6309 11.6297C17.6851 11.4715 17.7559 11.3007 17.8517 11.1216C17.8642 11.1883 17.8392 11.309 17.7767 11.4881C17.7142 11.6631 17.6809 11.788 17.6809 11.8546C17.6809 12.0004 17.7642 12.1004 17.9308 12.1545C17.9641 12.1337 17.9974 12.0962 18.0266 12.0379C18.0557 11.9796 18.0891 11.9546 18.1224 11.9546V11.9504ZM19.451 8.92253C19.3927 9.04748 19.2719 9.14744 19.0928 9.22241C18.9928 9.26406 18.8387 9.31404 18.6347 9.38067C18.6097 9.26822 18.5847 9.14744 18.5639 9.02666C18.543 8.90171 18.5347 8.77676 18.5347 8.65181C18.5347 8.53103 18.5555 8.41857 18.593 8.30612C18.6305 8.19367 18.6971 8.1187 18.7846 8.07289C18.9762 8.09371 19.1303 8.19783 19.2427 8.39359C19.2636 8.42691 19.3344 8.60183 19.451 8.92253ZM15.1528 9.04331C14.9654 9.26406 14.7613 9.43482 14.5364 9.56393C14.3115 9.68888 14.0866 9.75552 13.8533 9.75552C13.8283 9.75552 13.7908 9.75552 13.745 9.74719C13.7117 9.74719 13.6784 9.73053 13.6451 9.69721C13.6118 9.66389 13.5868 9.62641 13.5659 9.58892C13.6118 9.38067 13.7617 9.11412 14.0158 8.78925C14.1824 8.57684 14.2948 8.42691 14.3573 8.33944C14.4989 8.40608 14.6696 8.54769 14.8779 8.76843C15.0195 8.91004 15.1111 9.00167 15.1569 9.04748L15.1528 9.04331Z" fill="currentColor"/>
</svg>
