<svg width="40" height="16" viewBox="0 0 40 16" fill="none" xmlns="http://www.w3.org/2000/svg">
<path fill-rule="evenodd" clip-rule="evenodd" d="M28.4001 8.66859C28.4736 9.18773 28.5155 9.69638 28.5155 10.1893C28.5155 10.6245 28.484 11.0231 28.4211 11.3797C28.3582 11.7362 28.2481 12.1033 28.0855 12.4809C28.1379 12.0771 28.1589 11.6838 28.1589 11.2958C28.1589 10.6141 28.0803 9.84321 27.9282 8.97798C27.7709 8.11274 27.6241 7.27897 27.4825 6.47142C27.3147 5.48034 27.2308 4.66754 27.2308 4.02779C27.1731 3.94389 27.1416 3.85999 27.1416 3.77609C27.1416 3.66073 27.1941 3.52438 27.2937 3.37231C27.43 3.20451 27.5139 3.08915 27.5559 3.03147C27.5716 3.1311 27.7447 3.55585 28.0698 4.30047C28.2061 4.60986 28.269 4.8773 28.269 5.09229C28.1956 5.06608 28.117 4.9979 28.0436 4.89303C27.9701 4.78291 27.9125 4.73047 27.881 4.73047C27.8548 4.73047 27.8233 4.75669 27.7814 4.80388C27.8338 5.34924 27.9544 6.1463 28.1484 7.19507C28.2848 7.91872 28.3687 8.40115 28.4001 8.65286V8.66859ZM23.5443 4.54169C23.5443 4.54169 23.4237 4.57315 23.2559 4.60462C23.0881 4.63608 22.9465 4.71998 22.8259 4.84583C22.6896 4.84583 22.6005 4.81437 22.5533 4.75669C22.5061 4.699 22.4851 4.60461 22.4851 4.47876C22.4851 4.39486 22.4851 4.31096 22.4956 4.22706C22.5061 4.14316 22.5113 4.05926 22.5218 3.97535C22.5218 3.90718 22.5218 3.85999 22.5113 3.82328C22.5113 3.74987 22.5375 3.69743 22.5847 3.67121C22.6372 3.71316 22.6581 3.79182 22.6581 3.91243C22.6477 4.0278 22.6477 4.11694 22.6477 4.17462C22.6477 4.25852 22.6581 4.33194 22.6791 4.38962C22.7001 4.4473 22.7735 4.46303 22.8994 4.44206C22.9833 4.37389 23.0252 4.27425 23.0252 4.13791C23.0252 4.10645 23.0252 4.04877 23.0147 3.97535C23.0042 3.90194 23.0042 3.83902 23.0042 3.79707C23.0042 3.6817 23.0409 3.58207 23.1196 3.50865C23.1458 3.5506 23.1615 3.6817 23.1773 3.8967C23.1878 4.11694 23.2664 4.2323 23.408 4.24804C23.408 4.1956 23.4028 4.12218 23.387 4.02255C23.3765 3.92292 23.3661 3.86523 23.3661 3.85999C23.3661 3.73414 23.4028 3.64499 23.4814 3.5978C23.4972 3.67121 23.5234 3.78133 23.5653 3.92292C23.602 4.0645 23.623 4.17462 23.623 4.24804C23.623 4.34767 23.5968 4.4473 23.5496 4.53644L23.5443 4.54169ZM23.193 6.0257L22.8259 6.78081C22.7316 6.74934 22.6372 6.70215 22.5375 6.64447C22.3802 6.54484 22.2229 6.4452 22.0708 6.34033C22.0708 6.21447 22.1233 6.07813 22.2334 5.92606C22.4012 5.69009 22.4956 5.559 22.5113 5.53802C22.6477 5.57997 22.763 5.63765 22.8679 5.71631C22.9728 5.78972 23.0776 5.8946 23.1878 6.03094L23.193 6.0257ZM22.3225 3.00524C21.2475 3.37231 20.1778 3.74463 19.1133 4.1117C17.8705 4.54693 16.8165 4.95071 15.9408 5.31778C15.8254 5.37021 15.7205 5.44888 15.6366 5.559C15.5527 5.66912 15.5213 5.77923 15.537 5.88411C15.6366 5.76875 15.773 5.67436 15.9408 5.60094C16.1086 5.52753 16.2711 5.46461 16.4337 5.40692L21.9817 3.35658L22.2963 3.11537L22.3225 3V3.00524ZM17.4877 3.93865C17.4877 4.07499 17.4772 4.17986 17.451 4.25328C17.4248 4.32669 17.3933 4.38962 17.3514 4.44206C17.278 4.43157 17.2098 4.41584 17.1521 4.38437C17.0944 4.35291 17.0577 4.30047 17.0367 4.22706C17.0367 4.01731 17.0472 3.85474 17.0682 3.74462C17.0892 3.62926 17.1364 3.50341 17.215 3.36183C17.2308 3.41426 17.2308 3.49816 17.2098 3.61877C17.1888 3.73938 17.1783 3.81804 17.1783 3.8495C17.1783 3.97536 17.2308 4.05925 17.3409 4.10121L17.493 3.93865H17.4877ZM21.1112 8.30677C21.1427 8.34872 21.1636 8.41164 21.1636 8.49554C21.1636 8.56371 21.1532 8.63189 21.1269 8.7053C21.1007 8.77871 21.0745 8.84688 21.0378 8.91505C20.9801 8.96749 20.9277 8.99895 20.8805 9.01993C20.8333 9.0409 20.7861 9.03566 20.7336 8.99895C20.6235 8.85737 20.5711 8.7053 20.5711 8.54798C20.5711 8.38018 20.6445 8.15994 20.7861 7.88202C20.8543 7.75616 20.9224 7.63031 20.9854 7.50446C20.9958 7.60409 20.9539 7.75616 20.87 7.95543C20.7861 8.1547 20.7441 8.30152 20.7441 8.39591C20.7441 8.49554 20.7704 8.57945 20.8176 8.64762C20.9172 8.67908 20.9854 8.63713 21.0168 8.52176C21.0483 8.4064 21.0797 8.33298 21.106 8.30677H21.1112ZM25.9565 8.21762C25.9408 8.11799 25.8621 7.70372 25.731 6.96959C25.5737 6.12008 25.4636 5.44363 25.4059 4.92973C25.4374 4.87205 25.4793 4.84059 25.5213 4.84059C25.5737 4.84059 25.6524 4.914 25.7625 5.05558C25.8464 5.1657 25.8988 5.22863 25.9146 5.24436C25.9146 4.95071 25.8044 4.5784 25.5894 4.12218C25.3482 3.61877 25.2014 3.25695 25.149 3.04195C25.0546 3.12585 24.9812 3.23073 24.9182 3.35658C24.8553 3.48243 24.7976 3.60304 24.7504 3.72365C24.7766 3.90194 25.0284 5.34924 25.5055 8.07604C25.6838 9.05663 25.8044 9.9376 25.8726 10.7189C25.6524 10.9025 25.4374 11.0493 25.2171 11.1594C24.9969 11.2695 24.7714 11.322 24.5354 11.322C23.8957 11.1542 23.4762 10.5878 23.2664 9.62297C23.0986 8.83639 22.999 8.39591 22.9623 8.30152C22.8626 8.41164 22.7945 8.52701 22.7525 8.65286C22.7106 8.77871 22.6948 8.91505 22.6948 9.05663C22.7787 9.52858 22.8679 9.99004 22.957 10.4515C22.8207 10.6455 22.6634 10.7871 22.4798 10.871C22.2963 10.9601 22.0918 11.0021 21.8611 11.0021C21.7352 11.0021 21.6094 10.9916 21.4835 10.9654C21.3157 10.9654 21.2318 10.8867 21.2318 10.7242C21.2318 10.6508 21.2318 10.5669 21.2423 10.4777C21.2528 10.3886 21.2528 10.3309 21.2423 10.2942C21.064 10.5302 20.891 10.7661 20.7127 10.9969C20.6026 11.0912 20.4924 11.1594 20.3771 11.2066C20.2617 11.2538 20.1463 11.2748 20.0205 11.2748C19.9209 11.2748 19.816 11.2538 19.7059 11.2119C19.6062 11.2014 19.5381 11.1751 19.4961 11.1227C19.4594 11.0703 19.4384 11.0073 19.4384 10.9339C19.4384 10.892 19.4489 10.8081 19.4699 10.6822C19.4909 10.5564 19.4961 10.4725 19.4909 10.4305C19.3231 10.6245 19.1605 10.8133 18.9979 10.9969C18.7882 11.2223 18.5784 11.3534 18.3687 11.3849C18.117 11.3849 17.9334 11.3692 17.8128 11.3325C17.6975 11.301 17.5978 11.2486 17.5244 11.1751C17.451 11.1017 17.4091 11.0283 17.4091 10.9549C17.4091 10.9234 17.43 10.8448 17.4772 10.7294C17.5244 10.6141 17.5402 10.5144 17.5349 10.441C16.8532 10.9025 16.4757 11.1489 16.4022 11.1856C16.14 11.3115 15.8988 11.3744 15.6733 11.3744C15.4793 11.3744 15.3063 11.3429 15.1437 11.2748C14.9654 11.1751 14.8291 11.0388 14.7242 10.871C14.6193 10.7032 14.5354 10.5197 14.4778 10.3152C14.3676 9.67541 14.2995 8.90981 14.268 8.00787C14.2365 7.10593 14.2103 6.24069 14.1841 5.40692C14.1317 4.46828 14.0373 3.67646 13.8957 3.02622L13.5181 3.77084C13.644 4.60986 13.7384 5.37022 13.8065 6.05716C13.8747 6.73886 13.9062 7.43104 13.9062 8.12847C13.9376 8.85737 13.9796 9.58626 14.0215 10.3204C14.1054 11.1594 14.3834 11.7782 14.8501 12.182C14.9602 12.2344 15.0441 12.2606 15.107 12.2711C15.1699 12.2816 15.2643 12.2816 15.3902 12.2816C15.6943 12.2816 16.0037 12.1925 16.3236 12.0194C16.5491 11.8936 16.8165 11.6995 17.1311 11.4426L17.1678 11.9722C17.2517 12.0823 17.3566 12.161 17.4877 12.2134C17.6188 12.2659 17.7604 12.3026 17.9072 12.3288C18.1327 12.3131 18.3477 12.2554 18.5417 12.1662C18.741 12.0718 18.9088 11.946 19.0504 11.7887L19.2654 12.0404C19.4332 12.1505 19.622 12.2029 19.8317 12.2029C19.8632 12.2029 19.9051 12.2029 19.9576 12.1924C20.1516 12.1924 20.3351 12.1138 20.5134 11.9512C20.6497 11.7992 20.7808 11.6523 20.9172 11.5108L21.1584 11.7625C21.3367 11.8621 21.5255 11.9145 21.7352 11.9145C21.8768 11.9145 22.0184 11.8988 22.1495 11.8726C22.2858 11.8411 22.4274 11.7992 22.5795 11.7415C22.7158 11.6681 22.8207 11.5475 22.9046 11.3901C22.957 11.2905 23.0095 11.1384 23.0672 10.9392C23.2245 11.3272 23.3923 11.6209 23.5601 11.8201C23.7017 11.9879 23.8537 12.1033 24.0058 12.161C24.1631 12.2187 24.3099 12.2501 24.4515 12.2501C24.7137 12.2501 24.9707 12.1872 25.2276 12.0561C25.4846 11.925 25.7101 11.7572 25.8988 11.5475C26.0352 11.0178 26.0981 10.4777 26.0981 9.92187C26.0981 9.43419 26.0457 8.86785 25.946 8.22286L25.9565 8.21762ZM19.1605 6.30362C19.1605 6.30362 19.171 6.35606 19.171 6.37703V6.43996C19.171 6.55008 19.1185 6.60252 19.0189 6.60252C18.9245 6.59203 18.8564 6.59203 18.8039 6.59203C18.6781 6.59203 18.6151 6.66544 18.6151 6.81751C18.5837 7.09544 18.5522 7.33141 18.526 7.52019C18.4998 7.71421 18.4473 7.88726 18.3634 8.03408C18.3372 8.00786 18.2428 7.77714 18.075 7.3419C17.9649 7.04824 17.7866 6.92239 17.5349 6.96434C17.451 6.92239 17.4091 6.85947 17.4091 6.77557C17.4091 6.72313 17.43 6.64971 17.472 6.55008C17.5139 6.45045 17.5402 6.38752 17.5559 6.3613C17.5664 6.33508 17.6031 6.32459 17.6608 6.32984C17.7184 6.32984 17.7551 6.34032 17.7761 6.35081C17.8705 6.46618 17.9649 6.613 18.0645 6.78081C18.1642 6.94861 18.2795 7.18983 18.4054 7.49921C18.4578 7.11117 18.4945 6.88044 18.5207 6.79654C18.5942 6.53435 18.72 6.34033 18.8983 6.20399C19.0242 6.17777 19.1133 6.21447 19.1605 6.30362ZM15.0441 5.10803C15.0703 4.98217 15.086 4.88778 15.0965 4.8301C15.107 4.77242 15.107 4.67279 15.107 4.54169C15.107 4.08023 15.0126 3.65024 14.8291 3.25695L14.9654 3.12061C15.0755 3.22024 15.1542 3.35134 15.2066 3.50865C15.2591 3.66597 15.2801 3.83377 15.2801 4.00158C15.2801 4.20084 15.2591 4.38438 15.2224 4.54693C15.1857 4.70949 15.1227 4.89827 15.0388 5.10803H15.0441ZM23.1878 12.0037C23.2192 12.0718 23.214 12.14 23.1615 12.2134C23.1091 12.2868 23.0462 12.334 22.9728 12.3603C22.3855 12.57 21.8034 12.785 21.2213 13C21.2475 12.7745 21.3944 12.6224 21.6618 12.549C22.0499 12.4389 22.2648 12.3707 22.3173 12.334L23.1878 12.0089V12.0037ZM16.355 8.51652C16.355 8.70005 16.3393 8.83639 16.3131 8.92029C16.2816 9.0042 16.2344 9.07236 16.1663 9.11956C16.0824 9.14578 16.009 9.11956 15.9408 9.05663C15.9146 9.03042 15.8726 8.96224 15.8149 8.85737C15.8044 8.77347 15.8044 8.71054 15.8044 8.66859C15.8044 8.34347 15.8936 8.03409 16.0666 7.75092C16.0247 7.8925 15.9932 8.01311 15.967 8.11799C15.9408 8.21762 15.9303 8.31201 15.9303 8.39591C15.9303 8.4903 15.946 8.5742 15.9827 8.64762C16.0142 8.68957 16.0509 8.72627 16.0824 8.76298C16.1138 8.79969 16.1558 8.80493 16.1977 8.7892L16.3603 8.52701L16.355 8.51652ZM12.1128 3.50865C12.0813 3.60304 12.0446 3.69219 12.0131 3.78658C11.903 3.68694 11.7929 3.65024 11.688 3.67121C11.5884 3.80755 11.5307 4.03828 11.5255 4.36864C11.515 4.699 11.4678 4.93498 11.3734 5.06607C11.3157 5.01364 11.2108 4.80388 11.0588 4.42632C10.9486 4.14316 10.7704 3.99633 10.5187 3.99633C10.4662 3.95438 10.4452 3.90194 10.4452 3.84426C10.4452 3.8128 10.4557 3.7656 10.4819 3.70792C10.5082 3.65024 10.5187 3.60304 10.5187 3.57158C10.5763 3.47719 10.6445 3.43524 10.7179 3.43524C10.7494 3.43524 10.7808 3.45097 10.8071 3.48768C10.9329 3.61353 11.0378 3.77609 11.1217 3.9806C11.2056 4.17987 11.2895 4.36864 11.3734 4.54693C11.4049 4.32669 11.4416 4.1117 11.473 3.89145C11.5307 3.65024 11.6356 3.46146 11.7877 3.32512C11.8453 3.33561 11.9083 3.34609 11.9764 3.36183C12.0446 3.37756 12.0918 3.43 12.1128 3.5139V3.50865ZM12.139 5.5118C12.139 5.6796 12.0813 5.84216 11.9712 5.99423C11.8558 6.15155 11.709 6.26691 11.5255 6.34033C11.515 6.34033 11.4521 6.3613 11.3314 6.40325C11.2108 6.4452 11.1164 6.45569 11.0483 6.43996C11.2161 6.35606 11.3262 6.30362 11.3734 6.2774C11.5727 6.16203 11.7614 6.01521 11.9397 5.8474C11.8244 5.83167 11.7195 5.81594 11.6251 5.80545C11.5307 5.79497 11.4416 5.78448 11.3472 5.78448C11.2108 5.78448 11.0955 5.80545 10.9958 5.84216C10.8962 5.87887 10.8176 5.94704 10.7546 6.03618C10.7284 5.98374 10.7441 5.92082 10.7913 5.83692C10.8647 5.74253 10.9172 5.6796 10.9434 5.63765C11.0116 5.57997 11.0955 5.53802 11.1951 5.5118C11.2947 5.48558 11.3944 5.47509 11.4992 5.47509C11.6094 5.47509 11.7142 5.47509 11.8191 5.48558C11.924 5.49607 12.0289 5.50131 12.139 5.5118ZM11.473 7.77714C11.4992 7.82958 11.494 7.89775 11.4678 7.99214C11.4363 8.08653 11.3996 8.1914 11.3472 8.30677C11.2947 8.3592 11.2371 8.38018 11.1689 8.38018C11.1164 8.38018 11.0745 8.36445 11.043 8.32774C10.9696 8.20189 10.9277 8.08128 10.9277 7.96067C10.9277 7.83482 10.9644 7.6775 11.043 7.49397C11.1584 7.2108 11.2213 7.04824 11.2318 7.01678C11.2318 7.07446 11.2161 7.15312 11.1794 7.258C11.106 7.49397 11.064 7.64604 11.064 7.70897C11.064 7.83482 11.1112 7.94494 11.2004 8.03408C11.258 8.04982 11.3052 8.04457 11.3367 8.00787C11.3682 7.9764 11.4101 7.8925 11.4625 7.76665L11.473 7.77714ZM13.2087 10.268C12.9833 10.7137 12.5166 11.0703 11.8139 11.3377C10.9172 11.6838 10.3561 11.9407 10.1411 12.119C10.1988 11.9932 10.2879 11.8568 10.4033 11.7153C10.5606 11.537 10.6812 11.4111 10.7546 11.3272C10.5711 11.2119 10.4348 11.1227 10.3508 11.065C10.1935 10.9549 10.0729 10.8343 9.99951 10.698C10.2355 10.247 10.4819 9.89041 10.7441 9.6387C11.106 9.29261 11.5045 9.1248 11.9397 9.1248L12.139 9.37651C12.1705 9.44468 12.1914 9.51285 12.1914 9.5915C12.1914 9.70687 12.1338 9.83797 12.0236 9.97955C11.9083 10.1211 11.7981 10.2575 11.688 10.3833C11.6775 10.3728 11.6356 10.2994 11.5569 10.1631C11.4783 10.0267 11.3944 9.9376 11.3105 9.90613C11.0745 9.87992 10.8752 9.94284 10.7074 10.0949C11.0273 10.441 11.4363 10.6088 11.9397 10.6088C12.0761 10.6088 12.2334 10.5878 12.4169 10.5459C12.6791 10.4515 12.9413 10.3623 13.2087 10.268Z" fill="currentColor"/>
</svg>
