<svg width="40" height="16" viewBox="0 0 40 16" fill="none" xmlns="http://www.w3.org/2000/svg">
<path fill-rule="evenodd" clip-rule="evenodd" d="M24.6632 3.8937C24.6971 4.08429 24.6378 4.24099 24.4811 4.37229C24.4133 4.39347 24.3582 4.38077 24.3117 4.33842C24.2651 4.29606 24.2354 4.241 24.2142 4.18171C24.2058 4.13512 24.2058 4.07157 24.2058 3.98686C24.2058 3.83015 24.2269 3.68192 24.2651 3.54638C24.3074 3.40661 24.3667 3.2499 24.4472 3.07201C24.426 3.17366 24.4048 3.28801 24.3794 3.41931C24.354 3.54637 24.3455 3.63957 24.3455 3.69463C24.3455 3.84287 24.3794 3.97416 24.4472 4.09275C24.5023 4.09275 24.5488 4.06734 24.5827 4.01652C24.6208 3.96569 24.6463 3.92757 24.659 3.89792L24.6632 3.8937ZM26.6031 4.5629C26.6496 4.51631 26.6751 4.46124 26.6751 4.40195C26.6751 4.2537 26.6031 4.14782 26.4633 4.08852C26.5183 4.05464 26.5438 3.99111 26.5438 3.8937C26.5438 3.83863 26.5353 3.76239 26.5226 3.66074C26.5014 3.51673 26.4252 3.41508 26.2896 3.35578C26.1965 3.38119 26.1117 3.43203 26.0355 3.50826C25.9593 3.5845 25.9042 3.66921 25.8618 3.77086C25.828 3.82592 25.811 3.87251 25.811 3.91487C25.811 3.99534 25.8746 4.08005 26.0059 4.16476C26.1329 4.24947 26.2092 4.30453 26.2303 4.33418C25.9847 4.65184 25.6458 4.98645 25.2138 5.32952C24.9766 5.52012 24.6293 5.78272 24.1677 6.12155C24.5954 5.90978 24.9893 5.66837 25.3451 5.38882C25.739 5.08387 26.0736 4.7535 26.3532 4.39348L26.5861 4.60525L26.6073 4.5629H26.6031ZM22.5878 4.5629C22.5624 4.60949 22.5285 4.63491 22.4946 4.63491C22.4735 4.63491 22.4438 4.6222 22.4015 4.59255C22.3125 4.53325 22.2574 4.49937 22.2278 4.49937C22.033 4.80432 21.7788 5.0881 21.4654 5.35493C21.3765 5.43117 20.8682 5.78696 19.9406 6.43075C20.6649 5.77425 21.3934 5.11775 22.1261 4.45701C22.105 4.40195 22.0287 4.32995 21.8932 4.24524C21.7577 4.15629 21.7068 4.0631 21.7407 3.96145C21.7746 3.8598 21.8424 3.75816 21.9483 3.65227C22.0541 3.54638 22.1516 3.49556 22.2363 3.49556C22.3167 3.49556 22.3803 3.55484 22.4311 3.6692C22.4311 4.00804 22.4819 4.30453 22.5836 4.5629H22.5878ZM20.4023 3.23295C20.4277 3.20753 20.4447 3.1779 20.4447 3.15248C20.4447 3.07201 20.3684 3.02965 20.2117 3.02965C20.0889 3.08895 20.0042 3.23719 19.9576 3.46591C19.911 3.69462 19.8729 3.83016 19.8475 3.87251C19.7712 3.71156 19.695 3.54215 19.6145 3.36426C19.534 3.18637 19.4239 3.06777 19.2884 3C19.2291 3.05506 19.1867 3.11859 19.1698 3.19483C19.1528 3.27107 19.1359 3.34307 19.1232 3.41931C19.1232 3.47861 19.1698 3.52943 19.2672 3.56331C19.2884 3.57179 19.3223 3.58449 19.3688 3.60567L19.4112 3.54638C19.4578 3.61415 19.5467 3.77933 19.6738 4.04617C19.7331 4.169 19.7924 4.26642 19.8475 4.34266C19.894 4.20712 19.9406 4.06734 19.9915 3.92757C20.0126 3.85133 20.0211 3.76662 20.0211 3.67344C19.9872 3.53791 20.0423 3.44049 20.1821 3.38543C20.3261 3.32613 20.3981 3.28378 20.4065 3.24989L20.4023 3.23295ZM28.0558 11.4752L27.628 12.1275C27.3824 12.0004 27.141 11.8691 26.8953 11.7421C26.8699 11.7548 26.764 11.8945 26.5819 12.1571C26.5056 12.2673 26.4336 12.3181 26.3574 12.3181C26.2896 12.3181 26.2092 12.2757 26.1117 12.1868C26.0906 12.1529 26.027 12.1148 25.9127 12.0682C25.8025 12.0258 25.7433 11.975 25.7433 11.9199C25.7433 11.8861 25.7644 11.8395 25.8025 11.7759C25.8957 11.6319 25.9677 11.5303 26.0143 11.4625C26.1033 11.3355 26.2007 11.2846 26.3108 11.31L26.8911 11.615L27.3782 11.1279L28.0474 11.4752H28.0558ZM27.5052 6.51545C27.4713 6.57475 27.412 6.61287 27.3273 6.62134C27.2426 6.62981 27.1833 6.64676 27.1494 6.66794C27.2638 6.89242 27.3527 7.12113 27.4205 7.35408C27.484 7.58704 27.5179 7.82846 27.5179 8.06988C27.5179 8.31131 27.4883 8.51884 27.4332 8.70521C27.3739 8.89157 27.2765 9.07369 27.1325 9.24735C27.0224 9.37018 26.8741 9.4676 26.6835 9.54384C26.4929 9.62008 26.315 9.68784 26.1456 9.75561C26.0313 10.1876 25.8237 10.5942 25.5272 10.967C25.2562 11.3058 24.9131 11.6192 24.5023 11.903C24.1211 12.1656 23.7187 12.3901 23.2909 12.5722C22.8631 12.7543 22.4226 12.8983 21.9694 13C21.7407 13 21.5247 12.9407 21.3256 12.8221C21.1266 12.7035 20.9699 12.5383 20.864 12.3308C20.8301 12.2207 20.8047 12.1105 20.792 11.9962C20.7793 11.8818 20.7708 11.7632 20.7708 11.6404C20.7708 11.382 20.8047 11.1152 20.8724 10.8441C20.9402 10.5688 21.0292 10.285 21.135 9.99703H21.207C21.1647 10.1664 21.1308 10.3359 21.1012 10.5053C21.0715 10.6747 21.0546 10.8357 21.0546 10.9924C21.0546 11.1618 21.0757 11.3227 21.1223 11.471C21.1647 11.6192 21.2409 11.7505 21.3426 11.8564C21.5925 12.0682 21.9059 12.1698 22.2786 12.1698C23.5874 11.8395 24.7606 11.1449 25.7941 10.086C25.7602 9.97586 25.6755 9.92503 25.54 9.92503C25.2774 9.96738 25.0105 10.0055 24.7479 10.0479C24.443 10.014 24.2397 9.98009 24.138 9.9462C23.922 9.86996 23.7907 9.73443 23.7399 9.5396C23.7822 9.1457 23.8373 8.85345 23.9135 8.65438C24.0364 8.34096 24.2312 8.1207 24.5023 7.98517C24.5827 7.97246 24.6463 7.964 24.6971 7.964C24.947 7.964 25.1884 8.05294 25.4171 8.22659C25.6204 8.38331 25.7983 8.59084 25.955 8.84497C26.0228 8.89156 26.1075 8.91698 26.2092 8.91698C26.3532 8.91698 26.5226 8.86616 26.7259 8.76451C26.853 8.70521 27.0224 8.60356 27.2257 8.45955C27.0224 7.81576 26.8233 7.17195 26.6242 6.52816C26.6242 6.39262 26.6454 6.26557 26.6835 6.14274C26.7259 6.01991 26.7937 5.89707 26.8953 5.77848C26.997 5.83778 27.1071 5.96484 27.2299 6.15121C27.3527 6.33757 27.4417 6.4604 27.5052 6.52393V6.51545ZM21.2028 7.26937C21.1689 7.27784 21.135 7.31597 21.1054 7.38797C21.0757 7.45998 21.0249 7.48539 20.9571 7.46421C20.8767 7.38797 20.8343 7.29479 20.8343 7.18043C20.8343 7.11266 20.8428 7.04066 20.864 6.96019C20.8851 6.88395 20.9063 6.79076 20.936 6.68911C20.8682 6.81617 20.8258 6.90512 20.8047 6.95171C20.7369 7.10842 20.703 7.26091 20.703 7.40915C20.703 7.48539 20.703 7.54468 20.7115 7.59127C20.72 7.63786 20.7538 7.68022 20.8174 7.71834C20.8809 7.75646 20.9444 7.77339 21.0037 7.77339C21.08 7.65903 21.1308 7.56586 21.1562 7.49809C21.1816 7.43032 21.1986 7.35409 21.1986 7.26514L21.2028 7.26937ZM17.7678 4.34266C17.7255 4.40195 17.6746 4.49513 17.6153 4.61796C17.5052 4.83397 17.412 4.97797 17.3316 5.04574C17.3104 5.02456 17.196 4.94833 16.9843 4.81279C16.836 4.71961 16.7767 4.61796 16.8106 4.50783C16.9123 4.32571 16.9885 4.19018 17.0436 4.10123C17.0986 4.01228 17.1537 3.96993 17.2172 3.96993C17.2638 3.96993 17.3146 3.99534 17.3697 4.04193C17.484 4.10969 17.5561 4.15205 17.5815 4.17323C17.6577 4.21982 17.717 4.27912 17.7636 4.34688L17.7678 4.34266ZM14.9512 3.12283C14.9639 3.16519 14.9597 3.20755 14.9428 3.25837C14.9216 3.3092 14.9004 3.36002 14.8835 3.41508C14.8496 3.38967 14.8157 3.36426 14.7818 3.34731C14.7479 3.33037 14.7098 3.33037 14.6717 3.34307C14.6124 3.4659 14.5616 3.67344 14.5277 3.96145C14.4938 4.2537 14.4472 4.46125 14.3837 4.57984C14.3286 4.52055 14.2693 4.3723 14.2015 4.14359C14.0914 3.78357 13.922 3.62261 13.6933 3.6565C13.6594 3.62261 13.6425 3.58026 13.6425 3.5252C13.6425 3.49131 13.6594 3.43626 13.689 3.36426C13.7187 3.28802 13.7356 3.24142 13.7356 3.22024L13.9093 3.06777C14.0194 3.17789 14.1126 3.33461 14.1931 3.54638C14.3074 3.85134 14.3794 4.02922 14.4048 4.08428C14.4472 3.80474 14.4811 3.60144 14.5065 3.46591C14.5616 3.20754 14.659 3.08048 14.803 3.08048C14.8496 3.08048 14.9004 3.09318 14.9555 3.12283H14.9512ZM22.7996 7.6548L22.5666 8.23507L22.6386 8.86616C22.5285 8.93392 22.4184 8.9678 22.304 8.9678C22.2447 8.9678 22.1643 8.9551 22.0668 8.93393C21.9694 8.90851 21.8805 8.88733 21.7958 8.86616C21.6518 8.84498 21.584 8.78992 21.584 8.6925C21.584 8.65862 21.6009 8.59085 21.6306 8.48497C21.6602 8.37908 21.6687 8.30707 21.656 8.26471C21.351 8.64591 21.1562 8.87462 21.0673 8.9551C20.7962 9.20076 20.5209 9.30664 20.2456 9.28123C20.1439 9.2897 20.0465 9.26429 19.9576 9.20923C19.8644 9.15417 19.7839 9.07794 19.7077 8.97628C19.6272 8.91699 19.5849 8.83227 19.5849 8.72215C19.5849 8.70097 19.5933 8.64167 19.6103 8.54002C19.6272 8.43836 19.6314 8.36213 19.6272 8.31554C19.2799 8.67555 19.0088 8.92121 18.814 9.05675C18.4879 9.28123 18.1575 9.39135 17.8187 9.39135C17.6831 9.37865 17.5561 9.34477 17.4417 9.29395C17.3273 9.24312 17.2299 9.17534 17.1452 9.0864C17.3951 8.90427 17.5942 8.65015 17.7466 8.32401C17.8695 8.06141 17.9584 7.74799 18.0092 7.38797C17.9838 7.14232 17.9161 6.93054 17.8144 6.75265C17.7128 6.57476 17.5688 6.43075 17.3782 6.3291C17.3231 6.30792 17.2765 6.29945 17.2342 6.29945C17.1664 6.29945 17.0944 6.31216 17.0224 6.34181C16.997 6.35028 16.9292 6.37993 16.8275 6.43499C16.6327 6.74842 16.4802 7.03642 16.3786 7.29902C16.2515 7.62939 16.1838 7.94282 16.1838 8.23507C16.1838 8.42567 16.2092 8.60356 16.2558 8.77298C15.612 9.02287 15.1545 9.18805 14.8835 9.26005C14.3837 9.40406 13.8966 9.47183 13.4307 9.47183C13.274 9.47183 13.1088 9.46336 12.9309 9.44218C12.5666 9.39559 12.2405 9.28547 11.9567 9.11605C11.6391 8.92545 11.4231 8.67556 11.3045 8.36213C11.2918 8.31554 11.2833 8.25201 11.2833 8.1673C11.2833 8.04447 11.3172 7.90047 11.3849 7.73105C11.4188 7.63787 11.4781 7.49386 11.5586 7.30326C11.7746 7.25667 11.9356 7.09149 12.0372 6.81618C12.0965 6.5917 12.1643 6.36721 12.232 6.13426L11.9991 6.46887C11.9525 6.50275 11.9101 6.51969 11.8763 6.51969C11.8212 6.51969 11.7704 6.49852 11.7238 6.4604C11.6772 6.41805 11.6306 6.36721 11.5925 6.30792C11.5501 6.1512 11.5332 5.99873 11.5332 5.85049C11.5332 5.52012 11.6433 5.12622 11.8678 4.67302C12.1939 4.00805 12.3676 3.64803 12.3845 3.59721C11.9186 4.38501 11.6306 4.88902 11.5205 5.11351C11.3511 5.46082 11.2282 5.77848 11.1562 6.07073C11.135 6.17238 11.1223 6.24862 11.1139 6.30368C11.1054 6.35874 11.1054 6.43074 11.1054 6.51545C11.1054 6.69334 11.1308 6.84159 11.1816 6.96865C11.2325 7.09572 11.3172 7.19737 11.44 7.27785C11.3934 7.39221 11.3256 7.56163 11.2367 7.78187C11.1478 8.00212 11.0842 8.18 11.0419 8.31554C11.0334 8.35789 11.0249 8.41296 11.0165 8.48497C11.008 8.55697 10.9995 8.62473 10.9995 8.6925C10.9995 8.91698 11.0461 9.12452 11.135 9.32358C11.2282 9.51842 11.368 9.67937 11.5586 9.8022C11.8085 9.96315 12.0711 10.0817 12.3422 10.1537C12.6132 10.2258 12.897 10.2596 13.1977 10.2596C13.3544 10.2596 13.4985 10.2512 13.634 10.2385C13.7695 10.2257 13.9093 10.2046 14.0491 10.1792C14.3964 10.1199 14.8199 10.0055 15.3197 9.84455C15.6458 9.73443 16.0397 9.59466 16.4972 9.41677C16.6751 9.65395 16.8275 9.83184 16.9546 9.9462C17.1579 10.1241 17.3612 10.2088 17.5645 10.2088C17.9118 10.2088 18.2253 10.1283 18.509 9.97161C18.7928 9.81067 19.0512 9.58619 19.2799 9.29395L19.4027 9.67936C19.4705 9.80643 19.5594 9.90809 19.6653 9.98009C19.7754 10.0521 19.9025 10.0987 20.0508 10.1156C20.3303 10.0817 20.559 10.0224 20.7411 9.9335C20.9699 9.82337 21.1477 9.66243 21.2706 9.44642C21.3638 9.55654 21.4993 9.63701 21.6772 9.69207C21.6984 9.70054 21.8551 9.73443 22.1431 9.8022C22.2786 9.78949 22.3972 9.7556 22.4989 9.70478C22.6005 9.65395 22.681 9.57348 22.7445 9.46759C22.9139 9.1711 22.9987 8.83651 22.9987 8.47226C22.9987 8.1546 22.9309 7.88352 22.7954 7.65904L22.7996 7.6548ZM14.8792 4.76621C14.9004 4.80856 14.9089 4.84244 14.9089 4.87632C14.9089 4.94409 14.8792 5.01186 14.8157 5.08387C14.7522 5.15587 14.6971 5.2194 14.642 5.28294C14.5489 5.3507 14.4514 5.40153 14.3583 5.43965C14.2651 5.47777 14.1592 5.49471 14.0448 5.49471C14.0702 5.4693 14.2058 5.38458 14.443 5.24904C14.5531 5.18975 14.6336 5.12198 14.6886 5.05422C14.6081 5.0288 14.5319 5.00339 14.4641 4.98645C14.3964 4.9695 14.3201 4.96103 14.2397 4.96103C14.1168 4.96103 14.0237 4.99068 13.9559 5.05422C13.9347 5.01186 13.9432 4.9695 13.9813 4.91868C14.0194 4.86785 14.0575 4.81703 14.0999 4.76197C14.1677 4.71961 14.2524 4.70266 14.354 4.70266C14.4133 4.70266 14.5065 4.71114 14.6293 4.73231C14.7522 4.75349 14.8369 4.76197 14.8835 4.76197L14.8792 4.76621ZM14.1253 7.48114C14.1253 7.69715 14.0491 7.86235 13.9008 7.98094C13.7907 7.98094 13.706 7.93859 13.6467 7.84964C13.6255 7.81576 13.6086 7.75646 13.5959 7.67599C13.5959 7.53198 13.6213 7.39643 13.6679 7.26937C13.7145 7.1423 13.7865 7.00678 13.8796 6.87124C13.8712 6.90513 13.85 6.9856 13.8119 7.10843C13.7738 7.2355 13.7568 7.32868 13.7568 7.38797C13.7568 7.50233 13.8034 7.60822 13.9008 7.7014C13.9474 7.7014 13.9855 7.66752 14.0109 7.59975C14.0364 7.53198 14.0575 7.48962 14.0702 7.47692H14.1211L14.1253 7.48114ZM26.3447 3.96569C26.2685 3.92334 26.2007 3.88098 26.1329 3.83439C26.099 3.81321 26.0694 3.79203 26.0397 3.77509C26.1414 3.84286 26.243 3.9064 26.3447 3.96993V3.96569ZM22.2363 4.1097V3.96569C22.249 3.85557 22.2024 3.80474 22.0923 3.80474C22.0372 3.80474 21.9948 3.83439 21.961 3.89792C22.0414 3.99957 22.1346 4.07158 22.2363 4.1097ZM25.2138 9.16263C25.1545 9.09487 25.074 9.03557 24.9809 8.98051C24.8877 8.92545 24.7987 8.87039 24.7183 8.81956C24.6251 8.80685 24.5404 8.79839 24.4726 8.79839C24.3921 8.79839 24.3201 8.81109 24.2608 8.83227C24.2015 8.85768 24.1507 8.90004 24.1084 8.9678C24.1973 9.04404 24.3074 9.0991 24.443 9.13722C24.5785 9.17534 24.714 9.19229 24.8496 9.19229C24.9724 9.19229 25.0952 9.18381 25.2138 9.16263ZM17.5391 8.14612C17.4163 8.22659 17.2892 8.30707 17.1579 8.39178C17.0266 8.47226 16.908 8.53156 16.8064 8.56544C16.7259 8.43838 16.6666 8.2986 16.6327 8.15036C16.5988 8.00212 16.5819 7.83693 16.5819 7.66328C16.5819 7.58281 16.5819 7.49809 16.5904 7.40915C16.5988 7.3202 16.6073 7.24397 16.62 7.1762C16.6878 7.12961 16.7513 7.10419 16.8148 7.10419C16.925 7.10419 17.0351 7.15926 17.1494 7.26514C17.2257 7.34138 17.3062 7.43879 17.3951 7.56162C17.4417 7.66327 17.4756 7.75223 17.4925 7.82423C17.5095 7.90047 17.5264 8.00635 17.5391 8.15036V8.14612Z" fill="currentColor"/>
</svg>
