<svg width="40" height="16" viewBox="0 0 40 16" fill="none" xmlns="http://www.w3.org/2000/svg">
<path fill-rule="evenodd" clip-rule="evenodd" d="M27.5592 4.91843C27.4926 4.86017 27.4261 4.79359 27.3595 4.72701C27.2929 4.66042 27.2388 4.58552 27.2013 4.50645C27.1348 4.56471 27.1015 4.64793 27.1015 4.75613C27.1015 4.81023 27.1015 4.86433 27.1098 4.92675C27.1181 4.98501 27.1223 5.04744 27.1306 5.1057C27.1306 5.1598 27.1306 5.19725 27.1223 5.22638C27.1223 5.48023 27.1472 5.80483 27.2013 6.20433C27.322 7.09488 27.3803 7.665 27.3803 7.91052C27.3803 8.53474 27.3678 8.98002 27.3387 9.23803C27.2929 9.71244 27.1805 10.1244 26.9974 10.4781C27.0432 10.3533 27.0765 10.2285 27.0931 10.1078C27.1098 9.98709 27.1181 9.83312 27.1181 9.65002C27.1181 9.57095 27.1181 9.44611 27.1098 9.27965C27.1015 9.11319 27.1015 8.98835 27.1015 8.90095L26.6728 3.94881L26.5438 3.57844C26.6021 3.4536 26.6645 3.32459 26.7228 3.19975C26.7644 3.12484 26.8185 3.05826 26.8934 3C27.0474 3.31211 27.1805 3.63254 27.2971 3.96546C27.4136 4.29421 27.501 4.61464 27.5634 4.91843H27.5592ZM22.707 3.64086C21.9829 3.88639 21.4377 4.06949 21.0798 4.19017C20.4348 4.41073 19.9021 4.62713 19.4818 4.83937C19.4818 4.78111 19.511 4.71452 19.5734 4.64794C19.5859 4.62713 19.6982 4.5439 19.9021 4.39825L23.8056 3.07074C23.7515 3.21223 23.5975 3.32875 23.3478 3.42031C23.1356 3.49521 22.9234 3.56596 22.707 3.64086ZM23.4768 4.89763C23.4768 4.77278 23.3978 4.66874 23.2355 4.58968C23.094 4.53558 22.9608 4.48148 22.8276 4.43154L22.4781 4.88098C22.3907 4.81439 22.295 4.7603 22.1951 4.72285C22.0911 4.68123 21.9745 4.64794 21.8414 4.61464C21.7623 4.68955 21.6916 4.77695 21.625 4.88514C21.5626 4.99334 21.5085 5.10154 21.4585 5.2139C21.5501 5.23886 21.6624 5.28048 21.7873 5.33874C21.9121 5.397 22.0328 5.4511 22.1452 5.5052C22.2034 5.46358 22.2575 5.38868 22.3033 5.27632C22.3491 5.16396 22.399 5.08489 22.4531 5.03496C22.6862 5.14732 22.9192 5.25967 23.1522 5.37619L23.4727 4.90595L23.4768 4.89763ZM24.2758 7.20308C24.2883 7.29047 24.2842 7.36954 24.255 7.44444C24.2301 7.51935 24.1801 7.58593 24.1135 7.64419C24.047 7.64419 23.9887 7.61922 23.9429 7.56512C23.8971 7.48605 23.8638 7.4278 23.843 7.39451C23.843 7.27382 23.8555 7.17811 23.8763 7.09904C23.9013 7.02413 23.9429 6.9201 24.0012 6.79525C24.0012 6.82855 23.9929 6.88681 23.9804 6.97004C23.9679 7.05326 23.9596 7.1032 23.9596 7.11569C23.9596 7.23637 24.0095 7.32376 24.1094 7.3737C24.151 7.38202 24.1801 7.35705 24.2051 7.29879C24.2301 7.24053 24.2509 7.2114 24.2717 7.20308H24.2758ZM23.0981 6.92426C23.0732 6.91594 23.0482 6.91593 23.0232 6.91593H22.9775C22.9025 6.91593 22.8401 6.93258 22.786 6.96588C22.7319 6.99917 22.657 7.05743 22.5571 7.14482C22.503 7.1573 22.4656 7.16562 22.4365 7.16562C22.3699 7.16562 22.3033 7.14065 22.2367 7.08656C22.1909 6.99916 22.166 6.89097 22.166 6.7578C22.166 6.53724 22.2242 6.35414 22.3366 6.20849C22.3449 6.22929 22.3449 6.26259 22.3449 6.30836C22.3449 6.34166 22.3366 6.40407 22.3241 6.49979C22.3116 6.59134 22.3033 6.64128 22.3033 6.6496C22.3033 6.74948 22.3408 6.82438 22.4115 6.87848C22.5239 6.89929 22.6196 6.85768 22.7028 6.7578C22.7111 6.73283 22.7111 6.68705 22.7111 6.62879C22.7111 6.57469 22.7111 6.5206 22.7028 6.45818C22.6945 6.39992 22.6903 6.33749 22.682 6.27923C22.682 6.17103 22.7153 6.08781 22.7819 6.02955C22.8068 6.07532 22.8235 6.196 22.8235 6.38327C22.8235 6.57053 22.8984 6.67874 23.0524 6.69954C23.0648 6.65377 23.0607 6.5747 23.0316 6.47066C23.0066 6.36246 22.9899 6.28755 22.9899 6.24178C22.9899 6.15439 23.0232 6.08364 23.0898 6.03371C23.1314 6.12526 23.1564 6.21681 23.173 6.30004C23.1897 6.38327 23.198 6.47066 23.198 6.56637C23.198 6.71202 23.1606 6.83687 23.0898 6.93674L23.0981 6.92426ZM20.26 3.22056C19.7274 3.36621 19.1531 3.54099 18.533 3.74074C18.146 3.86558 17.5759 4.06117 16.8268 4.31918C16.7519 4.36496 16.6895 4.4357 16.6354 4.52726C16.6104 4.57303 16.5896 4.62297 16.5771 4.67707C17.0848 4.44403 17.6508 4.21931 18.275 4.00707C18.8493 3.81981 19.4236 3.63254 20.002 3.44943C20.0603 3.44111 20.1102 3.4203 20.1518 3.37869C20.1934 3.33707 20.2267 3.28714 20.26 3.22056ZM21.1589 6.32501C21.1714 6.40407 21.1589 6.48314 21.1298 6.56637C21.0757 6.65792 21.0382 6.72867 21.0091 6.77445C20.8842 6.87432 20.801 6.93258 20.7677 6.95339C20.6678 7.00749 20.5721 7.02413 20.4764 7.00333C20.3973 6.94923 20.3557 6.85768 20.3557 6.72451C20.3557 6.66625 20.3682 6.5955 20.3973 6.51644C20.4556 6.39159 20.5055 6.30004 20.5388 6.24594C20.5971 6.15439 20.6678 6.07116 20.7469 6.00457C20.8218 6.05035 20.9009 6.09613 20.9883 6.14607C21.0757 6.19184 21.1298 6.25426 21.1589 6.32501ZM19.2405 6.08364C19.2738 6.29171 19.2155 6.44985 19.0615 6.56221C19.0033 6.57054 18.9408 6.54973 18.8826 6.50811C18.8243 6.4665 18.791 6.4124 18.791 6.35414C18.791 6.07532 18.8701 5.82147 19.0324 5.59675C19.0324 5.65085 19.0116 5.73408 18.9741 5.84644C18.9325 5.9588 18.9159 6.04203 18.9159 6.09612C18.9159 6.18768 18.9575 6.25842 19.0365 6.3042C19.0782 6.3042 19.1115 6.2834 19.1406 6.23762C19.1697 6.19184 19.2072 6.1419 19.2446 6.08364H19.2405ZM16.3732 3.84478C16.3607 3.93633 16.3316 4.02372 16.29 4.10279C16.2484 4.18185 16.1901 4.24427 16.1235 4.29421C16.0445 4.31502 15.9654 4.25676 15.8946 4.12359C15.8863 4.0903 15.8863 4.04036 15.8863 3.97378C15.8863 3.84061 15.9113 3.71577 15.9571 3.60341C16.0028 3.49105 16.0736 3.36205 16.1651 3.21223C16.1568 3.26633 16.1318 3.35789 16.0902 3.48689C16.0486 3.6159 16.0236 3.71577 16.0236 3.78235C16.0236 3.89055 16.0569 3.97378 16.1235 4.04037C16.1776 4.04869 16.2234 4.0154 16.2567 3.94881C16.2941 3.88223 16.3316 3.84477 16.3732 3.84061V3.84478ZM25.4119 4.78527C25.4119 4.51893 25.2996 4.14856 25.0707 3.67831C24.9375 3.3995 24.846 3.18726 24.7919 3.03745C24.692 3.08323 24.6088 3.17478 24.5422 3.30794C24.5089 3.38285 24.4589 3.49105 24.3924 3.6367C24.5255 4.26092 24.6337 4.86017 24.7128 5.43445C24.771 5.85892 24.846 6.47066 24.9333 7.26134C24.9874 7.74823 25.0457 8.35996 25.1123 9.1007C25.0249 9.18809 24.9292 9.25884 24.821 9.3171C24.7128 9.37536 24.6004 9.41698 24.4797 9.45027C24.434 9.45859 24.3715 9.46691 24.2966 9.4794C24.2217 9.49188 24.1302 9.50021 24.0303 9.50021C23.8971 9.50021 23.7806 9.4794 23.6807 9.43362C23.5809 9.38785 23.5018 9.3171 23.4394 9.20891C23.3853 9.134 23.3603 9.05909 23.3603 8.98002C23.3603 8.93425 23.3894 8.81773 23.4519 8.63046C23.4768 8.55139 23.4935 8.48065 23.4935 8.42239C23.4685 8.43071 23.173 8.56804 22.6154 8.84269C22.4281 8.93009 22.2575 8.98834 22.0952 9.02163C21.9745 8.78027 21.8039 8.58884 21.575 8.44319C21.3503 8.29754 21.1048 8.22263 20.8468 8.22263C20.6595 8.31002 20.5097 8.45984 20.3973 8.67207C20.31 8.8635 20.2267 9.05909 20.1477 9.25052C20.1352 9.3171 20.1269 9.3712 20.1269 9.40865C20.1269 9.58344 20.1976 9.72076 20.3349 9.8248C20.4764 9.92884 20.6429 9.97877 20.8426 9.97877C20.955 9.97877 21.1256 9.94964 21.3586 9.89554C21.5917 9.84145 21.7415 9.80399 21.8122 9.79151C21.8663 9.87058 21.9038 9.96629 21.9204 10.0828C21.6083 10.4074 21.3753 10.6446 21.2213 10.7903C20.9633 11.0358 20.7178 11.248 20.4931 11.4186C20.2725 11.5601 20.0561 11.6975 19.8439 11.8389C19.3903 12.1178 19.0033 12.2593 18.687 12.2593C18.5788 12.2593 18.4789 12.2509 18.3874 12.2301C18.2958 12.2093 18.1959 12.1719 18.0961 12.1219C17.9379 12.0429 17.8214 11.9305 17.7507 11.789C17.6799 11.6475 17.6466 11.4852 17.6466 11.3063C17.6466 11.1398 17.6716 10.9817 17.7257 10.836L17.9254 10.2867C18.1252 10.2201 18.3249 10.1494 18.5247 10.0786C18.7702 9.9871 18.9492 9.87057 19.0657 9.73741C19.2321 9.40449 19.3154 9.04661 19.3154 8.66791C19.3154 8.44736 19.2862 8.24344 19.2321 8.06034C19.1739 7.87307 19.0865 7.70661 18.9658 7.56096L18.7744 8.20183C18.7744 8.20183 18.8493 8.4099 18.9741 8.75947C19.0157 8.87183 19.0449 8.98418 19.0657 9.08822C18.6329 9.30878 18.3416 9.44611 18.1959 9.50437C18.0503 9.56263 17.888 9.60841 17.7049 9.65002C17.3969 9.73741 17.1015 9.77902 16.8143 9.77902C16.4897 9.77902 16.1859 9.72076 15.9113 9.6084C15.6366 9.49604 15.4078 9.3171 15.2288 9.07989C15.1705 9.03412 15.0998 8.89679 15.0249 8.67207C14.95 8.44735 14.8251 8.33084 14.6504 8.33084C14.3965 8.5181 14.1135 9.00083 13.8014 9.77902C13.6475 10.1577 13.4685 10.4365 13.2604 10.6196C13.2063 10.6446 13.1439 10.6613 13.069 10.6613C12.9275 10.6613 12.8235 10.6155 12.7486 10.5198C12.5488 10.345 12.4115 10.1369 12.3324 9.89554C12.2575 9.65418 12.2159 9.36704 12.2159 9.04244C12.2159 8.85518 12.2242 8.6804 12.245 8.5181C12.2658 8.3558 12.2867 8.18934 12.3158 8.02289C12.2159 8.31003 12.141 8.5722 12.0911 8.80524C12.0411 9.04245 12.0162 9.29629 12.0162 9.57095C12.0162 9.84561 12.0536 10.1203 12.1244 10.3991C12.2159 10.5739 12.3158 10.7403 12.4157 10.9068C12.6362 11.273 12.8901 11.4395 13.173 11.4062C13.3853 11.298 13.5517 11.1481 13.6724 10.9484C13.7598 10.8069 13.843 10.5947 13.9263 10.3075C14.0095 10.0204 14.0802 9.80815 14.1427 9.66666C14.2425 9.42114 14.3674 9.22555 14.5214 9.08822C14.6795 9.10903 14.821 9.25468 14.9417 9.52933C15.0624 9.80399 15.1914 9.97045 15.3328 10.037C15.5118 10.1952 15.7199 10.3117 15.9529 10.3783C16.1859 10.4449 16.444 10.4781 16.7228 10.4781C16.91 10.4781 17.0765 10.4698 17.2263 10.4532C17.3761 10.4365 17.5551 10.4116 17.759 10.3783C17.6508 10.578 17.5717 10.7861 17.5135 11.0025C17.4552 11.2189 17.4302 11.4394 17.4302 11.6683C17.4302 11.8806 17.4594 12.0762 17.5135 12.2593C17.5717 12.4382 17.6591 12.6005 17.7798 12.7503C18.0045 12.9168 18.2708 13 18.5788 13C18.8118 13 19.0282 12.9501 19.228 12.8502C19.5609 12.6837 19.8855 12.4965 20.1976 12.2925C20.5388 12.0678 20.8385 11.8265 21.1048 11.5726C21.4169 11.273 21.6708 10.965 21.858 10.6529C22.0453 10.3408 22.1701 9.99958 22.2242 9.63337L23.173 9.11319C23.1855 9.16729 23.1939 9.20474 23.1939 9.22139C23.1855 9.28797 23.1814 9.35455 23.173 9.4253C23.1647 9.49604 23.1647 9.5543 23.173 9.60008C23.1855 9.72076 23.2147 9.82064 23.2563 9.90387C23.2979 9.9871 23.3686 10.0537 23.4602 10.1078C23.6017 10.1744 23.764 10.2077 23.9512 10.2077C24.1177 10.2077 24.28 10.1827 24.434 10.1369C24.5921 10.0911 24.7294 10.0329 24.8543 9.96213C24.9791 9.89138 25.0665 9.81232 25.1206 9.7166C25.1747 9.62505 25.2455 9.42114 25.3287 9.10903C25.3287 8.64294 25.2871 8.05202 25.208 7.3404C25.0415 5.8506 24.9583 4.88514 24.9583 4.44402L25.0499 4.30253C25.0832 4.34415 25.1414 4.42738 25.2246 4.55222C25.3079 4.67707 25.3661 4.7603 25.3994 4.79359L25.4119 4.78527ZM17.7507 6.2834L17.6924 6.48314C17.6383 6.46234 17.5925 6.44569 17.5467 6.43321C17.5051 6.42072 17.4635 6.4124 17.4302 6.4124C17.3512 6.4124 17.3012 6.46234 17.2804 6.56221C17.2388 6.93674 17.2138 7.1573 17.2013 7.23221C17.1889 7.30712 17.1514 7.4278 17.0931 7.60258C16.9392 7.32376 16.7852 7.04078 16.6354 6.75364C16.6354 6.8119 16.5979 6.84519 16.5272 6.84519C16.4939 6.84519 16.4564 6.84103 16.4107 6.82855C16.3691 6.82022 16.3274 6.8119 16.2941 6.80774C16.2609 6.80774 16.2442 6.77445 16.2442 6.71203C16.2567 6.63296 16.265 6.57886 16.265 6.55389C16.3108 6.45401 16.3399 6.39575 16.3566 6.38327C16.3982 6.32917 16.4481 6.3042 16.5147 6.3042C16.6271 6.37078 16.7228 6.47066 16.806 6.60382C16.9142 6.81606 17.0182 7.0283 17.1264 7.23221C17.1264 6.9742 17.1514 6.75364 17.2013 6.57886C17.2513 6.40407 17.3512 6.25843 17.4968 6.14607C17.6175 6.14607 17.7049 6.19184 17.7548 6.28755L17.7507 6.2834ZM15.774 5.18477C15.7282 5.21806 15.6658 5.30961 15.595 5.45526C15.5201 5.60091 15.4369 5.66749 15.3453 5.65501C15.2038 5.59675 15.104 5.54681 15.0374 5.51352C14.9292 5.45942 14.8293 5.40116 14.7378 5.33458C14.7169 5.35538 14.6795 5.41781 14.6296 5.51768C14.5755 5.62172 14.5214 5.69246 14.4589 5.73408C14.3591 5.72159 14.255 5.69247 14.151 5.65085C14.0428 5.60924 13.9429 5.56346 13.843 5.51768C13.8763 5.43029 13.9304 5.33458 14.0012 5.22638C14.0761 5.11818 14.1427 5.0183 14.2092 4.91843C14.434 4.97253 14.6504 5.05576 14.8501 5.16812L15.1997 4.76862L15.7781 5.18893L15.774 5.18477ZM14.846 3.6159C14.8917 3.70745 14.9167 3.79484 14.9167 3.8739C14.9167 4.01539 14.8668 4.14024 14.7669 4.2526C14.692 4.26508 14.6379 4.26508 14.6004 4.2526C14.563 4.24011 14.5006 4.20682 14.4173 4.15272C14.2176 4.44402 13.9471 4.71036 13.61 4.95172C13.4019 5.09737 13.0815 5.27632 12.6404 5.49271C12.4614 5.77153 12.3699 6.10445 12.3699 6.49147C12.3699 6.56638 12.374 6.64128 12.3865 6.71619C12.3949 6.79109 12.4157 6.89513 12.4406 7.01997C12.5155 7.16146 12.6321 7.22804 12.7985 7.22804C12.8401 7.15314 12.8734 7.09072 12.9025 7.03662C12.9317 6.98252 12.9691 6.94923 13.0066 6.93674C13.0066 7.14482 12.9816 7.33624 12.9275 7.51935C12.8734 7.70245 12.786 7.8481 12.657 7.95214C12.5655 7.95214 12.4739 7.92717 12.3907 7.8814C12.3075 7.83562 12.2284 7.7732 12.1576 7.70245C12.0494 7.46941 11.9995 7.22805 11.9995 6.98252C11.9995 6.74948 12.0453 6.49563 12.141 6.22514C12.2159 6.0129 12.399 5.61756 12.6986 5.03496C12.7111 5.04744 12.7278 5.05992 12.7486 5.07657C12.7694 5.12234 12.7652 5.16396 12.7403 5.19725C12.707 5.28464 12.6737 5.36787 12.6404 5.44694C13.0066 5.22638 13.2937 5.03912 13.4976 4.87682C13.7889 4.6521 14.047 4.39825 14.2675 4.11943C14.2467 4.09862 14.2009 4.08198 14.1343 4.06949C14.0636 4.05701 14.022 4.02788 14.0095 3.97794C14.0553 3.799 14.0969 3.64502 14.1343 3.52434C14.1718 3.3995 14.2301 3.29546 14.3091 3.20807C14.4173 3.20807 14.5172 3.24969 14.6171 3.33708C14.6753 3.39118 14.7544 3.47856 14.846 3.60757V3.6159ZM14.2883 7.14066C14.3008 7.24885 14.2925 7.34456 14.2633 7.43612C14.2342 7.52767 14.1801 7.59842 14.1094 7.65251C13.9637 7.65251 13.8763 7.57345 13.8514 7.41115C13.8514 7.24469 13.8722 7.09072 13.9179 6.94507C13.9596 6.80358 14.0261 6.65792 14.1135 6.51227C14.0802 6.65792 14.0511 6.78693 14.022 6.89097C13.997 6.99916 13.9804 7.06575 13.9804 7.09904C13.9804 7.24053 14.0386 7.33624 14.151 7.39034C14.1968 7.31127 14.2425 7.22805 14.2925 7.14066H14.2883ZM16.2068 11.4769C16.2068 11.5851 16.1735 11.6891 16.1069 11.7973C16.007 11.9305 15.9363 12.0262 15.8988 12.0886C15.8073 12.0762 15.7115 12.0429 15.62 11.9888C15.5284 11.9347 15.4369 11.8806 15.3495 11.8306C15.3703 11.7224 15.4119 11.6184 15.4785 11.5102C15.4868 11.5019 15.5576 11.402 15.6991 11.2022C15.774 11.2147 15.853 11.2522 15.9446 11.3104C16.0361 11.3687 16.1235 11.427 16.2109 11.4811L16.2068 11.4769ZM20.98 6.58302C20.98 6.50395 20.9383 6.43737 20.8593 6.38327C20.8343 6.36246 20.7552 6.32917 20.6304 6.2834C20.5846 6.36246 20.5555 6.41656 20.5513 6.43737C20.543 6.46234 20.543 6.50395 20.543 6.56221C20.543 6.61631 20.5638 6.67041 20.6013 6.73283C20.6678 6.75364 20.7427 6.73699 20.8218 6.68705C20.9009 6.63711 20.955 6.60382 20.98 6.58302ZM21.4086 9.22139C21.2962 9.23387 21.1839 9.24635 21.0798 9.25052C20.9591 9.25052 20.8509 9.23387 20.7511 9.20474C20.6512 9.17561 20.568 9.12984 20.5014 9.07158C20.4931 9.05077 20.4889 9.02996 20.4806 9.01332C20.4931 9.00499 20.5264 9.00499 20.5805 9.00499C20.7927 9.00499 21.0465 9.05077 21.3378 9.14648C21.3586 9.17145 21.3795 9.20058 21.4086 9.22555V9.22139ZM14.7669 3.96962C14.6753 3.9821 14.5963 3.96129 14.538 3.89887L14.5796 3.67831C14.6379 3.72409 14.6795 3.76987 14.7045 3.80732C14.7294 3.84893 14.7502 3.89887 14.771 3.96546L14.7669 3.96962ZM14.3965 3.84894L14.1676 3.80732C14.1552 3.69912 14.2092 3.64919 14.3258 3.64919C14.3715 3.64919 14.3965 3.67416 14.3965 3.71993V3.84894Z" fill="currentColor"/>
</svg>
