<svg width="40" height="16" viewBox="0 0 40 16" fill="none" xmlns="http://www.w3.org/2000/svg">
<path fill-rule="evenodd" clip-rule="evenodd" d="M29.8278 5.25293C29.7734 5.21106 29.698 5.13568 29.6017 5.01843C29.5054 4.90118 29.4216 4.81742 29.3546 4.76298C29.3546 5.10637 29.4551 5.94808 29.6561 7.29649C29.7483 7.92463 29.7985 8.44807 29.7985 8.86265C29.8194 9.03015 29.8362 9.19766 29.8488 9.36935C29.8613 9.54104 29.8697 9.71273 29.8697 9.88861C29.8697 10.2487 29.8446 10.5754 29.7943 10.8643C29.7441 11.1533 29.6561 11.4255 29.5263 11.6767C29.5682 11.3626 29.5849 11.0486 29.5849 10.7303C29.5849 10.1273 29.497 9.29816 29.3253 8.2387C29.1913 7.43468 29.1159 6.93635 29.095 6.73953C29.0489 6.53015 28.9987 6.20771 28.9442 5.76382C28.8228 4.78392 28.7516 4.23116 28.7349 4.10553C28.693 4.03016 28.6762 3.95896 28.6762 3.88358C28.6762 3.77052 28.7181 3.64489 28.7977 3.51089C28.806 3.50251 28.8814 3.39783 29.028 3.18845C29.1201 3.38108 29.2374 3.64489 29.3797 3.97153C29.5472 4.36097 29.6561 4.61642 29.7106 4.73367L29.7315 4.70436C29.7399 4.73786 29.7566 4.82161 29.7818 4.9598C29.8069 5.09799 29.8236 5.1943 29.832 5.24456L29.8278 5.25293ZM26.0673 3.13401C26.0087 3.25545 25.9208 3.36014 25.8119 3.44389C25.703 3.53183 25.5732 3.6072 25.4266 3.6742C25.2131 3.76633 25.0833 3.82496 25.033 3.8459C24.8864 3.92127 24.7608 4.00084 24.6603 4.08878C24.7148 3.94221 24.7985 3.81659 24.9116 3.71608C24.9995 3.64071 25.1168 3.57371 25.2633 3.51508C25.4099 3.45645 25.5188 3.41039 25.5858 3.38527C25.8077 3.29733 25.9668 3.21357 26.0673 3.13401ZM26.1679 4.83417C26.126 4.96818 26.0297 5.08124 25.8747 5.17756C25.6193 5.31994 25.368 5.45394 25.121 5.58794C25.121 5.54188 25.1419 5.49163 25.188 5.43719C25.2298 5.38275 25.2675 5.34506 25.2926 5.31575C25.2843 5.30319 25.2005 5.24875 25.0414 5.15662C24.966 5.11056 24.9158 5.06449 24.8823 5.01424C24.9953 4.8258 25.0749 4.70436 25.1126 4.65411C25.2131 4.52011 25.322 4.42797 25.435 4.38191C25.5774 4.39447 25.6653 4.44891 25.7072 4.54104C25.6988 4.61642 25.6905 4.66667 25.6737 4.70017C25.657 4.73367 25.6193 4.77136 25.5565 4.80905C25.4811 4.76717 25.4141 4.72949 25.3471 4.68761C25.322 4.68761 25.2926 4.70436 25.2675 4.73786L25.1963 4.80905C25.2382 4.86767 25.2968 4.91792 25.3764 4.95142C25.4895 4.98493 25.569 5.01005 25.6193 5.02261C25.6988 5.02261 25.791 4.99749 25.8915 4.95142C26.038 4.87605 26.1343 4.83836 26.172 4.82999L26.1679 4.83417ZM27.9266 8.74539C27.9266 8.19682 27.8303 7.44305 27.6335 6.48409C27.4869 5.75545 27.4032 5.33669 27.3823 5.22781C27.3613 5.18593 27.3529 5.14825 27.3529 5.10637C27.3529 5.07287 27.3613 5.0268 27.3823 4.97236C27.4032 4.91374 27.4283 4.84673 27.4618 4.76717C27.5079 4.78811 27.5539 4.84674 27.5958 4.94305C27.6377 5.03937 27.6796 5.08962 27.7131 5.08962C27.7382 5.08962 27.7801 5.06868 27.8345 5.03099C27.8345 4.88442 27.7591 4.67086 27.6126 4.39866C27.466 4.12228 27.3906 3.93384 27.3906 3.82496L27.3823 3.85427C27.3278 3.79565 27.2734 3.68677 27.2148 3.52764C27.1561 3.36851 27.0891 3.25964 27.0096 3.20101L26.6662 3.95478C26.7751 4.38192 26.8923 4.94305 27.0263 5.63401C27.1059 6.02764 27.2189 6.61809 27.3613 7.40118C27.5037 8.18426 27.6084 8.72865 27.667 9.03015C27.7131 9.18928 27.7382 9.34841 27.7382 9.50335C27.7382 10.0603 27.4158 10.5838 26.7751 11.0695C26.2307 11.4171 25.6905 11.7688 25.1461 12.1248C25.255 12.0997 25.4895 12.0704 25.8538 12.041C26.2181 12.0117 26.4903 11.9531 26.662 11.8652C27.131 11.4967 27.466 11.0276 27.667 10.4581C27.8345 9.98074 27.9183 9.41123 27.9183 8.74958L27.9266 8.74539ZM27.1813 10.0729C27.1896 10.0268 27.1896 9.95562 27.1896 9.86349C27.1896 9.4866 27.1017 9.12228 26.93 8.76633C26.796 8.48995 26.5866 8.18845 26.2977 7.85344C26.0045 7.55193 25.7072 7.24623 25.4141 6.94054C25.0665 6.5804 24.8027 6.26215 24.6184 5.98576C24.497 5.82663 24.3044 5.58376 24.0364 5.26131C23.827 4.98493 23.7055 4.73367 23.6637 4.49916C23.7516 4.55779 23.8395 4.61642 23.9233 4.67086C23.9777 4.70436 24.0364 4.72111 24.1034 4.72111C24.0154 4.51173 23.873 4.30654 23.672 4.09716C23.559 3.97572 23.3789 3.79983 23.1402 3.56533L23.1695 3.53602L22.9266 3.35595C22.8471 3.56533 22.801 3.69515 22.7843 3.74958C22.7508 3.87521 22.734 4.0134 22.734 4.15997C22.9225 4.50335 23.136 4.86348 23.3789 5.24456C23.5673 5.53769 23.8019 5.88945 24.0824 6.29983C24.2081 6.4799 24.3421 6.65159 24.4844 6.8191C24.6268 6.98242 24.7818 7.15829 24.9576 7.34674L25.904 8.36013C26.0841 8.56114 26.2307 8.73702 26.3479 8.89196C26.4903 9.0804 26.6159 9.26884 26.7248 9.46566C26.8337 9.66248 26.9216 9.85511 26.9802 10.0519C27.0389 10.2487 27.0724 10.4539 27.0724 10.6717C27.1059 10.6382 27.1268 10.6047 27.1394 10.5712C27.1478 10.5377 27.1561 10.4916 27.1561 10.4288V10.2697C27.1561 10.2027 27.1645 10.1399 27.1854 10.0771L27.1813 10.0729ZM21.7625 4.13484C21.7081 4.31491 21.5908 4.46985 21.4107 4.59548C21.2558 4.70436 21.0799 4.77555 20.8789 4.81742C20.8789 4.70855 20.9543 4.62479 21.1092 4.56617C21.3019 4.4866 21.4233 4.41541 21.4694 4.35679C21.3689 4.29816 21.2558 4.26466 21.126 4.26466C21.0506 4.26466 21.0045 4.26466 20.9836 4.27304C20.9627 4.28141 20.9333 4.29816 20.8915 4.32328C20.8496 4.34841 20.8161 4.3526 20.791 4.33166C20.8789 4.12228 21.0213 4.00503 21.2223 3.97153C21.3647 3.98409 21.4735 4.00084 21.5531 4.02178C21.6327 4.04271 21.6997 4.08041 21.7541 4.13066L21.7625 4.13484ZM22.4241 5.26131C22.4032 5.28644 22.3404 5.433 22.2315 5.69263C22.1519 5.88526 22.0766 5.98576 22.0096 5.98576C21.9677 5.98576 21.9342 5.96902 21.9091 5.93551L21.4652 5.49163L21.6955 4.8593C21.7876 4.83836 21.9091 4.88443 22.0556 5.00168C22.2566 5.15662 22.3781 5.24456 22.4158 5.26131H22.4241ZM21.327 3C20.7114 3.15913 20.0958 3.32245 19.4761 3.48158C18.7851 3.67002 18.1821 3.8459 17.667 4.01341C17.0305 4.22279 16.44 4.44054 15.8998 4.66667C15.8998 4.67505 15.8538 4.73786 15.7575 4.8593C15.6988 4.93467 15.6821 5.00168 15.7156 5.06868C16.306 4.76717 16.8881 4.51592 17.466 4.31491C17.956 4.13903 18.5674 3.95477 19.3044 3.75377C19.5975 3.67421 20.2256 3.51089 21.1846 3.2722C21.327 3.19682 21.373 3.10888 21.327 3ZM21.327 7.62312C21.327 7.77806 21.3102 7.89531 21.2809 7.97488C21.2516 8.05444 21.2014 8.12563 21.1344 8.18426C21.0883 8.19263 21.0464 8.17588 21.0129 8.13401C20.9794 8.07538 20.9543 8.0335 20.9417 8.01256C20.9333 7.97069 20.9333 7.91206 20.9333 7.8325C20.9333 7.65662 20.971 7.46818 21.0506 7.2588C21.126 7.04942 21.2014 6.84841 21.2767 6.65578C21.2767 6.74372 21.2432 6.89029 21.172 7.10385C21.1009 7.31323 21.0673 7.4598 21.0673 7.53937C21.0673 7.665 21.1134 7.76131 21.2097 7.81994L21.3312 7.61893L21.327 7.62312ZM20.6737 6.3459C20.6612 6.43802 20.6486 6.50922 20.6402 6.55109C20.6318 6.59297 20.6067 6.6181 20.5732 6.6181C20.5481 6.6181 20.5146 6.60553 20.4811 6.57622C20.4685 6.57622 20.4392 6.56784 20.389 6.5469C20.3429 6.52596 20.3094 6.53015 20.2885 6.55528C20.255 6.63484 20.2131 6.80653 20.1586 7.06617C20.1042 7.3258 20.033 7.51006 19.9367 7.61893C19.9032 7.58543 19.832 7.4263 19.7273 7.13735C19.6478 6.91541 19.5347 6.80654 19.3965 6.80654C19.363 6.80654 19.3211 6.81491 19.2667 6.83585C19.1997 6.80235 19.1662 6.73116 19.1662 6.62647C19.1662 6.5469 19.1871 6.46734 19.2248 6.38358C19.2248 6.35008 19.2457 6.3124 19.2834 6.27471C19.3211 6.23702 19.363 6.21608 19.4049 6.21608C19.4467 6.21608 19.4802 6.23283 19.5054 6.26633C19.5933 6.38777 19.6771 6.53434 19.7566 6.71441C19.8362 6.89448 19.9158 7.06198 19.9869 7.22111C20.0288 7.04523 20.0665 6.86935 20.1084 6.68928C20.167 6.4799 20.2508 6.32496 20.3596 6.21608C20.4141 6.20771 20.456 6.21608 20.4895 6.22446C20.5481 6.26634 20.6109 6.30402 20.6695 6.3459H20.6737ZM23.2952 9.4196C23.2952 9.79648 23.2784 10.0603 23.2449 10.2152C23.1863 10.5042 23.0523 10.7387 22.8513 10.9188C22.5498 11.1868 22.2064 11.4003 21.8253 11.5637C21.4442 11.7228 21.059 11.8065 20.6695 11.8065C20.5146 11.8065 20.3596 11.794 20.2005 11.7647C20.0414 11.7395 19.8906 11.6935 19.7441 11.6348C19.4761 11.4799 19.3169 11.3878 19.2709 11.3543C19.1117 11.2412 18.961 11.1114 18.827 10.9606C18.6595 11.0276 18.3663 11.17 17.9518 11.392C17.2901 11.7479 16.7709 11.9238 16.394 11.9238C16.2265 11.9238 16.0757 11.9029 15.9375 11.8652C15.7993 11.8233 15.6528 11.7479 15.4895 11.6348C15.121 11.3543 14.8948 10.9104 14.8153 10.3074C14.7734 9.77974 14.7357 9.24372 14.6938 8.70771C14.4174 8.88359 14.1327 9.11809 13.8395 9.41123C13.6804 9.57036 13.4208 9.84674 13.0648 10.2362C12.7633 10.5712 12.5037 10.8308 12.2901 11.0193C11.9802 11.2956 11.6829 11.4966 11.394 11.6307C11.2851 11.6432 11.2014 11.6516 11.1427 11.6516C10.9543 11.6516 10.7868 11.6181 10.636 11.5553C10.4853 11.4925 10.3513 11.3878 10.2382 11.2496C10.1586 11.124 10.0958 10.99 10.0581 10.8476C10.0163 10.7052 9.99951 10.5712 9.99951 10.4456C9.99951 10.1189 10.1168 9.75042 10.3513 9.34004C10.4936 9.09297 10.7282 8.76215 11.0548 8.35595C10.8998 8.23451 10.791 8.08376 10.724 7.8995C10.657 7.71525 10.6235 7.50168 10.6235 7.26298C10.6235 7.17504 10.6318 7.07454 10.6444 6.96148C10.657 6.84841 10.6695 6.74791 10.6863 6.65997C10.7617 6.33333 10.8663 6.01508 11.0087 5.70519C11.1302 5.44556 11.2851 5.15662 11.4819 4.84255C11.306 5.45394 11.1385 6.06114 10.971 6.67253C10.971 6.84003 11.0045 6.99498 11.0674 7.13317C11.1302 7.27555 11.2432 7.40536 11.4024 7.52681C11.5238 7.55193 11.6117 7.50168 11.6746 7.36767C11.7374 7.23367 11.7876 7.16248 11.8337 7.15829C11.8337 7.41793 11.8086 7.65243 11.7541 7.86181C11.6997 8.07119 11.5908 8.24288 11.4233 8.38526H11.1804C11.1218 8.48576 10.9585 8.70771 10.6988 9.0469C10.3303 9.52848 10.1461 9.9263 10.1461 10.2446C10.1461 10.3995 10.1796 10.5544 10.2466 10.7052C10.3052 10.8183 10.3722 10.9188 10.4392 11.0067C10.5313 11.1198 10.6318 11.1993 10.7323 11.237C10.8119 11.258 10.8915 11.2663 10.9752 11.2663C11.1679 11.2663 11.3563 11.2161 11.5322 11.1114C11.7081 11.0067 11.8839 10.8601 12.0598 10.6759C12.9308 9.77973 13.8019 8.87521 14.6729 7.97069C14.6729 7.5268 14.6394 7.03267 14.5724 6.48409C14.4132 5.16499 14.3295 4.34841 14.3295 4.03015C14.4049 3.85427 14.4551 3.7454 14.4802 3.69934C14.5472 3.57371 14.6226 3.48576 14.7022 3.4397C14.8027 4.23534 14.8823 4.98912 14.9451 5.70101C15.0037 6.4129 15.0372 7.09967 15.0372 7.76131C15.1461 7.63987 15.3848 7.50167 15.7617 7.33836C16.1385 7.17923 16.3647 7.06198 16.4442 6.9866L16.3228 6.54272C16.3479 6.47571 16.4024 6.28727 16.4819 5.98158C16.5908 5.56701 16.7751 5.31994 17.0431 5.23619C17.3655 5.23619 17.6754 5.37437 17.9769 5.64657C18.224 5.8727 18.4208 6.14908 18.5715 6.47153C18.5464 6.50503 18.4878 6.65159 18.3998 6.91541C18.3412 7.09548 18.2407 7.21273 18.1067 7.26717C18.0188 7.33417 17.8094 7.3928 17.4744 7.43886C17.3153 7.46399 17.198 7.49749 17.131 7.53099C17.0975 7.56449 17.0808 7.62312 17.0808 7.70268C17.0808 7.75712 17.0891 7.81993 17.1101 7.89531L17.0891 7.92463C17.0556 7.89113 17.0263 7.85343 16.997 7.81574C16.9091 7.67337 16.8672 7.60218 16.8672 7.5938C16.5573 7.68174 16.2474 7.80737 15.9333 7.97488C15.6737 8.11725 15.3806 8.30151 15.0581 8.52764C15.0581 9.17672 15.0916 9.63735 15.1586 9.90536C15.2801 10.3953 15.5523 10.7513 15.971 10.969C16.0506 11.0025 16.1385 11.0276 16.239 11.0486C16.3354 11.0695 16.4568 11.0779 16.595 11.0779C16.8839 11.0779 17.1896 11.0151 17.5079 10.8853C17.7633 10.7848 18.0355 10.634 18.3203 10.433C18.1402 10.2571 17.9601 10.0854 17.7759 9.90955C17.5498 9.7211 17.332 9.62898 17.131 9.62898C17.0514 9.62898 16.9593 9.64992 16.8588 9.6876C16.8504 9.6876 16.8253 9.70435 16.7834 9.73367C16.7416 9.76298 16.7081 9.76717 16.6871 9.73786C16.7332 9.49079 16.7709 9.31072 16.796 9.19347C16.8504 8.98409 16.9593 8.85008 17.1268 8.79146C17.5204 8.70352 17.9434 8.66164 18.3915 8.66164C18.9694 8.66164 19.5263 8.72865 20.0707 8.86684C20.6151 9.00503 21.105 9.19766 21.5489 9.44473C21.528 9.57036 21.4987 9.69598 21.4652 9.82161C21.4275 9.94724 21.3689 10.0603 21.2893 10.1692C21.2139 10.1441 21.1469 10.1273 21.0799 10.1189C21.0129 10.1106 20.9375 10.1106 20.858 10.1106C20.6109 10.1106 20.3261 10.1776 20.0037 10.3116C19.8446 10.3869 19.6813 10.4539 19.5221 10.5209C19.6687 10.6675 19.8404 10.7764 20.033 10.8476C20.2256 10.9188 20.435 10.9523 20.657 10.9523C20.9124 10.9523 21.1762 10.9104 21.4568 10.8266C21.7332 10.7429 22.0179 10.6382 22.3069 10.5084C22.4283 10.4288 22.5498 10.3409 22.6796 10.2487C22.8052 10.1566 22.9225 10.0603 23.0313 9.96818C22.822 9.4866 22.6712 9.12647 22.5707 8.89196C22.3781 8.43133 22.2315 8.06282 22.1394 7.79481C22.1394 7.65243 22.1645 7.51843 22.2106 7.3928C22.2566 7.26717 22.3278 7.13317 22.4199 6.99079C22.5623 7.13736 22.7047 7.28392 22.8513 7.42211C23.0188 7.61056 23.1025 7.77387 23.1025 7.91625C23.1025 7.97069 23.0941 8.00838 23.0816 8.03769L22.7717 7.91625C22.9308 8.27638 23.0355 8.51508 23.0816 8.62814C23.1947 8.92127 23.2617 9.18928 23.2826 9.42379L23.2952 9.4196ZM16.2516 9.17672C16.2181 9.18509 16.1846 9.21859 16.1553 9.28141C16.126 9.34422 16.0841 9.37354 16.0297 9.36516C15.9627 9.27304 15.9292 9.17253 15.9292 9.06365C15.9292 8.98828 15.9668 8.84171 16.038 8.61977C16.0632 8.53183 16.0841 8.44808 16.0967 8.36851C15.9836 8.60302 15.9124 8.75796 15.8873 8.82915C15.8203 9.00922 15.7868 9.17672 15.7868 9.33166C15.7868 9.37354 15.7952 9.44054 15.8077 9.53266C15.8287 9.57454 15.858 9.60385 15.904 9.62479C15.9459 9.64573 15.9878 9.66248 16.0297 9.67504C16.105 9.64154 16.1553 9.58292 16.1888 9.50335C16.2014 9.47823 16.2223 9.36516 16.2474 9.17253L16.2516 9.17672ZM13.7097 6.70603C13.6762 6.72697 13.6427 6.77722 13.6134 6.85679C13.5841 6.93635 13.5338 6.97822 13.4668 6.97822C13.3998 6.86935 13.3663 6.75628 13.3663 6.63484C13.3663 6.52597 13.3957 6.37521 13.4585 6.1742C13.5171 5.9732 13.5506 5.83501 13.559 5.76382L13.3789 6.19514C13.3705 6.22027 13.3412 6.32915 13.2868 6.51759C13.2323 6.70603 13.2072 6.84422 13.2072 6.92797C13.2072 7.0871 13.2784 7.20435 13.4166 7.27973C13.5171 7.23367 13.5925 7.15411 13.6385 7.04942C13.6846 6.94054 13.7097 6.82747 13.7097 6.70603ZM19.832 12.5938C19.564 12.6357 19.3002 12.6734 19.0364 12.7152C18.9903 12.7236 18.9149 12.7236 18.8144 12.7236C18.7014 12.7236 18.6009 12.7152 18.5129 12.6943C18.425 12.6734 18.3412 12.6357 18.2617 12.5854C18.337 12.464 18.492 12.3509 18.7349 12.2504C18.9777 12.1499 19.1411 12.0369 19.229 11.9238C19.1871 11.8903 19.1327 11.8903 19.0573 11.9238C19.0238 11.9364 18.9694 11.9615 18.8982 11.995C18.8563 12.0075 18.8312 12.0159 18.8186 12.0159C18.76 12.0159 18.7055 11.9992 18.6637 11.9699C18.6218 11.9405 18.5799 11.8945 18.538 11.8358C18.559 11.8107 18.5883 11.8149 18.6218 11.8526C18.6595 11.8903 18.6846 11.907 18.6972 11.907L18.8186 11.7856C18.8647 11.7395 18.8814 11.6893 18.8689 11.6348C18.8228 11.5678 18.7642 11.5343 18.6972 11.5343C18.6218 11.5343 18.5422 11.5762 18.4543 11.6558C18.3957 11.7102 18.3328 11.7814 18.2742 11.8652C18.2617 11.8861 18.2533 11.9112 18.2533 11.9447C18.2533 11.9908 18.27 12.0369 18.3077 12.0745C18.3454 12.1164 18.3831 12.1541 18.425 12.196C18.2323 12.397 18.1235 12.5184 18.1025 12.5561C18.0565 12.6357 18.0313 12.7278 18.0313 12.8283C18.1402 12.8869 18.2491 12.933 18.3622 12.9581C18.4752 12.9833 18.5883 13 18.7055 13C18.76 13 18.8479 12.9916 18.9652 12.9791C19.3002 12.9204 19.5891 12.7906 19.8278 12.598L19.832 12.5938ZM13.09 3.52764C13.023 3.46064 12.9183 3.42714 12.7801 3.42714C12.6712 3.53602 12.6042 3.66583 12.5749 3.82077C12.5456 3.97571 12.5079 4.16415 12.4702 4.39447C12.4241 4.33585 12.3446 4.16834 12.2273 3.89196C12.1478 3.68258 12.0347 3.55695 11.8965 3.51089C11.8756 3.55276 11.8421 3.61558 11.796 3.70352C11.7499 3.79146 11.7248 3.86265 11.7248 3.92546C11.7248 3.96734 11.7332 4.0134 11.7541 4.06784C11.93 4.03434 12.064 4.12228 12.1645 4.32748C12.3194 4.65411 12.4032 4.8258 12.4158 4.83836L12.2064 4.91792C12.2064 4.91792 12.1854 4.97236 12.1478 5.06449C12.1059 5.15662 12.1059 5.21943 12.1394 5.26131L12.2106 5.18174C12.2441 5.16081 12.2818 5.15243 12.3194 5.15243C12.4283 5.15243 12.5037 5.19431 12.5498 5.28225C12.4493 5.30737 12.3488 5.3325 12.2441 5.35762C12.1394 5.38275 12.0598 5.42044 11.997 5.47488C11.93 5.65075 11.8965 5.83082 11.8965 6.01927C11.8965 6.17839 11.9216 6.36265 11.9761 6.56365C12.0012 6.67253 12.0598 6.84841 12.1478 7.09548C12.2022 7.25461 12.2441 7.38861 12.2776 7.49749C12.3529 7.74456 12.3864 7.96231 12.3864 8.15075C12.3864 8.3392 12.3529 8.53183 12.2859 8.7119C12.4074 8.46483 12.466 8.18845 12.466 7.88694C12.466 7.8325 12.4576 7.73618 12.4409 7.60218C12.4241 7.46399 12.4074 7.3593 12.3948 7.29229C12.3823 7.2211 12.2943 6.89447 12.1352 6.3124C12.0933 6.17002 12.0556 5.98995 12.0137 5.76801C12.1059 5.6675 12.2692 5.60888 12.4995 5.59213C12.7298 5.57538 12.868 5.55863 12.9057 5.54606C12.9518 5.49163 12.9769 5.433 12.9769 5.366C12.9769 5.2655 12.9225 5.16918 12.8178 5.07287C12.7256 5.02681 12.6586 4.97236 12.6251 4.90536C12.5916 4.84255 12.5749 4.7588 12.5749 4.65829C12.5749 4.57873 12.6168 4.38191 12.6963 4.07622C12.7298 3.95059 12.7466 3.84171 12.7466 3.75377C12.7717 3.76215 12.822 3.77052 12.889 3.78309C12.9225 3.80402 12.9476 3.8124 12.9685 3.8124C13.0104 3.8124 13.0355 3.7789 13.0481 3.71608C13.0607 3.65327 13.0732 3.59045 13.09 3.53183V3.52764ZM14.1369 11.2956C14.0824 11.3626 14.028 11.4297 13.9777 11.4967L13.827 11.3668C13.8144 11.3124 13.806 11.2705 13.806 11.237C13.806 11.2161 13.8144 11.1616 13.8312 11.0653C13.8479 10.9732 13.8563 10.8936 13.8563 10.835C13.7432 11.0109 13.6846 11.2035 13.6846 11.4171C13.6846 11.4967 13.693 11.5637 13.7097 11.6181C13.7265 11.6725 13.7558 11.7186 13.8019 11.7521C13.8437 11.7898 13.8982 11.8023 13.9568 11.7982C14.0112 11.7228 14.0489 11.6474 14.0782 11.572C14.1034 11.4966 14.1243 11.4045 14.1369 11.2956ZM17.755 6.55109C17.6126 6.40871 17.4702 6.29565 17.3278 6.20771C17.1854 6.11977 17.0263 6.06533 16.8588 6.04858C16.8127 6.07371 16.7876 6.11139 16.7876 6.15746C16.7876 6.19933 16.8462 6.30821 16.9677 6.48827C17.0347 6.58878 17.0682 6.66416 17.0682 6.71859C17.1436 6.71859 17.2273 6.70185 17.3194 6.66835C17.5456 6.58878 17.6921 6.5469 17.7508 6.5469L17.755 6.55109ZM19.7064 9.67504C19.3295 9.58291 18.9484 9.53266 18.559 9.53266C18.6385 9.68761 18.7223 9.80905 18.8102 9.8928C18.8982 9.98074 18.9861 10.0226 19.0824 10.0226C19.2416 9.91374 19.3462 9.84674 19.3923 9.82161C19.4928 9.76298 19.5975 9.71273 19.7022 9.67086L19.7064 9.67504Z" fill="currentColor"/>
</svg>
