<svg width="40" height="16" viewBox="0 0 40 16" fill="none" xmlns="http://www.w3.org/2000/svg">
<path fill-rule="evenodd" clip-rule="evenodd" d="M30.166 5.53823C30.083 5.51201 30 5.43775 29.9257 5.31979C29.8208 5.15378 29.7553 5.0533 29.7247 5.02709L29.6417 5.18436C29.6417 5.5426 29.6854 6.10179 29.7684 6.86195C29.8514 7.62211 29.8951 8.19878 29.8951 8.59196C29.8951 9.36959 29.8733 9.92879 29.8339 10.2695C29.764 10.855 29.6111 11.3705 29.3709 11.8117C29.4495 11.6239 29.5019 11.4185 29.5281 11.2001C29.5543 10.9817 29.5718 10.7457 29.5718 10.4924C29.5718 10.2695 29.5631 9.96811 29.5456 9.59677C29.5281 9.22106 29.5194 9.00699 29.5194 8.9502L29.1437 4.12713C29.1175 4.07034 29.1 4.00481 29.1 3.92617C29.1 3.82132 29.1524 3.69026 29.2529 3.53735C29.3534 3.38445 29.4276 3.27523 29.467 3.21407C29.6505 3.65531 29.7903 4.03102 29.8864 4.34557C30.0131 4.75186 30.1048 5.14941 30.1703 5.5426L30.166 5.53823ZM26.2341 3C26.2472 3.0699 26.2254 3.13106 26.173 3.18785C26.1511 3.2097 26.0987 3.24902 26.0157 3.31455C25.6924 3.4325 25.1813 3.61599 24.4735 3.86064C23.6085 4.16208 23.0886 4.3412 22.9226 4.40673C22.3896 4.60332 21.8829 4.80865 21.4023 5.02709C21.4242 4.87418 21.5246 4.75186 21.7081 4.66011C21.8698 4.59021 22.0314 4.51595 22.1887 4.44168C23.5386 3.96549 24.8885 3.4893 26.2341 3.00437V3ZM25.9633 6.93185C25.9764 7.02359 25.9633 7.11533 25.9108 7.21145C25.8628 7.30756 25.7972 7.38183 25.7099 7.43862C25.6487 7.44736 25.5963 7.42988 25.5613 7.39493C25.5264 7.35998 25.4958 7.30756 25.4652 7.23766C25.4652 7.1066 25.4958 6.97554 25.5526 6.84884C25.6138 6.72215 25.688 6.61293 25.7798 6.52556C25.7798 6.57361 25.7536 6.64788 25.6968 6.74399C25.64 6.8401 25.6138 6.91874 25.6138 6.97554C25.6138 7.03233 25.6531 7.08475 25.7273 7.13281C25.7754 7.13281 25.8235 7.10223 25.8628 7.04543C25.9065 6.98427 25.937 6.94932 25.9589 6.93622L25.9633 6.93185ZM25.0196 5.89209C24.9759 5.99694 24.9148 6.11053 24.8274 6.23285C24.74 6.35518 24.657 6.47313 24.5827 6.58235C24.491 6.55614 24.373 6.49061 24.2245 6.3945C24.076 6.29838 23.9711 6.23285 23.91 6.20664C23.9449 6.07995 24.0061 5.95762 24.0891 5.83967C24.1371 5.76977 24.2332 5.66055 24.373 5.51638C24.4779 5.55133 24.5827 5.60376 24.692 5.67803C24.8012 5.75229 24.9104 5.82219 25.024 5.89209H25.0196ZM27.6714 5.346C27.6277 5.0533 27.536 4.72564 27.3875 4.35867C27.2389 3.99607 27.0991 3.64657 26.9593 3.31018C26.8676 3.36697 26.7889 3.45435 26.719 3.5723C26.6491 3.69026 26.5923 3.81695 26.553 3.94801C26.6317 4.63827 26.7103 5.3329 26.7933 6.02315C26.9244 7.1765 27.0117 7.93665 27.0511 8.30799C27.0904 8.67934 27.1559 9.33464 27.2433 10.2783C27.0773 10.405 26.9025 10.4924 26.7278 10.5448C26.553 10.5972 26.3521 10.6234 26.1293 10.6234C25.9545 10.6234 25.7754 10.6016 25.5963 10.5623C25.6312 10.3526 25.6662 10.1341 25.7055 9.90258C25.7448 9.67104 25.7623 9.47444 25.7623 9.31717C25.7623 9.1599 25.7448 9.00699 25.7099 8.86719C25.6749 8.72739 25.6138 8.59633 25.522 8.46964C25.4652 8.43469 25.4128 8.41721 25.3647 8.41721C25.3516 8.41721 25.273 8.43469 25.1332 8.46964C24.7706 8.69244 24.491 8.97641 24.2988 9.32591C24.1065 9.67104 24.0104 10.0424 24.0104 10.4443C24.0104 10.536 24.0104 10.6016 24.0192 10.6453C23.7745 10.737 23.5211 10.8113 23.2546 10.8637C22.9882 10.9205 22.7217 10.9467 22.4464 10.9467C22.2848 10.9467 22.11 10.9336 21.9222 10.903C21.7343 10.8768 21.5727 10.8331 21.4416 10.7763C21.1751 10.6627 20.9654 10.4705 20.8125 10.1909C20.6946 9.97248 20.6116 9.71035 20.5591 9.39581L20.3189 4.79118L20.1004 3.31455C20.0087 3.37571 19.93 3.48056 19.8602 3.62036C19.8252 3.699 19.7728 3.80821 19.7029 3.95675C19.8208 4.73438 19.9126 5.41153 19.9694 5.99257C20.0305 6.57361 20.0567 7.15465 20.0567 7.74443C20.0786 8.38663 20.1004 9.02883 20.131 9.6754C20.1922 10.4093 20.4062 10.9729 20.7688 11.3617C20.9654 11.5015 21.1751 11.6064 21.4023 11.6719C21.6295 11.7374 21.8654 11.7724 22.11 11.7724C22.1581 11.7724 22.228 11.7724 22.3154 11.768C22.4027 11.768 22.5513 11.7462 22.7566 11.7156C22.9619 11.685 23.211 11.6282 23.4949 11.554C23.5517 11.5408 23.9449 11.4142 24.6788 11.1782C24.8318 11.2831 24.9978 11.3574 25.1769 11.4054C25.356 11.4535 25.5526 11.4753 25.771 11.4753C26.1773 11.4753 26.553 11.401 26.9025 11.2569C27.1384 11.0952 27.3088 10.8812 27.4049 10.6059C27.501 10.3351 27.5535 10.0293 27.5535 9.69288L27.1253 5.08825L27.2389 4.85671L27.6671 5.35911L27.6714 5.346ZM22.6823 6.96243C22.6212 7.25513 22.5513 7.4692 22.477 7.609C22.4027 7.74443 22.3066 7.85365 22.1887 7.92792C22.3984 7.68327 22.5032 7.37746 22.5032 7.00612C22.5032 6.89253 22.4989 6.80516 22.4858 6.74399C22.477 6.68283 22.4464 6.58672 22.3984 6.46003C22.3285 6.31149 22.2673 6.20227 22.2149 6.12363C22.1625 6.045 22.1057 5.97947 22.0401 5.92267C22.062 5.86151 22.0926 5.80909 22.1363 5.7654C22.1799 5.72171 22.228 5.70424 22.2848 5.70424C22.4159 5.88772 22.5207 6.06247 22.5906 6.23285C22.6605 6.40323 22.6954 6.59109 22.6954 6.79205C22.6954 6.87069 22.6954 6.92311 22.6867 6.95806L22.6823 6.96243ZM24.0148 8.24246L23.91 8.50459C23.8837 8.49585 23.8313 8.47401 23.757 8.43469C23.6828 8.39537 23.626 8.36916 23.5823 8.35605C23.4512 8.7536 23.3202 9.15116 23.1935 9.53997C23.1367 9.47881 23.0843 9.3827 23.0362 9.25601C22.9183 8.93272 22.8527 8.76234 22.8352 8.7405C22.809 8.78855 22.761 8.81477 22.6998 8.81477C22.6736 8.81477 22.643 8.8104 22.6124 8.79729C22.5819 8.78855 22.56 8.77982 22.5425 8.77982C22.5076 8.7536 22.4901 8.71429 22.4901 8.66623C22.5382 8.54827 22.5644 8.45653 22.5644 8.39537C22.6256 8.29052 22.6955 8.2381 22.7741 8.2381C22.8178 8.2381 22.8527 8.26868 22.8789 8.33421C22.9488 8.43906 23.0144 8.57012 23.0799 8.72302C23.1411 8.87593 23.1979 9.02883 23.2459 9.173C23.2721 9.12931 23.3245 8.93709 23.3944 8.59196C23.4643 8.24683 23.5605 8.07208 23.6871 8.07208C23.7702 8.07208 23.8794 8.12888 24.0104 8.2381L24.0148 8.24246ZM18.7112 4.90913L18.2088 5.56007C17.9903 5.47706 17.8287 5.41153 17.7151 5.36785C17.6015 5.32416 17.5141 5.263 17.453 5.18436L17.0117 5.70861C17.0117 5.70861 16.8763 5.64744 16.6229 5.5426C16.4613 5.4727 16.3695 5.39406 16.3521 5.30232L16.8851 4.66448L17.4923 4.87418L18.0166 4.46352C18.0166 4.46352 18.1869 4.57711 18.4665 4.74749C18.6063 4.83049 18.685 4.88729 18.7068 4.9135L18.7112 4.90913ZM17.4923 3.20096C16.837 3.42377 16.1817 3.64657 15.5307 3.87374C14.7487 4.14024 14.1065 4.40236 13.6129 4.66011C13.5867 4.7038 13.5605 4.74312 13.5386 4.78681C13.5168 4.83049 13.5211 4.86544 13.5473 4.90039C14.6308 4.4111 15.8759 3.95238 17.2782 3.52862C17.4311 3.44998 17.501 3.34513 17.4879 3.20533L17.4923 3.20096ZM15.4172 6.09305L15.356 6.34644C15.3123 6.35518 15.2555 6.3377 15.1813 6.30275C15.107 6.2678 15.0502 6.2678 15.0065 6.30275C14.9104 6.42071 14.8361 6.63041 14.7881 6.93185C14.74 7.23329 14.7007 7.41241 14.6745 7.47794C14.6133 7.42988 14.5085 7.24203 14.3599 6.92311C14.2463 6.6872 14.0891 6.56488 13.8881 6.56488C13.8532 6.52993 13.8357 6.4775 13.8357 6.4076C13.8357 6.36391 13.8357 6.32896 13.8444 6.29401C13.8532 6.25907 13.8706 6.1979 13.9056 6.1149C14.0803 6.08869 14.2289 6.19353 14.3468 6.43818C14.4429 6.63914 14.5434 6.84447 14.6395 7.04543C14.7007 6.77457 14.7531 6.56924 14.7881 6.43818C14.858 6.20227 14.9716 6.045 15.1245 5.96636C15.1856 5.95762 15.2512 5.9751 15.3123 6.01879C15.3385 6.04063 15.3735 6.06247 15.4172 6.09305ZM19.7072 11.187C19.6286 11.27 19.5325 11.3486 19.4145 11.4229C19.2966 11.4972 19.1743 11.5583 19.0476 11.6064C18.9995 11.6282 18.9034 11.6632 18.7592 11.7156C18.6151 11.768 18.4665 11.8204 18.3136 11.8772C18.3923 11.7811 18.4796 11.6981 18.5801 11.6326C18.6806 11.5671 18.8073 11.5015 18.9515 11.4404C19.2048 11.3574 19.4539 11.2744 19.7072 11.187ZM13.0144 6.13674L12.6561 6.76584C12.5862 6.71778 12.477 6.65662 12.3241 6.58235C12.1756 6.50808 12.062 6.45566 11.9833 6.42071C12.0314 6.29401 12.0969 6.17606 12.1843 6.06247C12.2411 5.98384 12.3328 5.88336 12.4683 5.75666C12.6081 5.81782 12.7086 5.86588 12.7741 5.89209C12.9008 5.95325 12.9794 6.03626 13.0144 6.13237V6.13674ZM12.3241 4.10092C12.2411 3.86938 12.0707 3.63783 11.8217 3.41066C11.7605 3.37571 11.695 3.35824 11.6339 3.35824C11.5159 3.35824 11.4329 3.48493 11.3892 3.73394C11.3455 3.98733 11.2887 4.14024 11.2276 4.19703C11.2276 4.28004 11.2625 4.34557 11.3324 4.38488C11.3674 4.40673 11.4285 4.43731 11.5115 4.481C11.1839 4.80865 10.7688 5.14941 10.2621 5.49891C9.97374 5.6955 9.56308 5.97073 9.02572 6.32896C9.54997 6.09742 10.0174 5.84841 10.4325 5.58628C10.9086 5.28047 11.3237 4.92661 11.6819 4.52905C11.7736 4.6339 11.8785 4.68633 11.9965 4.68633C12.0445 4.68633 12.0838 4.67759 12.11 4.66448C12.2018 4.61643 12.2586 4.53779 12.2761 4.42857C12.2979 4.31935 12.3154 4.2145 12.3285 4.10965L12.3241 4.10092ZM18.6369 12.2792C18.3093 12.4889 17.9335 12.5937 17.5141 12.5937C17.418 12.5937 17.3438 12.5937 17.2957 12.585C17.1341 12.5282 17.0554 12.467 17.0554 12.3971C17.0554 12.3491 17.1603 12.2486 17.3656 12.0913C17.5709 11.9384 17.6671 11.803 17.6539 11.6938C17.5578 11.637 17.4792 11.602 17.418 11.5845C17.3569 11.5671 17.2782 11.5671 17.1821 11.5802C17.1341 11.5889 17.086 11.6195 17.0336 11.6806C16.9855 11.7418 16.955 11.7942 16.9506 11.8423C17.0816 11.8423 17.1821 11.8467 17.2433 11.8598C17.3044 11.8685 17.3394 11.8947 17.3394 11.9297C17.2083 12.0433 17.0816 12.1481 16.9637 12.2529C16.8457 12.3578 16.7846 12.4539 16.7846 12.5457C16.7846 12.5937 16.7933 12.6287 16.8064 12.6505C16.8851 12.7335 16.9637 12.7903 17.0467 12.8253C17.1297 12.8558 17.2302 12.8733 17.3525 12.8733C17.4224 12.8733 17.5185 12.8646 17.6452 12.8515C17.9598 12.7816 18.1607 12.7291 18.2437 12.6942C18.4622 12.6024 18.5932 12.467 18.6413 12.2835L18.6369 12.2792ZM11.944 6.34644C11.813 6.56924 11.6819 6.79205 11.5552 7.01922C11.4504 6.99738 11.3018 6.94059 11.1052 6.85321C10.9742 6.79205 10.8824 6.75273 10.8344 6.73962C10.9043 6.58672 10.9654 6.4644 11.0179 6.37702C11.0703 6.28965 11.1446 6.18043 11.245 6.045C11.3979 6.07995 11.5334 6.11927 11.6557 6.16732C11.7736 6.21101 11.8741 6.27217 11.9484 6.35081L11.944 6.34644ZM19.1874 9.77589C18.5714 9.77589 17.8855 9.72346 17.121 9.62298C16.3608 9.5225 15.6269 9.42202 14.9279 9.32591C15.3036 9.13805 15.7317 8.83661 16.2079 8.42595C16.6011 8.07645 16.9943 7.72259 17.3918 7.36872C17.5054 7.43862 17.5797 7.54347 17.6234 7.68327C17.6583 7.9017 17.6933 8.1114 17.7282 8.3211C17.8243 8.14635 17.903 7.97597 17.9598 7.81433C18.0166 7.64832 18.0428 7.47794 18.0428 7.29445C18.0428 7.14155 18.0166 6.99301 17.9685 6.85321L17.7806 6.59109C17.5972 6.66099 17.4049 6.79642 17.204 7.00175C16.6448 7.54784 16.3564 7.82744 16.3433 7.84054C16.1424 8.00655 15.7404 8.2512 15.1463 8.56575C14.2463 9.04631 13.7177 9.56619 13.5648 10.1166C13.7265 10.0948 13.8881 10.0861 14.0454 10.0861C14.325 10.0861 14.657 10.1123 15.0415 10.1691C15.238 10.1953 15.5657 10.2521 16.0288 10.3351C15.8103 10.453 15.5963 10.571 15.3778 10.6933C14.9322 10.9249 14.5347 11.0384 14.1939 11.0384C14.076 11.0384 13.9187 11.021 13.7221 10.9817C13.5255 10.9423 13.3289 10.8244 13.1367 10.6322C12.9051 10.3962 12.7086 10.0424 12.5382 9.57492C12.4814 9.56182 12.4464 9.55308 12.4333 9.55308C12.3503 9.55308 12.2629 9.57929 12.1712 9.63609C12.145 9.65793 12.0751 9.71472 11.9615 9.8021C11.778 9.96811 11.5377 10.405 11.2363 11.1127C11.0004 11.6632 10.6858 11.9952 10.3014 12.1088C10.0436 11.9559 9.83831 11.7593 9.68103 11.5234C9.52813 11.2875 9.41891 11.0253 9.35775 10.7414C9.29658 10.4574 9.26163 10.1822 9.26163 9.92005C9.26163 9.75404 9.27037 9.60114 9.28348 9.46571C9.29658 9.33028 9.31843 9.19048 9.34464 9.05068C9.1131 9.53124 8.99951 10.0424 8.99951 10.5797C8.99951 10.7414 9.00825 10.903 9.03009 11.0603C9.16115 11.5933 9.30095 11.9865 9.44949 12.2442C9.6854 12.6636 10.0131 12.917 10.4237 13C10.6465 12.8689 10.8344 12.6723 10.9916 12.4146C11.0615 12.301 11.1751 12.0564 11.328 11.6806C11.4591 11.3443 11.5814 11.0996 11.6863 10.9467C11.8479 10.7152 12.0576 10.5404 12.3154 10.4225C12.6212 11.0035 12.8265 11.3443 12.9226 11.4491C13.0974 11.637 13.2765 11.7505 13.4643 11.7855C13.6478 11.8204 13.8138 11.8379 13.9624 11.8379C14.2551 11.8379 14.5784 11.7768 14.9279 11.6501C15.1594 11.5671 15.4565 11.4316 15.8191 11.2525C16.2865 11.021 16.6491 10.8637 16.8982 10.7807C17.2957 10.6496 17.6933 10.5797 18.0821 10.5797C18.117 10.571 18.1738 10.571 18.2481 10.571C18.2568 10.571 18.3267 10.5754 18.4622 10.5885C18.5976 10.5972 18.7068 10.6059 18.7811 10.6059C18.9471 10.6059 19.0519 10.5623 19.0956 10.4792C19.1175 10.4181 19.1393 10.3526 19.1699 10.2914C19.2048 10.1603 19.2223 10.0424 19.2223 9.94626C19.2223 9.86763 19.2092 9.8152 19.1786 9.78899L19.1874 9.77589ZM11.031 8.91525C11.031 9.02883 11.0222 9.12931 11.0004 9.22106C10.9785 9.3128 10.9349 9.38707 10.865 9.43949C10.7863 9.44823 10.7164 9.42202 10.6553 9.36522C10.5941 9.30843 10.5548 9.25601 10.5417 9.20358C10.5286 9.15116 10.5198 9.08563 10.5198 9.01136C10.5198 8.84972 10.5635 8.6706 10.6553 8.46527C10.7339 8.31673 10.7863 8.21188 10.8125 8.15072C10.8256 8.22062 10.7994 8.33421 10.7295 8.49148C10.6596 8.64876 10.6247 8.76671 10.6247 8.84098C10.6247 8.95457 10.6815 9.05068 10.7907 9.13368C10.8693 9.14679 10.9305 9.11184 10.9785 9.02883C10.9916 8.99388 11.0091 8.95457 11.031 8.91525ZM25.3211 9.54434C25.356 9.69725 25.391 9.85015 25.4259 10.0074C25.4259 10.0861 25.3778 10.1429 25.2774 10.1865C25.1725 10.2564 25.0764 10.2914 24.9934 10.2914C24.8099 10.2914 24.6701 10.2084 24.5653 10.038C24.4604 9.955 24.408 9.86763 24.408 9.77589C24.408 9.71909 24.4211 9.6754 24.4517 9.64045C24.5085 9.54871 24.5915 9.46134 24.7094 9.37833C24.823 9.29533 24.9322 9.25164 25.0283 9.25164C25.19 9.25164 25.2861 9.34775 25.3211 9.54434ZM12.1319 4.28877C12.1231 4.32372 12.0926 4.3412 12.0358 4.3412C12.0008 4.3412 11.9571 4.33246 11.9003 4.31935C11.8567 4.2844 11.8392 4.25819 11.8392 4.23635C11.8392 4.2145 11.8567 4.17955 11.896 4.1315C11.9353 4.08344 11.9484 4.03976 11.944 4.00481L12.1319 4.28877ZM11.7212 4.15334C11.6994 4.11839 11.6426 4.09655 11.5465 4.09218C11.4504 4.08344 11.411 4.04849 11.4242 3.98733C11.4591 3.93054 11.5115 3.90433 11.5814 3.90433C11.695 3.90433 11.7387 3.95238 11.7169 4.05286V4.15771L11.7212 4.15334Z" fill="currentColor"/>
</svg>
