<svg width="40" height="16" viewBox="0 0 40 16" fill="none" xmlns="http://www.w3.org/2000/svg">
<path fill-rule="evenodd" clip-rule="evenodd" d="M29.317 8.56999C29.3458 8.80087 29.3747 9.06061 29.3987 9.3444C29.4228 9.62819 29.4324 9.88792 29.4324 10.1188C29.4324 10.5325 29.4084 10.9028 29.3555 11.2251C29.3074 11.5474 29.216 11.8937 29.0861 12.2641L29.038 12.2977C29.1246 11.8745 29.1631 11.4416 29.1631 10.9942C29.1631 10.8884 29.1631 10.7826 29.1582 10.6816C29.1582 10.5806 29.139 10.3978 29.1053 10.1284L28.1337 3.95238C28.0952 3.88504 28.076 3.80808 28.076 3.73112C28.076 3.64454 28.1241 3.52429 28.2155 3.36556C28.3069 3.20683 28.3598 3.08658 28.379 3C28.5714 3.37518 28.735 3.71669 28.8648 4.01491C29.0476 4.42857 29.1919 4.78932 29.2929 5.08754C29.2256 5.04906 29.1534 4.98653 29.0813 4.89514C29.0091 4.80856 28.937 4.72198 28.8696 4.6354L28.7783 4.84223C28.7783 5.405 28.8745 6.17941 29.0669 7.16065C29.2063 7.86291 29.2881 8.32467 29.3218 8.55555L29.317 8.56999ZM25.5411 3.16835C25.4786 3.29822 25.3824 3.40884 25.2525 3.50504C25.1659 3.56757 25.0265 3.64454 24.8244 3.73593C24.6705 3.79846 24.5118 3.86099 24.3531 3.93314C24.1895 4.00048 24.0548 4.08225 23.9394 4.17364C23.9875 4.0101 24.0645 3.88504 24.1751 3.79365C24.2857 3.70226 24.4444 3.62049 24.6417 3.54353C24.8437 3.47138 24.9928 3.41847 25.0938 3.38961C25.2766 3.32708 25.4305 3.25493 25.5459 3.16835H25.5411ZM25.6325 4.93362C25.57 5.10197 25.4497 5.24627 25.2766 5.36171C24.9591 5.52525 24.6513 5.68398 24.3434 5.84752C24.329 5.78018 24.3482 5.71284 24.406 5.6455C24.4637 5.57816 24.5406 5.51082 24.632 5.44348C24.5406 5.405 24.4685 5.37133 24.4252 5.33766C24.3482 5.28475 24.2857 5.22703 24.2424 5.1645C24.329 4.9721 24.406 4.8278 24.4733 4.73641C24.5887 4.57287 24.7186 4.46705 24.8677 4.41414C24.9158 4.42376 24.9543 4.443 24.988 4.47667L25.1082 4.59692C25.1178 4.64502 25.089 4.69312 25.0313 4.74122C24.9735 4.78932 24.9351 4.8278 24.911 4.85185C24.8966 4.85185 24.8677 4.83261 24.8244 4.78932C24.7811 4.74603 24.7427 4.72679 24.7042 4.72679C24.6513 4.72679 24.5839 4.79413 24.507 4.93362C24.5599 5.0202 24.6513 5.07792 24.786 5.10678C24.9495 5.13083 25.0649 5.14526 25.1323 5.15488C25.2189 5.14526 25.3054 5.1164 25.3968 5.06349C25.5363 4.98653 25.6181 4.94324 25.6373 4.93843L25.6325 4.93362ZM27.5132 8.80087C27.5132 8.26215 27.4218 7.65127 27.2439 6.96344C27.0611 6.28042 26.8927 5.63588 26.7292 5.03463C26.7292 5.00577 26.7196 4.94805 26.7051 4.86147C26.6907 4.77489 26.6811 4.71717 26.6811 4.67869C26.6811 4.60173 26.7051 4.5392 26.7484 4.49591L27.1765 4.98172C27.1284 4.67388 26.9601 4.26503 26.6667 3.75998C26.4646 3.41366 26.3396 3.17797 26.2867 3.05772C26.1953 3.14911 26.1135 3.26936 26.0462 3.40885C25.9788 3.54834 25.9404 3.68783 25.9404 3.8177C25.9404 3.88023 25.9404 3.92352 25.95 3.95719L27.1958 8.91149C27.2054 9.00288 27.2198 9.14238 27.2439 9.32035C27.2679 9.50313 27.2775 9.66666 27.2775 9.81096C27.2775 10.0515 27.2439 10.2679 27.1717 10.4651C27.1044 10.6623 26.9889 10.8259 26.8254 10.9557C26.8254 10.8644 26.8254 10.7682 26.8302 10.6672C26.8302 10.5661 26.835 10.4651 26.835 10.3545C26.835 10.2006 26.8254 10.0611 26.811 9.93121C26.7965 9.80615 26.7629 9.69072 26.7196 9.58971C26.4502 9.07985 26.0173 8.48822 25.4161 7.81001C24.9062 7.25686 24.4012 6.69889 23.8913 6.13612C23.3141 5.47234 22.9004 4.8759 22.6455 4.3468C22.7225 4.33237 22.7898 4.33718 22.8475 4.35642C22.9052 4.38047 22.9581 4.40452 23.0014 4.43819C22.9774 4.18326 22.7898 3.90428 22.4339 3.59644C22.203 3.38961 22.0539 3.24531 21.9817 3.16835C21.8807 3.21645 21.8086 3.30302 21.7701 3.43771C21.7268 3.57239 21.6931 3.75036 21.6739 3.97643C21.9432 4.43819 22.2415 4.91919 22.5685 5.42424C22.8956 5.92929 23.2083 6.38624 23.5113 6.79028C23.7903 7.15103 24.0981 7.49254 24.4348 7.81962L25.4064 8.82492C25.5844 9.01732 25.7383 9.20009 25.873 9.36844C26.0077 9.53679 26.1279 9.71477 26.2386 9.89755C26.4791 10.2823 26.633 10.6912 26.7003 11.1193C26.3155 11.4897 25.8393 11.8408 25.267 12.1679C24.7571 12.4469 24.2569 12.721 23.7566 13C24.1895 12.9086 24.5166 12.8365 24.7379 12.7787C25.4161 12.6152 25.9404 12.442 26.3059 12.2496C26.7821 11.836 27.114 11.3069 27.2968 10.6672C27.4363 10.1813 27.5036 9.56084 27.5036 8.79605L27.5132 8.80087ZM20.4473 5.15488C20.4473 5.15488 20.4569 5.21741 20.4569 5.27032C20.4569 5.37133 20.4377 5.46753 20.3992 5.55892C20.3607 5.65031 20.3078 5.73208 20.2357 5.79942C20.0914 5.79942 19.9952 5.71284 19.9471 5.54449C19.9375 5.50601 19.9375 5.4531 19.9375 5.38095C19.9375 5.24146 19.9519 5.12602 19.9856 5.03463C20.0144 4.94324 20.0721 4.81337 20.1587 4.64021C20.1587 4.64983 20.1443 4.71717 20.1202 4.84223C20.0914 4.96729 20.0818 5.07311 20.0818 5.15007C20.0818 5.28956 20.1299 5.39057 20.2213 5.46272C20.2886 5.46272 20.3367 5.41462 20.3656 5.32323C20.3944 5.23184 20.4233 5.17412 20.4521 5.15007L20.4473 5.15488ZM22.0154 6.50649L21.5296 7.15103C21.3516 7.05964 21.2217 6.98749 21.1352 6.9442C20.9716 6.85281 20.8947 6.76142 20.8947 6.66522C20.8947 6.61712 20.9139 6.56421 20.9524 6.50168L21.3564 5.95815C21.4959 6.02549 21.6306 6.11208 21.7605 6.2179C21.8903 6.32372 21.9769 6.4151 22.0154 6.50168V6.50649ZM20.7792 3.32227C20.1395 3.49062 19.3843 3.76479 18.5041 4.13997C17.7585 4.47667 17.013 4.81818 16.2626 5.15488C16.2386 5.19336 16.2049 5.2607 16.152 5.35209C16.1039 5.44348 16.0895 5.52525 16.1135 5.59259C16.4839 5.29918 17.0659 4.99134 17.8692 4.66907C18.3983 4.46224 18.7638 4.30832 18.9562 4.20731C19.3555 4.04377 19.7547 3.88504 20.1587 3.7215C20.4377 3.60606 20.6445 3.47138 20.784 3.31745L20.7792 3.32227ZM17.1092 3.8177C17.0948 3.962 17.0707 4.08225 17.0418 4.17364C17.013 4.26503 16.9456 4.33237 16.8446 4.37085C16.7051 4.37085 16.6378 4.30351 16.6378 4.16402C16.6378 3.962 16.6667 3.7696 16.7292 3.5772C16.7677 3.45214 16.8398 3.27898 16.9505 3.0481C16.9649 3.13468 16.9456 3.25493 16.8879 3.41847C16.8302 3.58201 16.8013 3.69745 16.8013 3.76479C16.8013 3.87061 16.8446 3.96681 16.9264 4.04377C16.9553 3.98124 16.9841 3.93314 17.0082 3.89466C17.0322 3.85618 17.0659 3.83213 17.114 3.82732L17.1092 3.8177ZM19.8316 6.79509C19.6681 7.0404 19.5142 7.28571 19.3603 7.5214C19.2689 7.50697 19.1775 7.46369 19.0813 7.39635C18.8215 7.21357 18.6724 7.11736 18.6436 7.10774C18.6724 7.02116 18.7205 6.92496 18.7831 6.80952C18.8071 6.76142 18.9129 6.60269 19.1053 6.32371C19.3651 6.42472 19.6104 6.58345 19.8316 6.79509ZM22.8235 11.634C22.5685 11.836 22.2655 11.9899 21.9192 12.0957C21.5681 12.2015 21.2121 12.2593 20.8514 12.2593C20.3992 12.2593 19.9759 12.1775 19.5815 12.0188C19.1679 12.1823 18.7542 12.317 18.3405 12.4276C17.9269 12.5382 17.5325 12.596 17.1573 12.596C16.7196 12.596 16.3203 12.519 15.9548 12.3651C15.6566 12.1053 15.4353 11.7927 15.291 11.4367C15.1467 11.0808 15.0794 10.6912 15.0794 10.2775C15.0794 8.99326 15.0505 7.8533 14.988 6.86243C14.9254 5.87157 14.8052 4.8759 14.632 3.88504C14.6705 3.80808 14.7234 3.70226 14.7956 3.57239C14.8629 3.44252 14.9351 3.33189 15.0024 3.23569C15.1659 3.87542 15.267 4.67388 15.3151 5.63588C15.3391 6.47282 15.3632 7.34825 15.392 8.26215C15.4209 9.17605 15.493 9.95527 15.6181 10.6094C15.7335 10.8403 15.8393 11.0183 15.9307 11.1385C16.075 11.3406 16.2338 11.4656 16.4021 11.5185C16.5705 11.5714 16.7292 11.6147 16.8831 11.6388C17.0322 11.6676 17.2054 11.6772 17.3978 11.6772C17.6671 11.6772 17.9269 11.6532 18.1818 11.6003C18.4367 11.5522 18.7061 11.4704 18.9899 11.3646C18.9803 11.2876 18.9755 11.2203 18.9707 11.1626C18.9707 11.1049 18.9658 11.0519 18.9658 11.0087C18.9658 10.5854 19.0524 10.191 19.2256 9.8254C19.3987 9.45984 19.6681 9.152 20.0385 8.90669C20.1828 8.89226 20.3126 8.92111 20.4185 8.99326C20.5243 9.06541 20.6061 9.16642 20.659 9.3011C20.7263 9.41654 20.7792 9.55123 20.8081 9.70034C20.8369 9.84945 20.8562 10.0082 20.8562 10.1669C20.8562 10.3593 20.8417 10.5373 20.8177 10.696C20.7888 10.8596 20.7504 11.052 20.6974 11.2828C20.8514 11.3069 20.9957 11.3165 21.1352 11.3165C21.4141 11.3165 21.6835 11.2684 21.9529 11.177C22.2222 11.0856 22.4627 10.9606 22.6792 10.8066C22.5878 10.5854 22.4579 10.2246 22.2847 9.72919C22.1164 9.23376 21.9913 8.88745 21.9144 8.69505C21.9529 8.49303 22.001 8.31986 22.0587 8.17556C22.1164 8.03126 22.1982 7.93506 22.3088 7.88696C22.3377 7.96392 22.4339 8.09379 22.5974 8.28138C22.7369 8.44493 22.8042 8.56998 22.8042 8.66137C22.8042 8.69985 22.7946 8.73834 22.7706 8.77681C22.6647 8.77681 22.607 8.80567 22.5974 8.85858C22.6214 8.93554 22.6936 9.16161 22.8187 9.5416C22.987 10.0515 23.0736 10.4555 23.0736 10.7537C23.0736 10.9317 23.0544 11.0808 23.0207 11.2059C22.987 11.3309 22.9245 11.4704 22.8283 11.634H22.8235ZM17.3304 7.91583C17.4315 7.71381 17.4796 7.48773 17.4796 7.2328C17.4796 6.74699 17.3304 6.34295 17.0274 6.02068L16.8879 6.3189C17.0322 6.47282 17.138 6.64599 17.2054 6.83358C17.2727 7.02117 17.3016 7.228 17.3016 7.44926C17.3016 7.78596 17.2342 8.08898 17.1044 8.34872C17.1332 8.30062 17.1765 8.22367 17.2246 8.11785C17.2727 8.01203 17.3064 7.93987 17.3208 7.91101L17.3304 7.91583ZM18.3117 9.01251C18.2059 8.94998 18.1193 8.92112 18.0568 8.92112C17.9125 8.92112 17.8066 9.10871 17.7441 9.47908C17.6816 9.85426 17.6383 10.0659 17.6046 10.1188C17.5373 10.0322 17.4459 9.84944 17.3353 9.57046C17.2246 9.29148 17.0948 9.11351 16.9505 9.04617C16.811 9.13756 16.7436 9.27705 16.7436 9.45984C16.7436 9.52237 16.7532 9.5849 16.7773 9.65705C16.8446 9.633 16.9024 9.62337 16.9505 9.62337C17.0948 9.62337 17.2198 9.75805 17.3256 10.0226C17.4315 10.2872 17.518 10.4459 17.5854 10.5036C17.6527 10.3593 17.7104 10.1958 17.7585 10.0226C17.8066 9.84944 17.8644 9.57047 17.9413 9.18567C18.0471 9.20972 18.1433 9.25301 18.2299 9.32516L18.3117 9.01251ZM11.8951 3.46176L11.847 3.74074C11.7797 3.71188 11.722 3.68783 11.6835 3.6734C11.645 3.65897 11.6017 3.65897 11.5584 3.6734C11.4719 4.22174 11.3949 4.76046 11.3179 5.29918C11.1352 4.99134 10.9476 4.6835 10.7648 4.37566L10.683 4.48148C10.558 4.41414 10.4858 4.37085 10.4618 4.35642C10.3944 4.30351 10.3463 4.23136 10.3223 4.13516C10.3367 4.01972 10.3511 3.92352 10.3559 3.84175C10.3656 3.75998 10.404 3.69745 10.4714 3.64935C10.6542 3.77922 10.8177 3.95238 10.9572 4.16883C11.0245 4.27465 11.14 4.48629 11.2939 4.79413C11.3083 4.43819 11.3227 4.14478 11.342 3.90428C11.3564 3.66378 11.4478 3.47138 11.6065 3.32708C11.722 3.31746 11.8182 3.36556 11.8951 3.46657V3.46176ZM11.7701 6.53054C11.7941 6.57864 11.8037 6.61713 11.8037 6.64599C11.8037 6.6989 11.7749 6.77104 11.722 6.85762C11.6691 6.9442 11.6354 7.00192 11.6306 7.02597C11.4382 7.21837 11.2314 7.34825 11.0053 7.4204C11.0293 7.31939 11.1159 7.21837 11.2698 7.12217C11.4238 7.02116 11.52 6.93939 11.5584 6.88167C11.443 6.84319 11.3227 6.82395 11.2025 6.82395C11.0197 6.82395 10.8706 6.87205 10.7648 6.97306C10.7888 6.86724 10.8273 6.76623 10.8802 6.67965C10.9331 6.59307 11.0101 6.53535 11.1111 6.5113H11.4478C11.5777 6.5113 11.6883 6.52092 11.7701 6.53535V6.53054ZM14.0693 9.45021C14.0693 9.10389 14.0404 8.74314 13.9875 8.36315C13.9346 7.98797 13.8143 7.35786 13.6315 6.48244C13.6171 6.367 13.5642 6.11689 13.4776 5.73689C13.391 5.3569 13.3429 5.06349 13.3429 4.85185C13.3429 4.72679 13.3526 4.60173 13.3766 4.47186C13.444 4.50072 13.5209 4.55844 13.6027 4.64021C13.6845 4.72198 13.7374 4.79413 13.771 4.85185C13.7807 4.8278 13.7807 4.79413 13.7807 4.74603C13.7807 4.55363 13.6604 4.21693 13.4247 3.74074C13.2227 3.34632 13.1217 3.13949 13.1121 3.11544C13.0447 3.16835 12.987 3.2405 12.9389 3.32708C12.8908 3.41366 12.8331 3.54834 12.7561 3.72631C12.7561 4.35161 12.8427 5.06349 13.0207 5.87157C13.1986 6.67966 13.3718 7.47811 13.545 8.26696C13.7181 9.0558 13.8047 9.7773 13.8047 10.4315C13.0976 11.278 12.227 11.8216 11.1977 12.0572C11.0582 12.0813 10.9283 12.0909 10.8033 12.0909C10.5628 12.0909 10.3463 12.0476 10.1443 11.9659C9.94227 11.8793 9.76911 11.7446 9.62481 11.5618C9.50937 11.456 9.43241 11.3309 9.38912 11.1914C9.34583 11.052 9.32659 10.8932 9.32659 10.7056C9.32659 10.518 9.34583 10.3353 9.38912 10.1525C9.43241 9.9697 9.48532 9.78211 9.54304 9.59933H9.48532C9.35545 9.93122 9.26406 10.1669 9.22077 10.3016C9.07647 10.7393 8.99951 11.1433 8.99951 11.5137C8.99951 11.6291 9.00913 11.7638 9.02837 11.9177C9.04761 12.0717 9.15824 12.2545 9.35545 12.4709C9.53342 12.6633 9.74987 12.8076 9.99999 12.9086C10.202 12.9567 10.3944 12.9759 10.5772 12.9759C10.9764 12.9759 11.3853 12.8846 11.7989 12.697C12.1164 12.5575 12.482 12.341 12.8956 12.038C13.3093 11.7398 13.6171 11.3502 13.8095 10.874C13.9779 10.4603 14.0644 9.97932 14.0644 9.43098L14.0693 9.45021ZM12.6022 9.13757C12.6166 9.22896 12.6263 9.28186 12.6263 9.3011C12.6263 9.38768 12.583 9.42617 12.5012 9.42617C12.4002 9.41174 12.3328 9.40212 12.2944 9.40212C12.1885 9.40212 12.1308 9.46465 12.1308 9.5849C12.1308 9.78692 12.1212 9.96008 12.0972 10.114C12.0491 10.3353 12.0202 10.4988 12.0058 10.5998C11.9144 10.5709 11.8037 10.4266 11.6787 10.1669C11.5536 9.90717 11.4093 9.7821 11.2458 9.7821C11.1977 9.7821 11.1592 9.78211 11.1303 9.79173C11.0678 9.76287 11.0293 9.734 11.0101 9.71476C10.9909 9.69552 10.9812 9.67147 10.9812 9.6378C10.9909 9.62337 11.0005 9.55123 11.0149 9.41655C11.0293 9.28668 11.0678 9.2001 11.1303 9.16162C11.3083 9.22896 11.4719 9.38288 11.6258 9.61376C11.7412 9.81578 11.8615 10.0082 11.9817 10.2006C11.9961 10.1381 12.0154 9.93122 12.0346 9.57528C12.0539 9.21934 12.1501 9.04617 12.328 9.04617C12.405 9.04617 12.4964 9.07503 12.607 9.12794L12.6022 9.13757ZM10.202 8.28138C10.202 8.28138 10.1443 8.54113 10.0529 8.98365C9.99037 9.27706 9.87493 9.46946 9.70658 9.56085C9.60076 9.56085 9.49494 9.50793 9.39393 9.3973C9.34102 9.34439 9.26887 9.23858 9.17267 9.08466C9.11976 8.86339 9.0909 8.62771 9.0909 8.3824C9.0909 7.95912 9.17748 7.51659 9.34583 7.05483C9.47089 6.70851 9.66329 6.30447 9.93265 5.84271C9.7643 6.24194 9.64886 6.52574 9.58633 6.6989C9.46127 7.05965 9.40355 7.3771 9.40355 7.64646C9.40355 7.84848 9.43722 8.02645 9.49975 8.18999C9.56709 8.35353 9.67291 8.50265 9.81721 8.64214C9.91822 8.66619 9.99999 8.61328 10.0577 8.49303C10.1202 8.36797 10.1635 8.30062 10.1972 8.28619L10.202 8.28138ZM20.5099 10.6816C20.4473 10.5132 20.3896 10.3449 20.3367 10.1717C20.2357 9.97931 20.0962 9.87349 19.9086 9.84944C19.6777 9.98893 19.4949 10.1669 19.3651 10.3785C19.3506 10.4411 19.341 10.4844 19.341 10.518C19.341 10.6046 19.3699 10.6864 19.4324 10.7682C19.4949 10.8499 19.5767 10.9221 19.6729 10.9942C19.7354 11.0087 19.7787 11.0183 19.8124 11.0183C19.9278 11.0183 20.0337 10.9894 20.1347 10.9317C20.2357 10.874 20.3559 10.7922 20.505 10.6816H20.5099Z" fill="currentColor"/>
</svg>
