<svg width="40" height="16" viewBox="0 0 40 16" fill="none" xmlns="http://www.w3.org/2000/svg">
<path fill-rule="evenodd" clip-rule="evenodd" d="M29.362 3C29.3828 3.05417 29.3703 3.10833 29.3203 3.16667C29.2745 3.225 29.2287 3.275 29.1912 3.32083C29.0662 3.475 28.787 3.5625 28.362 3.57917C27.937 3.6 27.6745 3.72083 27.5828 3.95C27.6495 3.775 27.6912 3.675 27.712 3.64167C27.7787 3.51667 27.8537 3.42083 27.9412 3.3625C28.262 3.3625 28.5328 3.3375 28.7578 3.29167C28.9828 3.24583 29.1828 3.15 29.362 3ZM29.3912 5.95833C29.3245 5.94583 29.237 5.86667 29.1328 5.72917C29.0787 5.65417 29.0245 5.60417 28.962 5.57917C28.9495 5.59167 28.9287 5.625 28.9037 5.675C28.8787 5.725 28.8453 5.75 28.812 5.75L29.1537 9.82917C29.1537 10.2958 29.1287 10.675 29.0828 10.9708C29.0162 11.3708 28.8995 11.725 28.7328 12.0292C28.8203 11.575 28.862 11.0875 28.862 10.5583C28.862 10.1 28.8287 9.56667 28.7662 8.95833C28.7037 8.35 28.6412 7.76667 28.5828 7.20833C28.4745 6.34167 28.3703 5.475 28.262 4.60833C28.3537 4.42917 28.412 4.32083 28.4328 4.2875C28.5078 4.1625 28.5745 4.07083 28.6412 4.01667C28.6537 4.05833 28.7537 4.29167 28.9412 4.725C29.1662 5.25833 29.3162 5.66667 29.3912 5.95417V5.95833ZM25.2995 4.2375C25.3203 4.3375 25.3162 4.4 25.2953 4.42917C25.2703 4.45417 25.2287 4.47083 25.1703 4.47083C25.0828 4.47083 25.0203 4.47917 24.9787 4.49583C24.937 4.5125 24.9203 4.57083 24.9203 4.67083C24.8953 4.825 24.8662 4.95417 24.8412 5.0625C24.8162 5.17083 24.7703 5.27083 24.712 5.3625C24.687 5.2375 24.5912 5.09583 24.4287 4.9375C24.2662 4.77917 24.1828 4.64167 24.1828 4.52083C24.2078 4.4125 24.237 4.35417 24.262 4.34167C24.3703 4.3875 24.462 4.48333 24.5412 4.62083C24.5995 4.74583 24.6662 4.87083 24.7328 4.99167C24.787 4.78333 24.8287 4.63333 24.862 4.53333C24.9203 4.35417 25.0203 4.23333 25.1537 4.175C25.1953 4.1875 25.2245 4.19583 25.2453 4.2C25.2662 4.2 25.287 4.21667 25.3037 4.24583L25.2995 4.2375ZM22.8578 4.76667C22.8703 4.82083 22.8662 4.87917 22.8495 4.94583C22.8287 5.0125 22.7953 5.07083 22.7495 5.125C22.6953 5.17083 22.6453 5.16667 22.5995 5.11667C22.5537 5.0375 22.5203 4.98333 22.4995 4.95833C22.4995 4.84583 22.5162 4.74167 22.5453 4.64167C22.5745 4.54583 22.6162 4.44167 22.6703 4.3375C22.6787 4.3625 22.6787 4.4 22.6703 4.44583C22.6453 4.60417 22.6287 4.6875 22.6287 4.69583C22.6287 4.79583 22.6703 4.86667 22.7495 4.90417L22.8578 4.7625V4.76667ZM21.4162 4.50833C21.4162 4.66667 21.3412 4.825 21.1953 4.97917C21.0495 5.12083 20.9037 5.25417 20.7662 5.3875C20.5328 5.45417 20.2995 5.51667 20.0662 5.57917C20.1412 5.5125 20.2328 5.45 20.3453 5.3875C20.6703 5.20833 20.8495 5.10833 20.8745 5.0875C20.7745 5.05417 20.6745 5.02917 20.5703 5.0125C20.4662 4.99583 20.3537 4.9875 20.237 4.9875C20.1203 4.9875 20.012 5.00417 19.9162 5.03333C19.8245 5.0625 19.7412 5.11667 19.6662 5.1875C19.7412 4.99583 19.8328 4.82917 19.9453 4.69583C20.0995 4.50833 20.262 4.41667 20.437 4.41667C20.4787 4.40833 20.537 4.40833 20.6162 4.40833C20.7245 4.40833 20.8703 4.425 21.062 4.45417C21.2537 4.48333 21.3703 4.50417 21.4162 4.50833ZM20.0662 3.91667C19.6578 4.09583 19.2537 4.275 18.8453 4.44583C18.5912 4.56667 18.3412 4.68333 18.0953 4.79583C17.9495 4.8875 17.8745 5.01667 17.8745 5.175C18.1203 5.02917 18.4662 4.85 18.9162 4.63333C19.1495 4.525 19.5078 4.35833 19.987 4.13333L20.0662 3.9125V3.91667ZM25.6578 10.2958C25.5328 10.5208 25.3287 10.7125 25.0495 10.8667C24.7703 11.0208 24.4912 11.0958 24.2203 11.0958C24.062 11.0958 23.9412 11.0375 23.862 10.9167C23.862 10.7917 23.8953 10.675 23.962 10.575C24.0287 10.475 24.1287 10.3708 24.262 10.2667C24.237 10.2542 24.2037 10.225 24.162 10.1833C24.1203 10.1417 24.0912 10.1125 24.0703 10.1C24.1245 9.97917 24.1787 9.88333 24.2287 9.80833C24.3162 9.69583 24.412 9.61667 24.5203 9.57917C24.6287 9.56667 24.6912 9.59167 24.712 9.65833C24.7203 9.70417 24.7037 9.74583 24.662 9.77917C24.6037 9.8375 24.5703 9.87083 24.562 9.87917C24.5412 9.87917 24.512 9.86667 24.4662 9.8375C24.4245 9.8125 24.3828 9.80833 24.3495 9.82917L24.2787 9.9C24.3037 9.95834 24.3495 10 24.412 10.025C24.4745 10.05 24.5453 10.0583 24.6162 10.0583C24.7495 10.0125 24.8828 9.9625 25.0162 9.90833C24.9745 10.0208 24.7578 10.1792 24.3662 10.3792C24.1995 10.4667 24.1162 10.55 24.1162 10.6292C24.1162 10.6833 24.1495 10.7458 24.2162 10.8208C24.4953 10.8208 24.7578 10.7792 24.9995 10.6958C25.2412 10.6125 25.462 10.4792 25.6537 10.3L25.6578 10.2958ZM19.7287 6.61667C19.7037 6.70417 19.6745 6.7875 19.6495 6.86667C19.5745 6.82083 19.487 6.79583 19.3787 6.79583C19.2995 6.95417 19.2287 7.14583 19.1745 7.36667C19.1162 7.5875 19.062 7.8 19.0078 8.00834C18.9287 7.92084 18.8537 7.76667 18.7828 7.54167C18.712 7.31667 18.6412 7.1625 18.5662 7.075C18.5662 7.14167 18.5537 7.18333 18.5245 7.20417C18.4828 7.21667 18.4495 7.225 18.4162 7.225C18.337 7.225 18.287 7.1875 18.2662 7.11667C18.2787 6.99583 18.2953 6.90833 18.3162 6.84583C18.337 6.7875 18.3745 6.72083 18.437 6.65417C18.612 6.7 18.737 6.82917 18.8162 7.04583C18.8745 7.23333 18.9412 7.42083 19.0078 7.60417C19.0495 7.5375 19.0995 7.36667 19.1578 7.0875C19.2162 6.8125 19.3162 6.625 19.4495 6.53333C19.5703 6.5125 19.662 6.54167 19.7287 6.6125V6.61667ZM27.2703 5.8375C27.0287 5.2625 26.7912 4.69167 26.5495 4.11667C26.462 4.19583 26.3912 4.29167 26.3287 4.4C26.2662 4.50833 26.237 4.61667 26.237 4.725V4.77083C26.237 4.79583 26.237 4.81667 26.2453 4.8375L27.037 9.47917L27.0453 10.2208C26.487 10.7208 25.9412 11.0958 25.4162 11.3417C24.8037 11.6292 24.162 11.7708 23.4953 11.7708C23.3162 11.7708 23.1412 11.7 22.9703 11.5542C22.7995 11.4125 22.6787 11.2458 22.6037 11.0625C22.5287 10.8792 22.4953 10.6792 22.4953 10.4583C22.4953 10.15 22.5703 9.9125 22.7162 9.7375C22.9037 9.69167 23.1162 9.62083 23.3578 9.52083C23.5995 9.425 23.8287 9.32917 24.0495 9.2375C24.1703 9.14583 24.4995 8.97083 25.0412 8.71667C25.4662 8.51667 25.7662 8.3125 25.9412 8.10833L26.212 7.41667C25.7995 7.6625 25.387 7.90834 24.9703 8.15834C24.4828 8.43334 24.037 8.56667 23.6287 8.56667C23.5203 8.56667 23.4037 8.55833 23.2703 8.5375C22.9287 8.425 22.6703 8.21667 22.4953 7.9125C22.3203 7.60833 22.2287 7.26667 22.2287 6.8875C22.6162 6.66667 22.9745 6.5 23.3078 6.3875C23.7162 6.24583 24.0995 6.17917 24.4662 6.17917C24.7203 6.17917 24.9578 6.2125 25.187 6.27917H25.2578C25.2453 6.25417 25.2287 6.21667 25.2078 6.17083C24.8828 5.925 24.4662 5.8 23.9662 5.8C23.5662 5.8 23.2078 5.875 22.887 6.02917C22.6787 6.15 22.5037 6.3 22.3537 6.47917C22.2037 6.65833 22.0995 6.85417 22.037 7.05833C21.9495 7.23333 21.9078 7.4125 21.9078 7.6C21.9078 7.84167 21.9828 8.10417 22.1287 8.39167C22.2495 8.625 22.4078 8.85833 22.6078 9.09167C22.2662 9.2 21.9287 9.25 21.587 9.25C21.087 9.25 20.6537 9.14167 20.287 8.92083C20.2537 8.89583 20.237 8.82917 20.237 8.72083C20.237 8.64583 20.2162 8.6 20.1787 8.57917L19.9703 9.0375C19.512 9.0375 19.062 9.17084 18.6203 9.4375C18.312 9.625 17.9453 9.93333 17.512 10.3667C17.2537 10.6417 16.9953 10.9083 16.7412 11.175C16.2078 11.7333 15.7537 12.1292 15.3828 12.3542C15.3245 12.375 15.2578 12.3833 15.1912 12.3833C14.9995 12.3833 14.8453 12.3125 14.7328 12.175C14.6787 12.1208 14.6412 12.0667 14.612 12.0167C14.587 11.9625 14.5787 11.9083 14.5912 11.8583C15.1328 11.5167 15.5245 11.2208 15.7703 10.9667C16.1578 10.5667 16.3495 10.1417 16.3495 9.6875C16.3495 9.59583 16.3495 9.525 16.3412 9.47917C16.3412 9.37917 16.3162 9.2375 16.262 9.05C16.162 8.70417 16.112 8.47917 16.112 8.37917C16.112 8.2875 16.1328 8.19167 16.1703 8.1C16.1953 8.14167 16.2745 8.15834 16.3995 8.15834C16.3745 8.025 16.3245 7.9 16.2578 7.7875C16.2495 7.775 16.1162 7.60833 15.8578 7.2875C15.7703 7.40833 15.712 7.53334 15.6787 7.66667C15.6453 7.8 15.6287 7.9375 15.6287 8.075C15.7703 8.73333 15.912 9.39167 16.0578 10.0458C15.8828 10.2542 15.6745 10.4458 15.4287 10.625C15.262 10.7458 15.0287 10.9 14.7287 11.0958C14.7495 10.9958 14.7953 10.8542 14.8703 10.6667C15.0037 10.3208 15.0787 10.0833 15.0995 9.95833C14.987 10.1167 14.8745 10.325 14.7703 10.5792C14.762 10.6 14.6787 10.8208 14.512 11.25C14.2245 11.4292 13.962 11.575 13.7162 11.6833C13.4745 11.7917 13.2037 11.8875 12.912 11.9667C12.6787 12.0208 12.4578 12.0458 12.2537 12.0458C11.887 12.0458 11.5495 11.975 11.2453 11.8292C10.937 11.6875 10.6787 11.4625 10.4662 11.1625C10.3912 11.0542 10.3453 10.9583 10.3203 10.8708C10.2953 10.7833 10.287 10.6792 10.287 10.55C10.3995 10.0833 10.512 9.6125 10.6287 9.14167C10.4287 9.50833 10.287 9.80417 10.1995 10.0333C10.0662 10.3792 9.99951 10.6958 9.99951 10.9833C9.99951 11.0708 9.99951 11.1542 10.0078 11.2333C10.0162 11.3125 10.0287 11.3875 10.0495 11.4542C10.1162 11.6958 10.2578 11.9125 10.4703 12.1125C10.6453 12.2708 10.8578 12.4208 11.112 12.5542C11.2787 12.6458 11.437 12.7125 11.5912 12.7458C11.7453 12.7792 11.912 12.7958 12.0912 12.7958C12.4245 12.7958 12.812 12.7167 13.2495 12.5542C13.4245 12.4875 13.7787 12.3375 14.3203 12.1042C14.3203 12.1625 14.3412 12.2417 14.387 12.3375C14.4287 12.4333 14.4537 12.5 14.462 12.5333C14.5412 12.6792 14.6453 12.7917 14.7703 12.875C14.8953 12.9542 15.0412 12.9958 15.1995 12.9958C15.2578 12.9958 15.3037 12.9958 15.3287 12.9875C15.6703 12.8125 16.0412 12.525 16.4495 12.1167C16.7912 11.7583 17.1287 11.4 17.4703 11.0458C17.8828 10.625 18.2495 10.325 18.5703 10.1458C18.9953 9.90417 19.4537 9.7875 19.9412 9.7875C20.062 10.0875 20.1995 10.3625 20.3495 10.6083C20.537 10.9 20.7412 11.1458 20.9703 11.3375C21.0828 11.15 21.1703 10.9542 21.237 10.7458C21.2995 10.5375 21.3328 10.3333 21.3328 10.125C21.3328 10.0375 21.3328 9.975 21.3245 9.93333C21.3662 9.94167 21.4287 9.94167 21.5162 9.94167C21.6412 9.94167 21.8245 9.925 22.0578 9.89167C22.2912 9.85833 22.462 9.84167 22.5662 9.84167C22.4412 10.0958 22.3328 10.3833 22.2453 10.7125C22.2245 10.825 22.2162 10.9333 22.2162 11.0333C22.2162 11.3125 22.2787 11.5708 22.3995 11.8042C22.5245 12.0375 22.6995 12.2208 22.9245 12.3542C23.0787 12.4083 23.2203 12.4458 23.3495 12.4625C23.4787 12.4833 23.6162 12.4917 23.7662 12.4917C24.1662 12.4917 24.5787 12.3958 25.0078 12.2C25.4662 11.9875 26.0787 11.575 26.837 10.9583C27.0245 10.6792 27.1537 10.4 27.2287 10.1292C27.3037 9.85417 27.337 9.55 27.337 9.20833C27.337 9.03333 27.3287 8.875 27.3162 8.73333C27.3037 8.59167 27.2828 8.43333 27.2578 8.26667C27.1703 7.8 27.0828 7.3125 26.9995 6.8C26.912 6.29167 26.8703 5.85 26.8703 5.48333C26.912 5.52917 26.9662 5.59583 27.0412 5.68333C27.1162 5.77083 27.1995 5.81667 27.2912 5.825L27.2703 5.8375ZM17.3495 5.67917C17.2828 5.70417 17.2245 5.67083 17.1703 5.575C17.1162 5.47917 17.062 5.425 17.012 5.40833C17.012 5.65417 17.0578 6.16667 17.1537 6.9375C17.1995 7.325 17.2245 7.63333 17.2245 7.86667V8.175C17.2245 8.62917 17.2078 9.01667 17.1745 9.34167C17.1412 9.66667 17.0662 9.98333 16.9453 10.2958C16.987 9.94167 17.0037 9.59583 17.0037 9.25417C17.0037 8.64583 16.9453 7.94167 16.8328 7.1375C16.7203 6.33333 16.612 5.56667 16.512 4.83333C16.487 4.77917 16.4703 4.725 16.4703 4.6625C16.4703 4.5875 16.487 4.5125 16.5245 4.43333C16.562 4.35417 16.6412 4.22917 16.7703 4.0625C16.937 4.41667 17.0537 4.675 17.1203 4.84167C17.2412 5.13333 17.3162 5.4125 17.3495 5.67083V5.67917ZM15.6912 5.72917C15.712 5.775 15.7078 5.83333 15.6745 5.9C15.6453 5.96667 15.6162 6.02917 15.5912 6.09167C15.5037 6.17917 15.4162 6.20417 15.3203 6.17083C15.2453 6.07917 15.212 5.97083 15.212 5.85C15.212 5.7375 15.237 5.6125 15.2912 5.47917C15.3703 5.3125 15.4287 5.19583 15.462 5.12917C15.462 5.1875 15.437 5.28333 15.387 5.4125C15.337 5.54167 15.312 5.63333 15.312 5.6875C15.312 5.75417 15.337 5.82083 15.3828 5.8875C15.4162 5.90833 15.4453 5.91667 15.4745 5.91667C15.5287 5.91667 15.5745 5.9 15.6078 5.8625C15.6453 5.825 15.6745 5.77917 15.6912 5.72917ZM14.312 4.5375C14.3037 4.59583 14.262 4.62917 14.1828 4.62917C14.0953 4.61667 14.0328 4.60833 13.9912 4.60833C13.8912 4.60833 13.8328 4.65833 13.812 4.75833C13.7328 5.1 13.6537 5.4375 13.5828 5.77917C13.5245 5.73333 13.4287 5.55 13.3037 5.22917C13.2037 4.98333 13.0578 4.85833 12.862 4.85833C12.8287 4.825 12.812 4.79167 12.812 4.75833C12.812 4.71667 12.8287 4.6625 12.862 4.59167C12.8953 4.52083 12.912 4.475 12.912 4.44583L13.0203 4.36667C13.0953 4.4125 13.2287 4.65 13.4203 5.075C13.487 5.22917 13.562 5.28333 13.6412 5.24583C13.6828 4.94583 13.7162 4.75 13.7412 4.6625C13.7662 4.57083 13.8162 4.47917 13.8828 4.3875C13.9412 4.34583 14.0203 4.32917 14.112 4.32917C14.187 4.32917 14.2412 4.34583 14.2828 4.37917C14.3245 4.4125 14.3328 4.46667 14.312 4.5375ZM20.3203 11.5167C20.3203 11.625 20.2953 11.6958 20.2453 11.7333C20.1953 11.7708 20.1245 11.7875 20.0287 11.7875C19.9162 11.7792 19.8287 11.7792 19.7703 11.7792C19.6578 11.7792 19.5912 11.7792 19.5745 11.7833C19.5578 11.7833 19.5245 11.8125 19.4787 11.8583C19.4787 11.9458 19.4995 12.0833 19.537 12.2792C19.5787 12.4708 19.5953 12.6208 19.5953 12.7208C19.5953 12.8333 19.5787 12.9292 19.5453 13C19.5453 12.8875 19.512 12.7167 19.4495 12.4958C19.387 12.2708 19.3537 12.1125 19.3537 12.0208C19.3537 11.9333 19.3578 11.8708 19.3703 11.8292C19.3787 11.7875 19.4037 11.7375 19.4453 11.6708C19.5662 11.5833 19.7245 11.525 19.9245 11.4917C19.8703 11.4333 19.8037 11.4 19.7245 11.4C19.6995 11.4 19.6662 11.4083 19.6245 11.4208L19.5453 11.5125C19.512 11.4792 19.512 11.4333 19.5412 11.3792C19.5703 11.3208 19.587 11.2792 19.587 11.2542C19.6787 11.2 19.7495 11.1583 19.7953 11.125C19.9037 11.125 20.0037 11.1708 20.0953 11.2667C20.1953 11.3917 20.2703 11.4792 20.3162 11.525L20.3203 11.5167ZM14.062 7.34583C13.9412 7.525 13.8245 7.70417 13.712 7.8875L13.162 7.49583C13.187 7.40417 13.2412 7.29584 13.3203 7.175C13.3745 7.09584 13.4453 6.99167 13.5412 6.86667C13.6495 6.925 13.7578 6.9875 13.8703 7.04583C13.9953 7.13333 14.062 7.23333 14.062 7.34583ZM18.1912 12.2167C18.1912 12.3083 18.1745 12.3958 18.1453 12.475C18.1162 12.5542 18.062 12.625 17.9912 12.6833C17.912 12.7042 17.8453 12.675 17.7912 12.6042C17.7703 12.5708 17.7578 12.5292 17.7453 12.4833C17.737 12.4375 17.7287 12.3792 17.7287 12.3125C17.7287 12.1667 17.7537 12.0167 17.8078 11.8625C17.8162 11.8417 17.8495 11.7542 17.9162 11.6042C17.9037 11.6583 17.887 11.7333 17.8662 11.8292C17.8453 11.925 17.837 12 17.837 12.0542C17.837 12.2083 17.8828 12.3292 17.9787 12.425C18.0245 12.4333 18.062 12.4125 18.087 12.3667C18.112 12.3208 18.1453 12.2708 18.187 12.2167H18.1912ZM11.3995 8.075C11.3662 8.34167 11.3328 8.54167 11.2995 8.675C11.2412 8.91667 11.1245 9.07917 10.9495 9.16667C10.7162 9.1875 10.5537 9.09583 10.4578 8.89583C10.412 8.70833 10.387 8.50833 10.387 8.29583C10.387 7.92917 10.4703 7.54167 10.637 7.1375C10.7578 6.84583 10.9453 6.49583 11.1953 6.0875C11.087 6.34167 10.987 6.59167 10.887 6.8375C10.7662 7.1625 10.7078 7.44583 10.7078 7.67917C10.7078 7.83333 10.7245 7.96667 10.762 8.08333C10.7995 8.2 10.8662 8.31667 10.9662 8.4375C11.0245 8.47917 11.0912 8.47083 11.162 8.42083C11.2328 8.37083 11.2787 8.30833 11.3078 8.2375C11.3162 8.2125 11.3245 8.18334 11.3412 8.15834C11.3578 8.13334 11.3745 8.10417 11.3953 8.07917L11.3995 8.075ZM13.5078 9.16667C13.5203 9.24583 13.5287 9.29167 13.5287 9.30833C13.5287 9.3875 13.487 9.42917 13.3995 9.42917C13.2995 9.41667 13.2245 9.40834 13.1703 9.40834C13.0578 9.40834 12.9912 9.48333 12.9745 9.6375C12.9578 9.79167 12.937 9.92917 12.9078 10.0542C12.8828 10.1792 12.8328 10.2792 12.7662 10.3583C12.7412 10.3333 12.6745 10.2 12.5745 9.95833C12.4995 9.77917 12.4162 9.6875 12.3245 9.6875C12.2828 9.6875 12.2412 9.7 12.1953 9.72917C12.1037 9.75417 12.0537 9.72083 12.0537 9.62083C12.0787 9.52083 12.0995 9.43333 12.112 9.3625C12.1245 9.2875 12.1662 9.225 12.2328 9.17084C12.3745 9.22917 12.4912 9.35417 12.5828 9.54167C12.6578 9.7 12.7287 9.8625 12.8037 10.0208C12.8578 9.775 12.8995 9.5875 12.9328 9.4625C12.9995 9.22917 13.1078 9.1125 13.262 9.1125C13.3495 9.1125 13.4287 9.13334 13.5037 9.17084L13.5078 9.16667Z" fill="currentColor"/>
</svg>
