<svg width="40" height="16" viewBox="0 0 40 16" fill="none" xmlns="http://www.w3.org/2000/svg">
<path fill-rule="evenodd" clip-rule="evenodd" d="M28.9553 10.7476L28.7726 11.4828C28.6918 11.7548 28.5941 11.9843 28.4751 12.1755C28.5218 11.9843 28.5601 11.7548 28.5856 11.487C28.6111 11.2193 28.6281 10.9813 28.6281 10.7773C28.6281 10.3566 28.5856 9.82108 28.5048 9.1751C28.3263 7.77263 28.2413 6.88865 28.2413 6.51466C28.0798 5.62218 27.9141 4.73395 27.7526 3.84148C27.7738 3.71823 27.8121 3.59498 27.8758 3.46749C27.9353 3.33999 28.0118 3.20824 28.1011 3.06375C28.3603 3.70123 28.6196 4.33872 28.8873 4.97195C28.8533 4.94645 28.7683 4.8317 28.6323 4.63621C28.5771 4.55971 28.5176 4.49171 28.4496 4.42371C28.5601 5.46494 28.6706 6.54016 28.7853 7.65363C28.9001 8.7671 28.9596 9.79558 28.9596 10.7476H28.9553ZM26.8644 7.14789C26.8389 7.28389 26.8134 7.38164 26.7921 7.44539C26.7454 7.57289 26.6816 7.66213 26.5966 7.70888C26.5414 7.72163 26.4861 7.70038 26.4224 7.64938C26.3629 7.58138 26.3204 7.53464 26.2991 7.50489C26.2566 7.39014 26.2396 7.28389 26.2396 7.1904C26.2396 7.0799 26.2609 6.9694 26.2991 6.85465C26.3076 6.82915 26.3926 6.64641 26.5541 6.31492C26.4989 6.54441 26.4479 6.77816 26.4011 7.00765C26.4011 7.0969 26.4139 7.16914 26.4436 7.22864C26.4691 7.28814 26.5201 7.34339 26.5966 7.39864C26.6731 7.41989 26.7326 7.37739 26.7794 7.27539C26.8049 7.20739 26.8346 7.16489 26.8601 7.15214L26.8644 7.14789ZM23.5579 3.32299C23.5707 3.40374 23.5452 3.48449 23.4772 3.55674C23.4092 3.63323 23.3327 3.67573 23.2435 3.68848C22.351 4.04972 21.6837 4.32596 21.2375 4.52146C20.7913 4.71695 20.4045 4.9082 20.0688 5.09945C20.0688 4.96345 20.124 4.8487 20.2303 4.75095C20.2855 4.70421 20.5023 4.59371 20.8848 4.42371C21.7772 4.05822 22.6655 3.68848 23.5579 3.32299ZM22.9885 5.71143C22.9885 5.82618 22.963 5.94093 22.9162 6.04717C22.8695 6.15767 22.7972 6.24267 22.7037 6.31066C22.6272 6.32341 22.5677 6.30642 22.5252 6.25542C22.4827 6.20442 22.4487 6.14492 22.4275 6.07692C22.4275 5.88568 22.4402 5.72843 22.47 5.60093C22.4955 5.47344 22.5507 5.36294 22.6315 5.26094C22.64 5.32894 22.6315 5.41819 22.606 5.53294C22.5805 5.64343 22.572 5.71568 22.572 5.74118C22.572 5.83043 22.5847 5.88993 22.606 5.92393C22.6315 5.95793 22.6697 5.99192 22.725 6.02592C22.7802 5.99192 22.8312 5.94518 22.878 5.88143C22.8865 5.86868 22.9205 5.80918 22.9885 5.70718V5.71143ZM27.5783 10.1696C27.4763 10.0208 27.3531 9.91882 27.2044 9.86358C27.0599 9.80833 26.8771 9.78283 26.6604 9.78283C26.5031 9.78283 26.3119 9.79983 26.0781 9.83383C25.9549 9.84658 25.7934 9.87208 25.5894 9.90608L24.6119 4.72546L24.7352 4.50021L25.1729 5.0187C25.1729 4.82745 25.1007 4.59796 24.9604 4.32596C24.7777 3.97747 24.6714 3.76073 24.6459 3.67148L24.6162 3.69273C24.5949 3.61623 24.5227 3.46324 24.4037 3.23374C24.3569 3.14449 24.3229 3.068 24.3017 3C24.1742 3.1105 24.0849 3.21674 24.0382 3.32299C23.9914 3.42924 23.9659 3.54398 23.9659 3.67573C23.9659 3.77773 23.9999 3.96898 24.0722 4.24522C24.1444 4.52571 24.1784 4.74245 24.1784 4.8997L25.1389 9.95707V10.1696C24.9137 10.2376 24.5354 10.3523 24.0084 10.5181C23.1712 10.7646 22.4827 10.8836 21.9387 10.8836C21.518 10.8836 21.127 10.8156 20.77 10.6796C20.413 10.5436 20.107 10.3268 19.8563 10.0251C19.631 9.43859 19.4611 8.70761 19.3463 7.83213C19.3123 7.59413 19.2358 6.8249 19.1211 5.52869C19.0318 4.58946 18.9213 3.84573 18.7853 3.29324C18.7598 3.28474 18.7428 3.29324 18.7343 3.31024C18.7258 3.32724 18.7173 3.34424 18.7046 3.35699C18.5218 3.53549 18.4283 3.75648 18.4283 4.01997C18.4283 4.14322 18.4581 4.31746 18.5218 4.55121C18.6451 5.01445 18.7046 5.32044 18.7046 5.46919C18.7726 5.84318 18.8363 6.47641 18.8916 7.37314C18.9511 8.26562 19.0276 8.94985 19.1211 9.41734C19.2656 10.1228 19.5035 10.7136 19.835 11.181C20.1325 11.3638 20.4385 11.4913 20.7445 11.5635C21.0505 11.6358 21.3948 11.6698 21.773 11.6698C22.3425 11.6698 22.9545 11.5805 23.6089 11.4063C24.1189 11.2703 24.6714 11.0748 25.2707 10.8156C25.3727 11.0408 25.4746 11.2618 25.5766 11.4785C25.7254 11.776 25.9124 11.9885 26.1376 12.1118C26.1929 12.1245 26.2736 12.15 26.3841 12.184C26.4946 12.218 26.5796 12.235 26.6476 12.235C26.7411 12.235 26.8346 12.2095 26.9239 12.1628C27.1491 11.8993 27.3191 11.6613 27.4338 11.4573C27.5953 11.164 27.6803 10.8921 27.6803 10.6413C27.6803 10.4841 27.6506 10.3268 27.5868 10.1738L27.5783 10.1696ZM21.2035 7.37314C21.1908 7.39864 21.161 7.46239 21.1228 7.55588C21.0803 7.64938 21.042 7.72163 20.9995 7.76838C21.1228 7.55163 21.1823 7.29664 21.1823 7.0034C21.1823 6.54866 21.0548 6.15767 20.804 5.83043C20.7913 5.78793 20.7955 5.74118 20.8253 5.68593C20.8508 5.63068 20.8805 5.57543 20.906 5.52443C21.0505 5.65193 21.1568 5.81768 21.229 6.01317C21.3013 6.20867 21.3353 6.42116 21.3353 6.64641C21.3353 6.9099 21.2928 7.15215 21.2035 7.36889V7.37314ZM23.405 7.70888L23.3327 7.96388C23.3072 7.97238 23.2562 7.96387 23.184 7.94263C23.1117 7.92138 23.0692 7.91288 23.0565 7.91288C22.98 7.91288 22.9332 7.95538 22.912 8.03612C22.878 8.28687 22.8525 8.49936 22.8312 8.67361C22.81 8.84785 22.7717 9.00085 22.7207 9.13684C22.64 9.06885 22.5677 8.9286 22.4997 8.71186C22.436 8.49936 22.368 8.34636 22.3 8.25712C22.266 8.31237 22.2192 8.33787 22.1555 8.33787C22.113 8.33787 22.0662 8.32937 22.011 8.30812C21.9685 8.26562 21.9515 8.20612 21.9515 8.12537C21.9515 8.05737 21.96 7.99787 21.9727 7.95112C21.9855 7.90438 22.0025 7.84913 22.0195 7.79388C22.0365 7.73438 22.0875 7.70888 22.1682 7.70888C22.2235 7.70888 22.283 7.74288 22.3467 7.81513C22.4105 7.88738 22.4827 8.02762 22.5592 8.23162C22.6357 8.43986 22.691 8.57161 22.7165 8.62261C22.759 8.37186 22.7887 8.18487 22.81 8.06162C22.8567 7.83638 22.946 7.67913 23.0735 7.59413C23.15 7.57289 23.2562 7.61114 23.4007 7.70463L23.405 7.70888ZM21.4967 9.08585C21.484 9.2091 21.4543 9.31534 21.4118 9.40034C21.3693 9.48959 21.3055 9.58308 21.2248 9.68508C21.1568 9.70633 21.1058 9.69783 21.0675 9.65958C21.0293 9.62133 20.9953 9.56184 20.9613 9.48109C20.9528 9.43859 20.9528 9.37484 20.9528 9.28559C20.9528 9.13684 20.9698 9.0051 21.0038 8.8861C21.0378 8.77136 21.0888 8.65661 21.1568 8.55036C21.1355 8.71186 21.1143 8.8776 21.0973 9.0391C21.0973 9.1156 21.0973 9.16659 21.1058 9.20059C21.1143 9.23459 21.1355 9.28559 21.178 9.35359C21.246 9.37484 21.3013 9.34509 21.348 9.27284C21.3905 9.19634 21.4245 9.14535 21.4458 9.11135L21.5052 9.0816L21.4967 9.08585ZM17.7526 4.67021C17.6761 4.82745 17.5316 4.97195 17.3149 5.10795C16.7114 5.49469 16.3841 5.71143 16.3374 5.76243C16.3799 5.55844 16.4989 5.37994 16.7029 5.23119C16.5584 5.18445 16.4521 5.14195 16.3756 5.1037C16.2991 5.06545 16.2439 5.02295 16.2014 4.9762C16.2354 4.82745 16.3076 4.68721 16.4139 4.55121C16.5244 4.41946 16.6519 4.30047 16.8006 4.19847C16.8771 4.18572 16.9366 4.18997 16.9791 4.21547C17.0216 4.24097 17.0769 4.27922 17.1364 4.33447C17.1449 4.38972 17.1279 4.44496 17.0854 4.49596C17.0429 4.55121 17.0046 4.60221 16.9621 4.64896C16.9069 4.58096 16.8686 4.53846 16.8389 4.52571C16.7794 4.48321 16.7114 4.47471 16.6434 4.49596C16.5966 4.52146 16.5541 4.55546 16.5201 4.59796C16.5116 4.60646 16.4861 4.65321 16.4394 4.74246C16.5074 4.80195 16.5966 4.8487 16.7029 4.8742C16.8134 4.8997 16.9196 4.9167 17.0301 4.9167H17.1619C17.2299 4.90395 17.2766 4.89545 17.3064 4.89545C17.3531 4.8487 17.4296 4.8062 17.5316 4.7722C17.6336 4.73821 17.7058 4.70421 17.7441 4.67021H17.7526ZM16.7326 3.25074L14.0509 4.30047L13.8767 4.59796L16.2524 3.67148C16.3629 3.62473 16.4734 3.56948 16.5881 3.50999C16.7029 3.45049 16.7496 3.36549 16.7326 3.25499V3.25074ZM24.9519 11.7675C24.9732 11.844 24.9604 11.9163 24.9222 11.9928C24.9094 12.014 24.8627 12.0735 24.7777 12.1755C24.7437 12.218 24.7012 12.235 24.6544 12.235C24.6204 12.235 24.5482 12.2095 24.4419 12.1543L24.3697 12.1033C24.0552 12.3753 23.6132 12.5963 23.0437 12.7663C22.8482 12.8258 22.5465 12.9065 22.147 13C22.8865 12.626 23.6302 12.2563 24.3697 11.8865C24.3697 11.8058 24.4037 11.725 24.4759 11.6528C24.5482 11.5763 24.6247 11.5338 24.7054 11.521C24.7734 11.4998 24.8244 11.521 24.8542 11.5805C24.8839 11.64 24.9179 11.7038 24.9519 11.7633V11.7675ZM17.6803 5.72843C17.3489 5.88993 17.0131 6.05142 16.6816 6.20867C16.5031 6.28942 16.3501 6.38717 16.2226 6.50616C16.0951 6.62091 15.9974 6.75265 15.9379 6.90565C16.1886 6.72715 16.4606 6.56566 16.7496 6.42116C17.0386 6.27667 17.3276 6.13217 17.6123 5.99617L17.6846 5.73268L17.6803 5.72843ZM13.337 3.48449C13.3242 3.57799 13.286 3.67148 13.2265 3.76073C13.1245 3.90522 13.0267 4.04122 12.929 4.17722C12.7165 4.10072 12.5847 4.05397 12.5295 4.03272C12.419 3.99023 12.2872 3.92647 12.13 3.83723C12.0365 3.98172 11.9642 4.08372 11.9175 4.15172C11.824 4.28772 11.7262 4.35571 11.6327 4.35571C11.5902 4.35571 11.5605 4.35572 11.5392 4.34722C11.4033 4.29197 11.297 4.25372 11.2248 4.22397C11.076 4.16447 10.9995 4.09647 10.9995 4.01997C10.9995 3.99447 11.0165 3.95623 11.0505 3.90948L11.4797 3.36974L12.2362 3.68423L12.5932 3.14449C12.8057 3.22099 12.963 3.28049 13.0735 3.32299C13.184 3.36549 13.269 3.42074 13.337 3.48024V3.48449ZM16.7029 8.10412C16.6604 8.24862 16.6349 8.33362 16.6221 8.36761C16.5796 8.46111 16.5244 8.53761 16.4479 8.59286C16.3799 8.59286 16.3161 8.57586 16.2524 8.53761C16.1929 8.49936 16.1589 8.44836 16.1589 8.38036C16.1589 8.06162 16.2226 7.80663 16.3544 7.61539C16.3544 7.65788 16.3459 7.72588 16.3289 7.82788C16.3119 7.92988 16.3034 7.99363 16.3034 8.02337C16.3034 8.12537 16.3374 8.21037 16.4054 8.27837C16.4606 8.29112 16.5159 8.26987 16.5796 8.20612C16.6434 8.14237 16.6816 8.11262 16.7029 8.10412ZM17.6123 11.2065C17.7908 10.9431 17.8758 10.6371 17.8758 10.2886C17.8758 9.97407 17.8121 9.66808 17.6888 9.36634C17.5613 9.0646 17.4041 8.79261 17.2129 8.55461L17.0896 9.37909C17.1024 9.42584 17.2044 9.64258 17.3956 10.0336C17.4551 10.1568 17.5061 10.2801 17.5401 10.4118C17.3276 10.7093 17.0216 10.8623 16.6221 10.8623C16.4989 10.8496 16.3841 10.8028 16.2736 10.7306C16.1631 10.6541 16.0611 10.5563 15.9676 10.4331C15.8869 10.2631 15.5554 9.26009 14.9774 7.42414C14.7607 6.72291 14.5099 6.15342 14.2209 5.71143C14.0637 5.85593 13.9872 6.07692 13.9872 6.37441C13.9872 6.40841 13.9872 6.45516 13.9957 6.51891C14.2464 6.9949 14.4419 7.39439 14.5779 7.71313C14.7607 8.14662 14.8967 8.56736 14.9859 8.96685C14.8499 9.29409 14.6289 9.61708 14.3229 9.93583C14.0594 10.2078 13.7534 10.4543 13.405 10.6796C13.1542 10.8283 12.9035 10.9771 12.6612 11.1173C12.3637 11.2873 12.1002 11.3723 11.875 11.3723C11.6965 11.3723 11.5265 11.3255 11.365 11.2278C11.2418 11.0578 11.1823 10.8708 11.1823 10.6668C11.297 10.2163 11.416 9.77008 11.5392 9.31959C11.5647 9.31959 11.603 9.31959 11.6497 9.32809C11.875 9.32809 12.1002 9.26009 12.3212 9.1241C12.4657 9.03485 12.6485 8.89035 12.8737 8.68636C13.0097 8.52486 13.1032 8.30812 13.15 8.04462C13.1755 7.88738 13.1925 7.64938 13.1925 7.33064C13.1457 7.21589 13.0735 7.09265 12.9715 6.96515C12.8737 6.83765 12.7675 6.72716 12.6612 6.63791C12.81 6.36592 12.963 6.09392 13.1202 5.82193C13.2817 5.50744 13.3667 5.21419 13.3667 4.9337C13.2987 5.0017 13.1287 5.23119 12.8567 5.61793C12.6527 5.90268 12.453 6.11942 12.2532 6.27242L11.8155 5.83468C11.8835 5.82618 11.9387 5.80068 11.9855 5.74968C12.028 5.69868 12.0705 5.64768 12.113 5.59243L11.399 5.26519C11.297 5.26519 11.2205 5.32469 11.1653 5.44794C11.11 5.65193 11.059 5.85168 11.0123 6.05142L11.7347 6.78665C11.5732 7.10115 11.4543 7.36464 11.3778 7.58139C11.263 7.90863 11.2035 8.20612 11.2035 8.47811C11.2035 8.77136 11.2758 9.0306 11.416 9.26434C11.3268 9.59583 11.2418 9.92733 11.161 10.2546C11.059 10.6541 11.008 10.9855 11.008 11.2448C11.008 11.5253 11.0548 11.7803 11.1525 12.0183C11.331 12.1798 11.535 12.2648 11.7645 12.2648C12.13 12.1628 12.487 12.031 12.8355 11.8653C13.2095 11.6825 13.5452 11.4743 13.8469 11.2448C14.1869 10.9728 14.4547 10.6881 14.6544 10.3863C14.8797 10.0548 15.0199 9.69783 15.0837 9.32384C15.2197 9.77433 15.3557 10.2206 15.4916 10.6711C15.6829 11.1895 15.9889 11.538 16.4096 11.7208C16.4436 11.7293 16.4989 11.7293 16.5711 11.7293C17.0216 11.7293 17.3659 11.555 17.6123 11.2108V11.2065ZM18.3263 11.6443C18.2243 11.7718 18.0926 11.8908 17.9268 11.9928C17.7908 12.0735 17.6166 12.1543 17.3999 12.2393C17.1874 12.32 17.0216 12.3838 16.9069 12.422C16.6901 12.5028 16.5244 12.5835 16.4054 12.6558C16.3841 12.6005 16.3969 12.541 16.4394 12.4773C16.4819 12.4135 16.5116 12.371 16.5244 12.3498C17.1236 12.1118 17.7228 11.878 18.3178 11.6443H18.3263ZM13.8597 8.93285C13.8172 9.13685 13.7874 9.26434 13.7662 9.31959C13.7109 9.45559 13.6259 9.54484 13.5112 9.58309C13.4772 9.57034 13.4432 9.55333 13.4092 9.53208C13.3497 9.48959 13.3157 9.43434 13.3157 9.35784C13.3157 9.19635 13.3285 9.05185 13.3582 8.9286C13.3667 8.8946 13.439 8.66936 13.5834 8.25712C13.5962 8.31662 13.5919 8.40161 13.5622 8.50361C13.4942 8.78835 13.4602 8.9456 13.4602 8.9711C13.4602 9.1071 13.5197 9.20059 13.6344 9.24734C13.6812 9.22184 13.7237 9.16234 13.7577 9.07735C13.7917 8.99235 13.8257 8.94135 13.8597 8.9286V8.93285ZM27.1704 10.994C27.1789 11.0365 27.2001 11.1045 27.2426 11.2065C27.2426 11.249 27.2086 11.2788 27.1406 11.3C27.0726 11.334 26.9876 11.351 26.8856 11.351C26.7836 11.351 26.6944 11.3383 26.6136 11.317C26.5371 11.2915 26.4776 11.2745 26.4351 11.2618C26.2736 11.147 26.1546 11.0493 26.0781 10.9643C25.9634 10.8368 25.9039 10.7093 25.9039 10.5861C25.9634 10.5861 26.0271 10.5861 26.0909 10.5818C26.1546 10.5818 26.2226 10.5776 26.2906 10.5776C26.5074 10.5776 26.6901 10.6073 26.8304 10.6626C26.9749 10.7221 27.0854 10.8326 27.1661 10.994H27.1704ZM24.6927 11.81L24.6629 11.912C24.6629 11.912 24.6289 11.878 24.5822 11.8525C24.5737 11.8398 24.5694 11.827 24.5609 11.81H24.6927ZM12.8015 7.88313C12.504 8.10837 12.2957 8.24862 12.1852 8.29961C12.0747 8.35486 11.9472 8.38036 11.8112 8.38036C11.7347 8.38036 11.6582 8.37186 11.5775 8.35062C11.5435 8.29112 11.5265 8.22312 11.5265 8.14662C11.5265 7.98938 11.6327 7.78538 11.841 7.53464C11.9005 7.45814 11.994 7.35189 12.1172 7.20739C12.2405 7.31789 12.368 7.42839 12.504 7.54313C12.64 7.65788 12.7377 7.77263 12.8015 7.87888V7.88313Z" fill="currentColor"/>
</svg>
