<svg width="24" height="24" viewBox="0 0 24 24" fill="none" xmlns="http://www.w3.org/2000/svg">
<path d="M20 15.9605L20 8.0395C20 7.41423 19.6121 6.85455 19.0267 6.635L12.7022 4.26334C12.2495 4.09355 11.7505 4.09355 11.2978 4.26334L4.97332 6.635C4.38786 6.85455 4 7.41423 4 8.0395L4 15.9605C4 16.5858 4.38786 17.1454 4.97332 17.365L11.2978 19.7367C11.7505 19.9064 12.2495 19.9064 12.7022 19.7367L19.0267 17.365C19.6121 17.1454 20 16.5858 20 15.9605Z" stroke="currentColor" stroke-width="1.5" stroke-linecap="round"/>
<path d="M20 10L12.5267 7.19751C12.1871 7.07016 11.8129 7.07016 11.4733 7.19751L4 10" stroke="currentColor" stroke-width="1.5" stroke-linecap="round"/>
<path d="M14 18.5V13.0128C14 13.0063 14.0061 13.0015 14.0124 13.0031L15.9924 13.4981C15.9969 13.4992 16 13.5032 16 13.5078V18" stroke="currentColor" stroke-width="1.5" stroke-linecap="round"/>
</svg>
