<svg width="24" height="24" viewBox="0 0 24 24" fill="none" xmlns="http://www.w3.org/2000/svg">
<path d="M4 15C4 10.5817 7.58172 7 12 7C16.4183 7 20 10.5817 20 15L20 19.5C20 19.7761 19.7761 20 19.5 20L4.5 20C4.22386 20 4 19.7761 4 19.5L4 15Z" stroke="currentColor" stroke-width="1.5"/>
<path d="M12 7V4.5" stroke="currentColor" stroke-width="1.5" stroke-linecap="round" stroke-linejoin="round"/>
<path d="M11.7737 10.2322C11.8637 10.0405 12.1363 10.0405 12.2263 10.2322L12.9863 11.8512C13.0217 11.9267 13.0924 11.9795 13.1748 11.9921L14.8941 12.2548C15.0952 12.2855 15.1773 12.5309 15.0352 12.6765L13.7756 13.9675C13.7202 14.0243 13.695 14.104 13.7078 14.1824L14.003 15.9919C14.0366 16.1979 13.8179 16.3519 13.6353 16.2509L12.1209 15.4138C12.0457 15.3722 11.9543 15.3722 11.8791 15.4138L10.3647 16.2509C10.1821 16.3519 9.96342 16.1979 9.99702 15.9919L10.2922 14.1824C10.305 14.104 10.2798 14.0243 10.2244 13.9675L8.96477 12.6765C8.82267 12.5309 8.9048 12.2855 9.10595 12.2548L10.8252 11.9921C10.9076 11.9795 10.9783 11.9267 11.0137 11.8512L11.7737 10.2322Z" fill="currentColor"/>
</svg>
